<svg width="24" height="24" viewBox="0 0 24 24" fill="none" xmlns="http://www.w3.org/2000/svg">
<path d="M7.40161 21.5C6.90646 21.5 6.48273 21.3239 6.13043 20.9717C5.77752 20.6189 5.60107 20.195 5.60107 19.7C5.60107 19.205 5.77752 18.7811 6.13043 18.4283C6.48273 18.0761 6.90646 17.9 7.40161 17.9C7.89676 17.9 8.32048 18.0761 8.67279 18.4283C9.02569 18.7811 9.20214 19.205 9.20214 19.7C9.20214 20.195 9.02569 20.6189 8.67279 20.9717C8.32048 21.3239 7.89676 21.5 7.40161 21.5ZM16.4043 21.5C15.9091 21.5 15.4854 21.3239 15.1331 20.9717C14.7802 20.6189 14.6038 20.195 14.6038 19.7C14.6038 19.205 14.7802 18.7811 15.1331 18.4283C15.4854 18.0761 15.9091 17.9 16.4043 17.9C16.8994 17.9 17.3235 18.0761 17.6764 18.4283C18.0287 18.7811 18.2048 19.205 18.2048 19.7C18.2048 20.195 18.0287 20.6189 17.6764 20.9717C17.3235 21.3239 16.8994 21.5 16.4043 21.5ZM7.40161 17C6.72641 17 6.21626 16.7036 5.87115 16.1108C5.52605 15.5186 5.51104 14.93 5.82614 14.345L7.0415 12.14L3.80054 5.3H2.87776C2.62269 5.3 2.41262 5.2136 2.24757 5.0408C2.08252 4.8686 2 4.655 2 4.4C2 4.145 2.08643 3.9311 2.25928 3.7583C2.43153 3.5861 2.64519 3.5 2.90027 3.5H4.3632C4.52825 3.5 4.6858 3.545 4.83584 3.635C4.98589 3.725 5.09842 3.8525 5.17344 4.0175L5.78113 5.3H19.0601C19.4652 5.3 19.7428 5.45 19.8928 5.75C20.0429 6.05 20.0354 6.365 19.8703 6.695L16.6744 12.455C16.5093 12.755 16.2918 12.9875 16.0217 13.1525C15.7516 13.3175 15.444 13.4 15.0989 13.4H8.3919L7.40161 15.2H17.3271C17.5821 15.2 17.7922 15.2861 17.9572 15.4583C18.1223 15.6311 18.2048 15.845 18.2048 16.1C18.2048 16.355 18.1184 16.5686 17.9455 16.7408C17.7733 16.9136 17.5596 17 17.3046 17H7.40161Z" fill="#1E1E1E"/>
</svg>
