<svg width="24" height="24" viewBox="0 0 24 24" fill="none" xmlns="http://www.w3.org/2000/svg">
<g clip-path="url(#clip0_381_10428)">
<rect width="24" height="24" rx="12" fill="#9D9D9D"/>
<path d="M8.616 17.5V16.744C9.68933 15.8013 10.5713 14.9427 11.262 14.168C11.962 13.3933 12.48 12.6747 12.816 12.012C13.152 11.34 13.32 10.71 13.32 10.122C13.32 9.73 13.25 9.38 13.11 9.072C12.9793 8.764 12.774 8.526 12.494 8.358C12.214 8.18067 11.8593 8.092 11.43 8.092C11.01 8.092 10.618 8.204 10.254 8.428C9.89933 8.652 9.582 8.93667 9.302 9.282L8.56 8.554C8.97067 8.09667 9.414 7.73267 9.89 7.462C10.366 7.19133 10.9307 7.056 11.584 7.056C12.2 7.056 12.7273 7.182 13.166 7.434C13.614 7.67667 13.9593 8.02667 14.202 8.484C14.454 8.932 14.58 9.45933 14.58 10.066C14.58 10.7473 14.4073 11.438 14.062 12.138C13.726 12.838 13.2547 13.552 12.648 14.28C12.0507 14.9987 11.3507 15.736 10.548 16.492C10.8187 16.4733 11.0987 16.4547 11.388 16.436C11.6867 16.408 11.9667 16.394 12.228 16.394H15.07V17.5H8.616Z" fill="white"/>
</g>
<defs>
<clipPath id="clip0_381_10428">
<rect width="24" height="24" rx="12" fill="white"/>
</clipPath>
</defs>
</svg>
