<svg width="24" height="24" viewBox="0 0 24 24" fill="none" xmlns="http://www.w3.org/2000/svg">
<g clip-path="url(#clip0_381_10433)">
<rect width="24" height="24" rx="12" fill="#9D9D9D"/>
<path d="M11.682 17.682C11.15 17.682 10.6787 17.6167 10.268 17.486C9.86667 17.3553 9.512 17.1827 9.204 16.968C8.896 16.7533 8.63 16.52 8.406 16.268L9.064 15.442C9.36267 15.75 9.71267 16.0253 10.114 16.268C10.5247 16.5013 11.0193 16.618 11.598 16.618C12.0087 16.618 12.368 16.5433 12.676 16.394C12.9933 16.2353 13.2407 16.016 13.418 15.736C13.5953 15.4467 13.684 15.106 13.684 14.714C13.684 14.3033 13.5813 13.944 13.376 13.636C13.18 13.328 12.8487 13.09 12.382 12.922C11.9153 12.7447 11.2853 12.656 10.492 12.656V11.676C11.2013 11.676 11.7613 11.592 12.172 11.424C12.5827 11.2467 12.8767 11.0087 13.054 10.71C13.2407 10.4113 13.334 10.08 13.334 9.716C13.334 9.22133 13.18 8.82933 12.872 8.54C12.564 8.24133 12.1393 8.092 11.598 8.092C11.1873 8.092 10.8 8.18533 10.436 8.372C10.0813 8.55867 9.75933 8.79667 9.47 9.086L8.784 8.274C9.176 7.91933 9.60067 7.63 10.058 7.406C10.5247 7.17267 11.052 7.056 11.64 7.056C12.2187 7.056 12.732 7.15867 13.18 7.364C13.6373 7.56 13.992 7.84933 14.244 8.232C14.5053 8.61467 14.636 9.07667 14.636 9.618C14.636 10.2433 14.468 10.7613 14.132 11.172C13.796 11.5827 13.3573 11.886 12.816 12.082V12.152C13.2173 12.2453 13.5813 12.4087 13.908 12.642C14.2347 12.8753 14.496 13.1693 14.692 13.524C14.888 13.8787 14.986 14.2893 14.986 14.756C14.986 15.3627 14.8367 15.8853 14.538 16.324C14.2393 16.7627 13.8427 17.0987 13.348 17.332C12.8533 17.5653 12.298 17.682 11.682 17.682Z" fill="white"/>
</g>
<defs>
<clipPath id="clip0_381_10433">
<rect width="24" height="24" rx="12" fill="white"/>
</clipPath>
</defs>
</svg>
