<svg width="132" height="140" viewBox="0 0 132 140" fill="none" xmlns="http://www.w3.org/2000/svg">
<path d="M10.3768 6.42441C9.95374 8.79758 11.3076 12.8659 11.3076 12.8659C11.3076 12.8659 16.1307 9.8994 16.5538 7.52623C17.0614 5.0683 15.8768 1 15.8768 1C15.8768 1 10.7999 4.136 10.3768 6.42441Z" fill="#9DC762"/>
<path d="M14.3539 17.6124C11.9 20.0703 12.2385 23.291 12.2385 23.291C12.2385 23.291 15.1154 23.5453 18.3308 21.0026C21.5462 18.5447 20.7 14.8154 20.7 14.8154C20.7 14.8154 16.6385 15.2392 14.3539 17.6124Z" fill="#70BF66"/>
<path d="M10.2076 17.8663C12.4076 20.3243 12.4075 23.545 12.4075 23.545C12.4075 23.545 8.09217 24.0535 5.97678 21.1718C4.45371 18.9682 4.11523 15.4932 4.11523 15.4932C4.11523 15.4932 8.34601 15.9169 10.2076 17.8663Z" fill="#9DC762"/>
<path d="M16.6385 28.8845C13.7616 32.19 14.0155 36.343 14.0155 36.343C14.0155 36.343 19.177 37.3601 22.2232 33.8851C25.0155 30.8339 24.0847 26.4265 24.0847 26.4265C24.0847 26.4265 18.9232 26.257 16.6385 28.8845Z" fill="#9DC762"/>
<path d="M9.78463 29.7322C13.5077 32.953 13.4231 36.428 13.4231 36.428C13.4231 36.428 9.27693 38.5469 5.04616 35.3261C2.42308 33.3767 2 28.2914 2 28.2914C2 28.2914 8.0077 28.2066 9.78463 29.7322Z" fill="#70BF66"/>
<path d="M17.9922 41.9373C15.6229 45.6666 16.2152 50.9214 16.2152 50.9214C16.2152 50.9214 21.0383 51.4299 25.3537 46.5141C28.8229 42.5306 26.2845 37.1909 26.2845 37.1909C26.2845 37.1909 20.3614 38.2928 17.9922 41.9373Z" fill="#70BF66"/>
<path d="M11.3924 42.6152C15.4539 44.4799 16.7231 50.4975 16.7231 50.4975C16.7231 50.4975 12.2385 53.3793 7.07696 50.4128C3.26927 48.2091 2.84619 42.5304 2.84619 42.5304C2.84619 42.5304 8.3462 41.3439 11.3924 42.6152Z" fill="#9DC762"/>
<path d="M22.0536 55.4136C19.5998 60.6684 21.3767 65.8386 21.3767 65.8386C21.3767 65.8386 28.3151 65.33 31.0228 59.8209C33.392 54.905 30.6844 49.5654 30.6844 49.5654C30.6844 49.5654 24.0844 51.1758 22.0536 55.4136Z" fill="#9DC762"/>
<path d="M15.6232 58.8035C21.2078 62.109 21.6309 65.923 21.6309 65.923C21.6309 65.923 16.4693 69.8218 11.6462 67.1096C7.92314 64.9059 5.72314 57.7017 5.72314 57.7017C5.72314 57.7017 12.9155 57.1931 15.6232 58.8035Z" fill="#70BF66"/>
<path d="M27.4691 70.9235C25.6922 75.8394 27.8922 81.8571 27.8922 81.8571C27.8922 81.8571 33.5614 81.0943 37.2845 74.1443C40.2461 68.6351 35.6768 63.126 35.6768 63.126C35.6768 63.126 29.1614 66.0076 27.4691 70.9235Z" fill="#70BF66"/>
<path d="M20.192 73.2119C25.6073 74.9071 28.1458 82.1961 28.1458 82.1961C28.1458 82.1961 23.9997 85.1626 17.1458 82.1961C11.9843 79.9925 9.4458 72.0254 9.4458 72.0254C9.4458 72.0254 16.2997 72.0254 20.192 73.2119Z" fill="#9DC762"/>
<path d="M38.3 86.858C36.9461 92.5367 39.9923 98.8086 39.9923 98.8086C39.9923 98.8086 46.2538 97.3678 49.4692 89.2312C52.0922 82.7897 46.423 77.1958 46.423 77.1958C46.423 77.1958 39.5692 81.1794 38.3 86.858Z" fill="#9DC762"/>
<path d="M30.8537 91.0955C36.6921 92.3668 39.9075 99.7406 39.9075 99.7406C39.9075 99.7406 34.8306 104.402 27.2999 101.859C21.7153 100.08 18.5845 92.8753 18.5845 92.8753C18.5845 92.8753 26.6229 90.1632 30.8537 91.0955Z" fill="#70BF66"/>
<path d="M50.9078 98.9782C50.1462 104.487 53.7001 110.166 53.7001 110.166C53.7001 110.166 59.4539 108.132 61.7385 100.165C63.5154 93.8081 57.677 89.1465 57.677 89.1465C57.677 89.1465 51.5847 93.5538 50.9078 98.9782Z" fill="#70BF66"/>
<path d="M42.8691 105.334C48.5384 105.08 53.4461 111.098 53.4461 111.098C53.4461 111.098 49.2153 116.438 41.5999 116.014C36.0153 115.759 30.4307 109.572 30.4307 109.572C30.4307 109.572 38.6384 105.589 42.8691 105.334Z" fill="#9DC762"/>
<path d="M64.2767 109.912C65.7998 116.099 71.8921 120.76 71.8921 120.76C71.8921 120.76 77.2229 116.268 76.3768 106.776C75.7845 99.2324 67.5768 96.605 67.5768 96.605C67.5768 96.605 62.8383 103.809 64.2767 109.912Z" fill="#9DC762"/>
<path d="M57.6767 117.37C63.8536 115.336 72.569 119.913 72.569 119.913C72.569 119.913 70.4536 124.659 63.0075 127.287C55.6459 129.829 47.8613 123.896 47.8613 123.896C47.8613 123.896 53.1921 118.896 57.6767 117.37Z" fill="#70BF66"/>
<path d="M84.077 117.625C87.2077 123.218 94.3154 126.015 94.3154 126.015C94.3154 126.015 98.2077 120.252 94.9077 111.353C92.2 104.233 83.6539 103.894 83.6539 103.894C83.6539 103.894 81.0308 112.115 84.077 117.625Z" fill="#70BF66"/>
<path d="M79.7616 127.541C85.4309 124.405 94.3154 126.015 94.3154 126.015C94.3154 126.015 93.1308 133.813 85.177 137.118C79.2539 139.576 73.7539 137.288 73.7539 137.288C73.7539 137.288 75.6155 129.744 79.7616 127.541Z" fill="#9DC762"/>
<path d="M11.4768 12.8656C13.3383 42.8692 21.2076 77.7888 42.5306 100.249C53.5306 111.691 68.7614 117.539 83.4845 122.625C98.4614 127.795 114.2 130.168 128.923 136.355C129.261 136.44 129.431 136.864 129.261 137.203C129.092 137.542 128.754 137.711 128.415 137.542C113.861 131.439 98.0383 129.066 83.0614 123.896C68.1691 118.726 52.6845 112.708 41.5998 101.097C24.9306 83.7217 17.0614 59.9052 13.2537 36.5126C11.9845 28.715 11.1383 20.7479 11.0537 12.8656C11.0537 12.6961 11.1383 12.6113 11.3075 12.6113C11.3922 12.6113 11.4768 12.6961 11.4768 12.8656Z" fill="#9EC14B"/>
</svg>
