<svg width="224" height="124" viewBox="0 0 224 124" fill="none" xmlns="http://www.w3.org/2000/svg">
<path d="M19.8008 31.0998C18.0008 30.5998 11.2007 27.0998 6.20068 34.0998C4.40068 34.3998 2.30078 34.6998 2.30078 34.6998C2.30078 34.6998 4.20076 35.7998 5.90076 36.8998C6.60076 41.0998 10.1008 43.0998 13.4008 44.8998C16.3008 50.8998 23.6007 56.6998 31.2007 58.1998C42.6007 60.3998 48.9007 55.5998 53.0007 53.4998C55.4007 53.8998 63.0007 57.8998 65.5007 57.4998C66.8007 57.1998 67.8007 53.2998 66.5007 53.3998C64.1007 53.5998 58.3007 53.1998 54.2007 50.1998C52.6007 49.5998 50.9007 48.5998 49.6007 46.7998C48.8007 45.6998 56.6008 43.2998 59.4008 25.3998C68.1008 21.3998 77.1008 10.3998 72.8008 10.7998C64.2008 11.4998 58.5007 14.8998 51.6007 15.6998C47.1007 16.1998 40.3007 25.6998 35.7007 27.8998C28.3007 16.8998 34.3008 6.29978 32.3008 1.79978C31.1008 -0.900219 17.1007 16.2998 16.7007 20.1998C16.3007 23.6998 21.3008 28.7998 19.8008 31.0998Z" fill="#29BECB"/>
<g style="mix-blend-mode:screen" opacity="0.63">
<path d="M19.8008 31.0998C18.0008 30.5998 11.2007 27.0998 6.20068 34.0998C4.40068 34.3998 2.30078 34.6998 2.30078 34.6998C2.30078 34.6998 4.20076 35.7998 5.90076 36.8998C6.60076 41.0998 10.1008 43.0998 13.4008 44.8998C16.3008 50.8998 23.6007 56.6998 31.2007 58.1998C42.6007 60.3998 48.9007 55.5998 53.0007 53.4998C55.4007 53.8998 63.0007 57.8998 65.5007 57.4998C66.8007 57.1998 67.8007 53.2998 66.5007 53.3998C64.1007 53.5998 58.3007 53.1998 54.2007 50.1998C52.6007 49.5998 50.9007 48.5998 49.6007 46.7998C48.8007 45.6998 56.6008 43.2998 59.4008 25.3998C68.1008 21.3998 77.1008 10.3998 72.8008 10.7998C64.2008 11.4998 58.5007 14.8998 51.6007 15.6998C47.1007 16.1998 40.3007 25.6998 35.7007 27.8998C28.3007 16.8998 34.3008 6.29978 32.3008 1.79978C31.1008 -0.900219 17.1007 16.2998 16.7007 20.1998C16.3007 23.6998 21.3008 28.7998 19.8008 31.0998Z" fill="#29BECB"/>
</g>
<path d="M11.401 35.3999C11.301 35.4999 11.001 35.4999 10.801 35.3999C10.701 35.1999 10.701 34.8999 10.901 34.7999C11.101 34.5999 11.301 34.5999 11.501 34.7999C11.601 34.9999 11.601 35.2999 11.401 35.3999Z" stroke="#4F4F51" stroke-width="1.1" stroke-miterlimit="10" stroke-linecap="round"/>
<path d="M161.7 73.7503C159.8 72.6503 156.1 71.1503 155 67.0503C153 66.1503 150.5 64.8503 150.5 64.8503C150.5 64.8503 152.5 64.4503 154.8 64.4503C158.9 56.7503 168.7 58.1503 173.1 62.8503C177.8 66.5503 182.9 64.7503 190.8 67.4503C193.8 68.5503 201.2 75.3503 203 79.8503C207.7 83.0503 217.5 83.8503 222.2 82.3503C223.6 81.8503 220.7 88.2503 219.2 88.2503C217.8 88.3503 210.3 86.8503 206.2 84.8503C204.4 84.3503 198.3 88.0503 195.8 87.6503C194.4 87.4503 195.3 95.7503 191.3 102.15C193.4 112.55 195.4 126.35 192.2 122.85C187.8 118.05 181.9 112.75 177.5 105.75C174.9 101.65 173.3 95.7503 172.2 89.3503C165.4 94.0503 163 92.9503 160.7 95.9503C158.9 98.2503 152.6 102.05 150.5 103.35C148.4 104.75 151.5 92.3503 152.2 89.5503C154.9 79.1503 161.4 76.6503 161.7 73.7503Z" fill="#29BECB"/>
<g style="mix-blend-mode:screen" opacity="0.63">
<path d="M161.7 73.7503C159.8 72.6503 156.1 71.1503 155 67.0503C153 66.1503 150.5 64.8503 150.5 64.8503C150.5 64.8503 152.5 64.4503 154.8 64.4503C158.9 56.7503 168.7 58.1503 173.1 62.8503C177.8 66.5503 182.9 64.7503 190.8 67.4503C193.8 68.5503 201.2 75.3503 203 79.8503C207.7 83.0503 217.5 83.8503 222.2 82.3503C223.6 81.8503 220.7 88.2503 219.2 88.2503C217.8 88.3503 210.3 86.8503 206.2 84.8503C204.4 84.3503 198.3 88.0503 195.8 87.6503C194.4 87.4503 195.3 95.7503 191.3 102.15C193.4 112.55 195.4 126.35 192.2 122.85C187.8 118.05 181.9 112.75 177.5 105.75C174.9 101.65 173.3 95.7503 172.2 89.3503C165.4 94.0503 163 92.9503 160.7 95.9503C158.9 98.2503 152.6 102.05 150.5 103.35C148.4 104.75 151.5 92.3503 152.2 89.5503C154.9 79.1503 161.4 76.6503 161.7 73.7503Z" fill="#29BECB"/>
</g>
<path d="M161.1 64.8502C161.1 64.5502 160.8 64.4502 160.6 64.4502C160.3 64.4502 160.2 64.7502 160.2 64.9502C160.3 65.1502 160.5 65.3502 160.7 65.3502C161 65.2502 161.1 65.0502 161.1 64.8502Z" stroke="#4F4F51" stroke-width="1.2" stroke-miterlimit="10" stroke-linecap="round"/>
</svg>
