<svg width="96" height="16" viewBox="0 0 96 16" fill="none" xmlns="http://www.w3.org/2000/svg">
<path d="M50.2642 8.98217C50.1333 8.76391 49.9587 8.72023 49.6967 8.89484C49.4348 9.06944 49.1293 9.15674 48.8237 9.33135C49.3912 9.59326 50.1769 9.85517 51.0063 9.94248C50.788 9.63692 50.4825 9.33138 50.2642 8.98217Z" fill="#D2F0B0"/>
<path d="M55.1964 1.86697C55.371 1.82331 55.4584 1.91062 55.5457 2.08522C55.7639 2.60904 56.1131 2.65271 56.5496 2.43445C57.6409 1.95429 57.5099 2.04159 57.9028 3.08922C58.1647 3.74399 58.5576 4.26777 58.6449 4.96619C58.674 5.1117 58.674 5.22812 58.6449 5.31542C59.0814 4.5297 59.4742 3.74397 59.8234 2.95825C59.6925 2.56539 59.6052 2.17256 59.7798 1.73604C59.8671 1.56144 59.8234 1.38679 59.6925 1.25584C59.4888 0.99393 59.3142 0.702922 59.1687 0.382812H58.9068C58.9504 0.557417 58.9941 0.775706 59.125 0.906659C59.6488 1.51778 59.7798 1.95427 58.8631 2.30348C58.6885 2.34713 58.7322 2.60903 58.7758 2.78363C58.8631 3.00189 58.8631 3.26382 58.6449 3.35112C58.383 3.43842 58.252 3.22014 58.1647 3.00189C58.0338 2.78363 57.9465 2.4781 57.8592 2.2162C57.7282 1.86699 57.5099 1.736 57.1607 1.91061L57.1171 1.9543C56.7242 2.0416 56.375 2.43442 55.9822 2.12886C55.5457 1.77965 55.0218 1.43044 54.8036 0.819325L54.0615 0.993941C54.3234 1.3868 54.5417 1.95427 55.1964 1.86697Z" fill="#C2EB94"/>
<path d="M58.2961 5.66461L57.7286 5.92651C57.4667 6.05746 57.2485 5.97016 57.1612 5.70825L57.1175 5.57728C56.812 4.96616 56.5064 4.44238 55.7207 4.79159C54.935 5.18445 54.5421 4.44235 54.1056 4.00584C53.8001 3.70028 53.5382 3.56935 53.1889 3.7003C52.7524 3.78761 52.4469 3.78759 52.185 3.35107C52.0104 3.04551 51.6612 2.95823 51.4429 2.60902C51.3993 2.43442 51.2683 2.43439 51.0937 2.52169C50.4826 3.0455 49.9588 3.74393 49.5659 4.44235L49.6532 4.57333C49.8278 4.92254 50.0461 4.92254 50.3953 4.79159C50.9191 4.57333 51.4866 4.52966 52.0104 4.2241C52.3159 4.09314 52.4905 4.22408 52.6215 4.52964L52.7088 4.79159C53.3635 5.83922 53.1453 5.75188 54.062 5.35902C54.4985 5.14076 54.7604 5.31537 55.1969 5.57728C55.7207 5.88284 56.2445 6.45029 56.9866 6.27569C57.2485 6.23203 57.4667 6.18843 57.685 6.10112L58.3834 5.79553L58.5144 5.57728L58.2961 5.66461Z" fill="#C2EB94"/>
<path d="M52.7524 1.69262C52.9707 1.56167 53.1016 1.47441 53.1889 1.2998L52.3159 1.69262L51.8794 1.91088C52.185 1.86723 52.4905 1.82358 52.7524 1.69262Z" fill="#CFEEA8"/>
<path d="M57.6847 6.10093C57.4664 6.18824 57.2482 6.23184 56.9863 6.2755C56.2442 6.4501 55.7204 5.88265 55.1966 5.57709C54.7601 5.31518 54.4981 5.14057 54.0616 5.35883C53.145 5.75169 53.3632 5.83903 52.7085 4.7914L52.6212 4.52945C52.4902 4.22389 52.3156 4.09295 52.01 4.22391C51.4862 4.52947 50.9188 4.57314 50.395 4.7914C50.0457 4.92235 49.8275 4.92235 49.6529 4.57314L49.5656 4.44216C48.7799 5.839 48.4307 7.36681 48.4307 8.54539C49.0418 8.72 49.1291 8.58901 49.5656 7.80329C49.9148 7.10487 50.3513 7.06125 50.7878 7.67237C50.8751 7.80332 50.9188 8.06522 51.0934 7.93427C51.268 7.84696 51.137 7.62871 51.0934 7.49775C51.0497 7.32315 50.9624 7.14856 51.0497 6.97396C51.1807 6.62475 51.5299 6.53744 51.6608 6.79934C51.8791 7.23586 52.0537 7.71601 52.1846 8.15252C52.272 8.32713 52.141 8.32714 52.01 8.32714C51.6172 8.32714 51.3989 8.67632 51.4862 8.89457C51.5735 9.24378 51.6172 9.63664 51.7481 9.98585C53.3196 9.98585 55.022 9.54938 56.3751 8.2835C57.0736 7.67238 57.6847 6.84298 58.2521 5.96996C58.0775 6.05726 57.8884 6.10093 57.6847 6.10093Z" fill="#BFE88D"/>
<path d="M51.4862 8.89448C51.3989 8.67623 51.6172 8.32705 52.01 8.32705C52.141 8.32705 52.2719 8.32704 52.1846 8.15243C52.0537 7.71592 51.8791 7.23577 51.6608 6.79925C51.5299 6.53735 51.1807 6.62466 51.0497 6.97387C50.9624 7.14847 51.0497 7.32306 51.0934 7.49766C51.137 7.62862 51.268 7.84687 51.0934 7.93418C50.9188 8.06513 50.8751 7.80323 50.7878 7.67228C50.3513 7.06116 49.9148 7.10478 49.5656 7.8032C49.1291 8.58892 49.0418 8.71991 48.4307 8.5453L48.4743 9.11274L48.8235 9.33099C49.1291 9.15639 49.4346 9.06909 49.6965 8.89448C49.9585 8.71988 50.133 8.76356 50.264 8.98182C50.4823 9.33103 50.7878 9.63656 51.0061 9.94212L51.7481 9.98576C51.6172 9.63655 51.5735 9.24369 51.4862 8.89448Z" fill="#C2EB94"/>
<path d="M52.7525 1.69304C52.4906 1.82399 52.185 1.86764 51.8795 1.91129C51.6176 2.0859 51.3557 2.28962 51.0938 2.52242C51.2684 2.43512 51.3993 2.43515 51.443 2.60976C51.6612 2.95897 52.0104 3.04625 52.185 3.35181C52.4469 3.78832 52.7525 3.78834 53.189 3.70104C53.5382 3.57008 53.8001 3.70102 54.1057 4.00658C54.5422 4.44309 54.935 5.18518 55.7207 4.79232C56.5065 4.44311 56.812 4.96689 57.1176 5.57801L57.1612 5.70899C57.2485 5.97089 57.4668 6.0582 57.7287 5.92724L58.2962 5.66534L58.5144 5.57801L58.6454 5.31611C58.6745 5.22881 58.6745 5.11239 58.6454 4.96688C58.5581 4.26846 58.1652 3.74468 57.9033 3.08991C57.5104 2.04228 57.6414 1.95498 56.5501 2.43514C56.1136 2.6534 55.7644 2.60973 55.5461 2.08591C55.4588 1.91131 55.3715 1.824 55.1969 1.86765C54.5422 1.95496 54.3239 1.38749 54.062 0.994629L53.189 1.30022C53.1017 1.47482 52.9707 1.56208 52.7525 1.69304Z" fill="#C6ED9C"/>
<path d="M59.6928 1.25584C59.8237 1.38679 59.8674 1.56144 59.7801 1.73604C59.6055 2.17256 59.6928 2.56539 59.8237 2.95825C60.2602 2.04157 60.5658 1.16857 60.8277 0.470147L60.784 0.426506C60.3475 0.426506 59.7801 0.382812 59.1689 0.382812C59.3144 0.702922 59.4891 0.99393 59.6928 1.25584Z" fill="#C6ED9C"/>
<path d="M55.9828 2.12886C56.3756 2.43442 56.7248 2.0416 57.1177 1.9543L57.1613 1.91061C57.5106 1.736 57.7288 1.86699 57.8598 2.2162C57.9471 2.4781 58.0344 2.78363 58.1653 3.00189C58.2526 3.22014 58.3836 3.43842 58.6455 3.35112C58.8637 3.26382 58.8637 3.00189 58.7764 2.78363C58.7328 2.60903 58.6891 2.34713 58.8637 2.30348C59.7804 1.95427 59.6495 1.51778 59.1256 0.90666C58.9947 0.775706 58.951 0.557418 58.9074 0.382812C57.6415 0.426464 56.201 0.513766 54.8042 0.819325C55.0225 1.43044 55.5463 1.77965 55.9828 2.12886Z" fill="#C1EA94"/>
<path d="M60.8285 0.426758H60.7842L60.8285 0.471096V0.426758Z" fill="#CBED9F"/>
<path d="M57.6851 6.101C57.8888 6.101 58.0779 6.05733 58.2525 5.97003L58.3835 5.79541L57.6851 6.101Z" fill="#C1EA94"/>
<path d="M46.728 8.894C46.5097 8.76305 46.2915 8.80673 46.1605 8.98134C45.9423 9.33055 45.6367 9.63608 45.4185 9.94164C46.2478 9.85434 47.0335 9.59242 47.601 9.33051C47.2954 9.15591 46.9899 9.06861 46.728 8.894Z" fill="#D2F0B0"/>
<path d="M37.7801 4.96619C37.8674 4.26777 38.2603 3.74398 38.5222 3.13286C38.9151 2.04158 38.8278 1.95429 39.8754 2.43445C40.3119 2.65271 40.6611 2.60904 40.8793 2.08522C40.9667 1.95427 41.054 1.82331 41.2286 1.86697C41.8833 1.95427 42.1016 1.43045 42.4071 0.993941L41.6214 0.819325C41.4032 1.43044 40.923 1.7797 40.4428 2.17256C40.0936 2.47812 39.7008 2.0416 39.3079 1.9543L39.2643 1.91061C38.9151 1.77965 38.6968 1.86699 38.5659 2.2162C38.4786 2.52176 38.3912 2.78367 38.2603 3.04558C38.173 3.22019 38.042 3.43842 37.7801 3.35112C37.5619 3.26382 37.5619 3.00193 37.6492 2.82733C37.6928 2.60907 37.7365 2.39078 37.5619 2.30348C36.6452 1.99792 36.7762 1.51778 37.3436 0.906659C37.4309 0.775706 37.4746 0.601069 37.5619 0.382812H37.3C37.1254 0.702922 36.9362 1.00852 36.7325 1.29953C36.6452 1.43049 36.5579 1.60509 36.6452 1.73604C36.8198 2.21621 36.7325 2.60903 36.6016 3.00189C36.9508 3.78761 37.3436 4.57333 37.7801 5.40271C37.7801 5.2863 37.7801 5.1408 37.7801 4.96619Z" fill="#C2EB94"/>
<path d="M38.7842 6.10114C38.9588 6.18844 39.2207 6.23205 39.4389 6.2757C40.181 6.4503 40.7048 5.9265 41.2723 5.57729C41.6651 5.35903 41.927 5.18443 42.3635 5.35903C43.2802 5.7519 43.1056 5.83923 43.7167 4.7916L43.8477 4.52965C43.935 4.22409 44.1532 4.09315 44.4151 4.26775C44.9389 4.52966 45.5064 4.61698 46.0302 4.83524C46.3794 4.96619 46.5977 4.92254 46.7723 4.61698L46.8596 4.48601C46.4667 3.74394 45.9429 3.08917 45.3318 2.5217C45.2008 2.47805 45.0699 2.47808 44.9826 2.60904C44.808 2.95825 44.4151 3.08918 44.2405 3.35109C43.9786 3.7876 43.6731 3.83127 43.2365 3.70032C42.8873 3.56936 42.6254 3.7003 42.3199 4.00586C41.927 4.44237 41.4905 5.18445 40.7048 4.83524C39.9191 4.44238 39.6135 4.96616 39.308 5.62093L39.2643 5.70827C39.177 6.01382 38.9588 6.05748 38.6968 5.92652L38.1294 5.70827C38.0421 5.65006 37.9693 5.60639 37.9111 5.57729L38.0421 5.79555L38.7842 6.10114Z" fill="#C2EB94"/>
<path d="M43.6731 1.69262C43.9787 1.82358 44.2406 1.86727 44.5462 1.95457L44.1096 1.69262L43.2803 1.2998C43.3239 1.47441 43.4549 1.56167 43.6731 1.69262Z" fill="#CFEEA8"/>
<path d="M44.9387 8.93887C45.0261 8.67696 44.8078 8.32774 44.4149 8.32774C44.284 8.32774 44.153 8.32773 44.2403 8.15312C44.3713 7.71661 44.5459 7.23646 44.7641 6.79994C44.8951 6.53804 45.2443 6.669 45.3753 6.97456C45.4626 7.14916 45.3753 7.32375 45.3316 7.49835C45.288 7.67296 45.157 7.84756 45.3316 7.93487C45.5062 8.06582 45.5499 7.84756 45.6372 7.71661C46.0737 7.10549 46.5102 7.10547 46.903 7.80389C47.2959 8.58961 47.3832 8.7206 47.9943 8.54599C47.9943 7.41106 47.6451 5.88325 46.8594 4.48641L46.7721 4.61738C46.5975 4.92294 46.3792 4.96659 46.03 4.83564C45.5062 4.61738 44.9387 4.53006 44.4149 4.26815C44.153 4.09354 43.9348 4.22449 43.8475 4.53005L43.7165 4.792C43.1054 5.83963 43.28 5.75229 42.3633 5.35943C41.9268 5.18483 41.6649 5.35943 41.2721 5.57769C40.7046 5.9269 40.1808 6.4507 39.4387 6.2761C39.2205 6.23245 38.9586 6.18884 38.784 6.10153C38.5512 6.10153 38.3475 6.0724 38.1729 6.0142C38.7403 6.84357 39.3514 7.67298 40.0062 8.2841C41.403 9.54998 43.1491 9.98645 44.6768 9.98645C44.8078 9.63724 44.8514 9.24442 44.9387 8.93887Z" fill="#BFE88D"/>
<path d="M47.9942 8.54614C47.383 8.72075 47.2957 8.58976 46.9029 7.80404C46.51 7.10562 46.0735 7.10564 45.637 7.71676C45.5497 7.84771 45.5061 8.06597 45.3315 7.93501C45.1569 7.84771 45.2878 7.67311 45.3315 7.4985C45.3751 7.3239 45.4624 7.14931 45.3751 6.97471C45.2441 6.66915 44.8949 6.53818 44.764 6.80009C44.5457 7.2366 44.3711 7.71676 44.2402 8.15327C44.1529 8.32788 44.2838 8.32789 44.4148 8.32789C44.8076 8.32789 45.0259 8.67711 44.9386 8.93901C44.8513 9.24457 44.8076 9.63739 44.6767 9.9866L45.4188 9.94296C45.637 9.6374 45.9426 9.33186 46.1608 8.98265C46.2918 8.80805 46.51 8.76437 46.7283 8.89532C46.9902 9.06993 47.2957 9.15723 47.6013 9.33183L47.9505 9.11358L47.9942 8.54614Z" fill="#C2EB94"/>
<path d="M38.1295 5.70899L38.6969 5.92724C38.9588 6.0582 39.1771 6.01454 39.2644 5.70899L39.3081 5.62165C39.6136 4.96688 39.9192 4.4431 40.7049 4.83596C41.4906 5.18517 41.9271 4.44309 42.32 4.00658C42.6255 3.70102 42.8874 3.57009 43.2366 3.70104C43.6732 3.83199 43.9787 3.78832 44.2406 3.35181C44.4152 3.0899 44.8081 2.95897 44.9827 2.60976C45.07 2.4788 45.2009 2.47877 45.3319 2.52242C45.0991 2.31872 44.8372 2.12959 44.5462 1.95499C44.2406 1.86769 43.9787 1.82399 43.6732 1.69304C43.4549 1.56208 43.3239 1.47482 43.2803 1.30022L42.4073 0.994629C42.1017 1.43114 41.8835 1.95496 41.2287 1.86765C41.0541 1.824 40.9668 1.95496 40.8795 2.08591C40.6612 2.60973 40.312 2.6534 39.8755 2.43514C38.8279 1.95498 38.9152 2.04227 38.5223 3.13355C38.2604 3.74467 37.8676 4.26846 37.7803 4.96688C37.7803 5.14149 37.7803 5.28699 37.7803 5.4034L37.9112 5.57801C37.9694 5.60711 38.0422 5.65078 38.1295 5.70899Z" fill="#C6ED9C"/>
<path d="M36.6448 1.73604C36.5575 1.60509 36.6448 1.43049 36.7321 1.29953C36.9358 1.00852 37.1249 0.702922 37.2996 0.382812C36.6448 0.382812 36.0773 0.426506 35.6408 0.426506L35.5972 0.513788C35.8591 1.16856 36.1646 2.04156 36.6011 3.00189C36.7321 2.60903 36.8194 2.21621 36.6448 1.73604Z" fill="#C6ED9C"/>
<path d="M37.5617 2.30348C37.7363 2.39078 37.6926 2.60907 37.649 2.82733C37.5617 3.00193 37.5617 3.26382 37.7799 3.35112C38.0418 3.43842 38.1728 3.22019 38.2601 3.04558C38.391 2.78367 38.4783 2.52176 38.5656 2.2162C38.6966 1.86699 38.9148 1.77965 39.2641 1.91061L39.3077 1.9543C39.7006 2.0416 40.0934 2.47812 40.4426 2.17256C40.9228 1.7797 41.403 1.43044 41.6212 0.819325C40.2244 0.513766 38.7839 0.426464 37.5617 0.382812C37.4744 0.601069 37.4307 0.775706 37.3434 0.906659C36.776 1.51778 36.645 1.99792 37.5617 2.30348Z" fill="#C1EA94"/>
<path d="M35.5972 0.426758V0.514039L35.6408 0.426758H35.5972Z" fill="#CBED9F"/>
<path d="M38.7841 6.101L38.042 5.79541L38.1729 6.01367C38.3476 6.07187 38.5513 6.101 38.7841 6.101Z" fill="#C1EA94"/>
<path d="M48.3001 8.85107H48.1255C48.0091 9.11298 47.9072 9.38945 47.8199 9.68046C47.7617 9.97147 47.7035 10.2625 47.6453 10.5535C47.558 11.121 47.5143 11.6884 47.4707 12.2123C47.4125 12.7943 47.3543 13.3617 47.2961 13.9146C47.267 14.4966 47.2524 15.0641 47.2524 15.617H49.1731C49.1731 15.0641 49.144 14.4966 49.0858 13.9146C49.0567 13.3617 49.013 12.7943 48.9548 12.2123C48.8675 11.6884 48.8675 11.121 48.7366 10.5535C48.7075 10.2625 48.6493 9.97147 48.562 9.68046C48.5038 9.38945 48.4165 9.11298 48.3001 8.85107Z" fill="#C9B599"/>
<path fill-rule="evenodd" clip-rule="evenodd" d="M85.709 9.55058C84.1375 10.1617 82.4788 10.0744 81.2129 9.68155C81.1693 9.59425 81.2129 9.46332 81.3002 9.37602V9.28868C80.951 9.02677 81.1693 8.7212 81.2566 8.4593C81.4312 8.06644 81.3002 7.71726 81.1256 7.45535C80.9947 7.23709 80.7764 7.62994 80.6018 7.71725L80.4708 7.76089C80.1216 8.02279 79.7724 8.24105 79.9034 8.85217L79.947 9.15776L79.8597 9.11407C79.7288 8.15374 79.9034 6.71327 80.5145 5.31643L80.6455 5.4474C80.6891 5.53471 80.7328 5.66562 80.8637 5.62197C81.1693 5.53466 81.4748 5.79658 81.824 5.57832C81.8677 5.57832 81.955 5.57832 81.9986 5.57832C82.5661 5.75293 82.8716 5.66564 83.1336 5.09817C83.1772 5.01087 83.2645 4.92357 83.3955 4.87992C83.5264 4.79261 83.701 4.70532 83.832 4.61802C84.0939 4.39976 84.3121 4.13782 84.6613 4.53068C84.6613 4.57434 84.7923 4.53068 84.8359 4.53068C85.0978 4.44338 85.2288 4.61802 85.2288 4.83627C85.2579 5.01088 85.3016 5.17092 85.3598 5.31643C85.4471 5.44738 85.5344 5.57834 85.5344 5.75294C85.4907 6.0585 85.9272 6.80056 86.1455 6.88786C86.2328 6.88786 86.2764 6.88787 86.3637 6.84422L86.6693 6.71325C86.9312 6.62594 87.0621 6.71329 87.1931 6.9752C87.324 7.19345 87.1931 7.2371 87.0621 7.41171C86.8439 7.67362 86.3637 7.80455 86.4947 8.37201C86.4947 8.41567 86.451 8.50298 86.3637 8.54663C86.0582 8.80854 85.709 9.02676 85.709 9.55058ZM85.9272 8.32837C86.0145 8.28472 86.0582 8.24105 86.0582 8.1974C86.0582 7.93549 86.1018 7.6736 85.9709 7.49899C85.8399 7.32439 85.6217 7.28071 85.4034 7.36802L85.0105 7.45535C84.7486 7.54265 84.5304 7.71723 84.3558 7.36802C84.2685 7.28071 84.1375 7.36803 84.0939 7.32437C83.7447 7.32437 83.4391 7.5863 83.1336 7.45535C82.7407 7.3244 82.5661 7.41167 82.3915 7.80453C82.1732 8.28469 82.2169 8.54663 82.697 8.76489L83.3082 9.07042C83.832 9.33233 84.3994 9.72518 85.0542 9.33232C85.3161 9.30322 85.4907 9.12864 85.578 8.80853C85.6217 8.59027 85.7526 8.41568 85.9272 8.32837Z" fill="#9BDB9C"/>
<path d="M91.165 1.12517C91.1213 1.21247 91.0777 1.29974 91.034 1.25609C90.7721 1.16879 90.5102 1.12516 90.3356 0.950552C90.0737 0.732295 89.8118 0.601363 89.5499 0.426758L88.3713 0.470398L88.2404 0.819577C88.1967 0.95053 88.0221 1.08153 88.1094 1.29978C88.1094 1.43074 88.0658 1.51803 87.9348 1.56168C87.8039 1.60533 87.7602 1.51801 87.7166 1.4307L87.542 1.03783C87.4547 0.775925 87.3237 0.688665 87.0618 0.645014H87.0182L86.1015 0.819577L86.1451 0.950552C86.1888 1.08151 86.1451 1.21247 86.0578 1.34342C85.9705 1.47438 85.9705 1.60532 86.1451 1.60532C86.3634 1.64897 86.4507 1.77995 86.538 1.95455C86.6253 2.18736 86.7708 2.26011 86.9745 2.17281C87.1928 2.08551 87.3674 2.04182 87.4983 2.30373C87.5856 2.56564 87.8039 2.82757 87.4983 3.08947C87.2364 3.30773 87.3237 3.52599 87.411 3.74424C87.542 4.00615 87.542 4.35533 87.9348 4.31168C88.0221 4.31168 88.1094 4.31172 88.1531 4.35537C88.3277 4.92284 88.8951 4.74821 89.2007 5.09742C89.3753 5.31568 89.5063 5.53392 89.419 5.79583L89.2444 6.53793L89.6809 5.92681C89.8555 5.5776 89.8118 5.35931 89.5936 4.96645C89.419 4.70454 89.3753 4.3117 88.9388 4.44265C88.8951 4.44265 88.8078 4.39902 88.8078 4.35537C88.6769 4.04981 88.4586 3.96248 88.1967 4.04978C88.0658 4.09343 87.9785 4.00612 87.9348 3.87516C87.8912 3.78786 87.8912 3.65692 88.0221 3.61327C88.2404 3.48231 88.284 3.30774 88.3277 3.04583C88.3713 2.78393 88.6332 2.65294 88.8078 2.52199C88.9824 2.43468 89.1134 2.30373 89.0697 2.08547C89.0261 1.82357 89.2007 1.7363 89.3753 1.7363C89.9428 1.77995 90.5102 1.47436 91.0777 1.64896L91.7325 1.77994C91.8489 1.43073 91.9653 1.11058 92.0817 0.819577C91.7325 0.644971 91.3833 0.775957 91.165 1.12517Z" fill="#6FCA71"/>
<path d="M80.9075 4.7482L81.0821 4.57364C81.475 4.35538 81.6932 3.87518 81.6496 3.39502C81.2713 3.86063 80.9657 4.35536 80.7329 4.87917L80.9075 4.7482Z" fill="#7FD07F"/>
<path d="M80.8639 5.62028C81.1694 5.53297 81.475 5.79489 81.8242 5.57664C81.8678 5.57664 81.9551 5.57664 81.9988 5.57664C82.5662 5.75124 82.8718 5.66395 83.1337 5.09648C83.1774 5.00918 83.2647 4.92188 83.3956 4.87823C83.3956 4.39806 84.0504 3.87424 84.4869 4.04884C84.6615 4.09249 84.8361 4.22346 85.0107 4.22346L84.8797 3.87423C84.6178 3.87423 84.3996 3.78696 84.225 3.52505C84.1813 3.43775 84.0504 3.43773 83.9631 3.35043L83.8758 3.39407C83.6575 3.52503 83.5266 3.43772 83.4393 3.17582C83.221 2.78296 83.2647 2.34647 83.221 1.95361C82.6099 2.34647 82.0861 2.82661 81.6496 3.39407C81.6932 3.87424 81.475 4.35443 81.0821 4.57269L80.9075 4.74725L80.7329 4.87823L80.5146 5.31474L80.6456 5.44571C80.6893 5.53302 80.7329 5.66393 80.8639 5.62028Z" fill="#8AD58B"/>
<path d="M81.2995 9.37497V9.28764C80.9503 9.02573 81.1685 8.72016 81.2558 8.45826C81.4304 8.06539 81.2995 7.71622 81.1249 7.45431C80.9939 7.23605 80.7757 7.6289 80.6011 7.71621L80.4701 7.75985C80.1209 8.02175 79.7717 8.28366 79.9027 8.85113L79.9463 9.15672C80.2955 9.37497 80.6884 9.54956 81.2122 9.68051C81.1685 9.59321 81.2122 9.46228 81.2995 9.37497Z" fill="#92D694"/>
<path d="M87.1927 8.41413C87.5855 8.15222 87.6728 7.71574 87.4982 7.19192L86.9744 5.79505C86.9307 5.6641 86.8871 5.53315 86.8871 5.35854C86.8871 4.96568 86.6252 4.66012 86.2323 4.70377C85.7522 4.74742 85.4903 4.4419 85.1411 4.13634L85.0101 4.22362C84.8355 4.22362 84.6609 4.09265 84.4863 4.049C84.0498 3.8744 83.395 4.39822 83.395 4.87839C83.526 4.79108 83.7006 4.70379 83.8315 4.61649C84.0934 4.39823 84.3117 4.13629 84.6609 4.52916C84.6609 4.57281 84.7919 4.52916 84.8355 4.52916C85.0974 4.44185 85.2284 4.61649 85.2284 4.83475C85.2575 5.00935 85.3011 5.1694 85.3593 5.3149C85.4466 5.44585 85.5339 5.57681 85.5339 5.75141C85.4903 6.05697 85.9268 6.79903 86.145 6.88633C86.2323 6.88633 86.276 6.88634 86.3633 6.84269L86.6688 6.71172C86.9307 6.62442 87.0617 6.71176 87.1927 6.97367C87.3236 7.19192 87.1926 7.23558 87.0617 7.41018C86.8434 7.67209 86.3633 7.80302 86.4942 8.37049C86.4942 8.41414 86.4506 8.50145 86.3633 8.5451C86.0577 8.80701 85.7085 9.02523 85.7085 9.54905C86.0868 9.40355 86.4506 9.22896 86.7998 9.02526C86.7125 8.807 86.8434 8.67604 87.1927 8.41413Z" fill="#96D898"/>
<path d="M86.0577 8.19627C86.0577 7.93436 86.1013 7.67247 85.9704 7.49786C85.8394 7.32326 85.6212 7.27959 85.4029 7.36689L85.01 7.45422C84.7481 7.54152 84.5299 7.7161 84.3553 7.36689C84.268 7.27959 84.137 7.3669 84.0934 7.32325C83.7442 7.32325 83.4386 7.58518 83.1331 7.45422C82.7402 7.32327 82.5656 7.41054 82.391 7.8034C82.1727 8.28356 82.2164 8.5455 82.6965 8.76376L83.3077 9.0693C83.8315 9.33121 84.3989 9.7241 85.0537 9.37489C85.3156 9.31669 85.4902 9.12751 85.5775 8.8074C85.6212 8.58914 85.7521 8.41455 85.9267 8.32725C86.014 8.2836 86.0577 8.23992 86.0577 8.19627Z" fill="#B2E4B4"/>
<path d="M89.5493 0.426781C89.8112 0.601386 90.0731 0.732319 90.335 0.950575C90.5096 1.12518 90.7715 1.16881 91.0335 1.25611C91.0771 1.29976 91.1208 1.21249 91.1644 1.12519C91.3827 0.775981 91.7319 0.644995 92.0811 0.8196L92.212 0.426781C91.5136 0.38313 90.5533 0.38313 89.5493 0.426781Z" fill="#7BCF7D"/>
<path d="M89.3753 1.73546C89.2007 1.73546 89.0261 1.82273 89.0697 2.08464C89.1134 2.3029 88.9824 2.43385 88.8078 2.52115C88.6332 2.65211 88.3713 2.78309 88.3277 3.045C88.284 3.30691 88.2404 3.48148 88.0221 3.61243C87.8911 3.65609 87.8911 3.78703 87.9348 3.87433C87.9784 4.00528 88.0658 4.0926 88.1967 4.04895C88.4586 3.96164 88.6769 4.04898 88.8078 4.35454C88.8078 4.39819 88.8951 4.44182 88.9388 4.44182C89.3753 4.31086 89.4189 4.7037 89.5935 4.96561C89.8118 5.35847 89.8554 5.57676 89.6808 5.92597C89.9718 5.46036 90.2337 4.99471 90.4666 4.5291C90.0737 4.5291 89.8554 4.31084 89.7245 3.87433C89.6372 3.56877 89.5062 3.30686 89.4189 3.00131C89.3316 2.78305 89.3316 2.65211 89.5062 2.52115C89.5935 2.46295 89.6663 2.3902 89.7245 2.3029C89.8991 2.08464 90.1173 1.9537 90.3356 2.041C90.6848 2.17195 91.0777 2.25926 91.4269 2.47751L91.7324 1.7791L91.0777 1.64813C90.5102 1.47352 89.9427 1.77911 89.3753 1.73546Z" fill="#65C768"/>
<path d="M89.2006 5.09718C88.895 4.74797 88.3275 4.9226 88.1529 4.35513C88.1093 4.31148 88.022 4.31144 87.9347 4.31144C87.5418 4.35509 87.5418 4.00591 87.4109 3.744C87.3236 3.52575 87.2363 3.30749 87.4982 3.08923C87.8037 2.82733 87.5855 2.5654 87.4982 2.30349C87.3672 2.04158 87.1926 2.08526 86.9744 2.17257C86.7707 2.25987 86.6252 2.18712 86.5379 1.95431C86.4506 1.77971 86.3633 1.64873 86.145 1.60508C85.9704 1.60508 85.9704 1.47414 86.0577 1.34318C86.145 1.21223 86.1887 1.08126 86.145 0.950311L86.1013 0.819336L85.0537 1.12493L85.0974 1.60508C85.141 1.86699 85.1847 2.17257 84.9664 2.39082C84.8791 2.43447 84.9228 2.56543 84.9664 2.60908L85.3156 3.52575C85.4029 3.744 85.5339 3.83132 85.7521 3.91862C86.1013 4.00592 86.4506 4.26782 86.8434 4.18051C87.4109 4.09321 87.5418 4.44241 87.7164 4.87892C87.8474 5.31544 88.2402 5.49004 88.6331 5.31544C88.9387 5.18448 89.0696 5.31543 89.2006 5.57733C89.3315 5.88289 89.2442 6.01387 88.9823 6.14482C88.7641 6.27577 88.6768 6.494 88.7204 6.71226C88.7495 6.88686 88.7495 7.07604 88.7204 7.27974L89.2442 6.53769L89.4188 5.79559C89.5061 5.53368 89.3752 5.31544 89.2006 5.09718Z" fill="#70CA73"/>
<path d="M88.7208 6.71282C88.6771 6.49456 88.7644 6.27634 88.9827 6.14538C89.2446 6.01443 89.3319 5.88345 89.2009 5.57789C89.07 5.31599 88.939 5.18504 88.6335 5.316C88.2406 5.4906 87.8478 5.316 87.7168 4.87949C87.5422 4.44297 87.4113 4.09377 86.8438 4.18108C86.4509 4.26838 86.1017 4.00648 85.7525 3.91918C85.5343 3.83188 85.4033 3.74456 85.316 3.52631L84.9668 2.60964C84.9231 2.56599 84.8795 2.43504 84.9668 2.39139C85.1851 2.12948 85.1414 1.86755 85.0978 1.60564L85.0541 1.12549C84.5885 1.27099 84.152 1.44558 83.7446 1.64928C83.7009 1.91119 83.57 2.17313 83.3954 2.39139C83.1335 2.60964 83.5263 3.35168 83.8755 3.39533L83.9628 3.35169C84.2247 3.22074 84.443 3.22075 84.5739 3.52631C84.6176 3.70091 84.8358 3.70088 84.8795 3.87549L85.0105 4.22472L85.1414 4.13744C85.6216 3.91918 85.9708 4.31202 86.3636 4.44297C86.4509 4.48662 86.5382 4.57394 86.6255 4.61759C87.5422 4.79219 87.9351 5.49062 88.2406 6.32C88.3716 6.75651 88.6335 7.10568 88.4589 7.58584L88.7208 7.2803C88.7499 7.0766 88.7499 6.88742 88.7208 6.71282Z" fill="#83D483"/>
<path d="M87.5419 1.03765L87.7165 1.43052C87.7601 1.51782 87.8038 1.60515 87.9347 1.5615C88.0657 1.51784 88.1093 1.43055 88.1093 1.2996C88.022 1.08134 88.1966 0.950347 88.2403 0.819393L88.3712 0.470215C87.9056 0.528417 87.4546 0.586629 87.0181 0.644831H87.0617C87.3236 0.688482 87.4546 0.775742 87.5419 1.03765Z" fill="#64C566"/>
<path d="M83.439 3.17672C83.5263 3.43863 83.6572 3.52593 83.8755 3.39498C83.5263 3.35132 83.1334 2.60929 83.3953 2.39103C83.5699 2.17277 83.7009 1.91083 83.7445 1.64893L83.7009 1.69257L83.2207 1.95452C83.2644 2.34738 83.2207 2.78386 83.439 3.17672Z" fill="#86D387"/>
<path d="M84.2248 3.52531C84.3994 3.78722 84.6177 3.87449 84.8796 3.87449C84.8359 3.69989 84.6177 3.69992 84.574 3.52531C84.443 3.21975 84.2248 3.21974 83.9629 3.3507C84.0502 3.438 84.1811 3.43801 84.2248 3.52531Z" fill="#86D387"/>
<path d="M88.2403 6.31957C87.9348 5.49019 87.5419 4.79176 86.6252 4.61716C86.5379 4.57351 86.4506 4.48619 86.3633 4.44254C85.9705 4.31159 85.6213 3.91875 85.1411 4.137C85.4903 4.44256 85.7522 4.74809 86.2324 4.70444C86.6252 4.66079 86.8872 4.96635 86.8872 5.35921C86.8872 5.53381 86.9308 5.66477 86.9745 5.79572L87.4983 7.19259C87.6729 7.71641 87.5856 8.15289 87.1927 8.41479C86.8435 8.6767 86.7125 8.80767 86.7999 9.02592C87.1491 8.82222 87.4837 8.57488 87.8038 8.28387C88.0075 8.08017 88.2258 7.84732 88.4586 7.58541C88.6332 7.10525 88.3713 6.75608 88.2403 6.31957Z" fill="#86D387"/>
<path d="M89.7247 2.3034C89.6665 2.39071 89.5938 2.46346 89.5065 2.52166C89.3319 2.65261 89.3319 2.78356 89.4192 3.00181C89.5065 3.30737 89.6374 3.56928 89.7247 3.87484C89.8557 4.31135 90.0739 4.52961 90.4668 4.52961C90.8596 3.83119 91.1652 3.13279 91.4271 2.47802C91.0779 2.25976 90.685 2.17246 90.3358 2.04151C90.1176 1.9542 89.8993 2.08515 89.7247 2.3034Z" fill="#59C35B"/>
<path d="M71.9151 7.41132C72.177 6.8002 72.4826 6.71286 72.9627 7.10572L73.05 7.19306C73.2246 7.32401 73.3119 7.32398 73.3992 7.10572L73.5302 6.80019C73.3992 6.71288 73.4429 6.5819 73.4865 6.4946L73.5738 6.18906C73.4429 6.14541 73.3992 5.97078 73.3556 5.83983C73.2974 5.49062 73.0937 5.27236 72.7445 5.18506C72.6135 5.22871 72.5262 5.31604 72.4826 5.49065C72.308 6.23272 71.8715 6.88747 71.4786 7.54224C71.3913 7.71684 71.2603 7.89145 71.1294 7.97875L71.3913 8.28434L71.6096 8.4589L71.6532 8.41526C71.7405 8.06605 71.7842 7.71687 71.9151 7.41132Z" fill="#6FCA71"/>
<path d="M70.6928 4.13747C70.911 4.05017 71.042 3.96283 71.2166 4.05014C71.784 4.31204 72.2205 4.83586 72.8753 4.92316C72.9626 4.7049 72.8753 4.61759 72.6571 4.53029C72.4824 4.44299 72.2205 4.44303 72.1769 4.13747C71.784 4.00652 71.4348 3.65728 70.9547 3.78824C70.8674 3.78824 70.7364 3.70093 70.6928 3.61362C70.6491 3.35172 70.4745 3.17712 70.4309 2.91521L70.2999 2.87157C70.1253 2.91522 70.1253 2.78426 70.038 2.69696C69.8197 2.3914 69.6888 2.0422 69.4705 1.78029C69.3396 1.64934 69.2523 1.56203 69.3396 1.38742C69.5142 1.21282 69.4705 0.776281 69.8634 0.819933C70.169 0.907235 70.2562 0.776303 70.3435 0.514395L70.3872 0.470755C69.2086 0.383452 68.161 0.383463 67.288 0.427114L67.2007 0.907267C67.2007 1.12552 67.4189 1.1255 67.5062 1.2128L67.5935 1.34378C67.6372 1.69299 67.8118 2.0422 67.7245 2.43506L67.8991 2.78424C68.0737 3.04615 68.2483 3.26441 68.2483 3.61362L68.5975 4.26839C68.7721 4.26839 68.9467 4.35569 69.0777 4.48665C69.2523 4.66125 69.165 4.92316 69.0777 5.14142L69.5142 5.88352C69.8197 5.2724 69.907 4.48668 70.6928 4.13747Z" fill="#6FCA71"/>
<path d="M78.0698 4.13623L77.9825 4.17987C77.7206 4.26717 77.6333 4.44176 77.6333 4.70366C77.6333 5.00922 77.546 5.27116 77.1968 5.22751C77.415 5.79498 77.8952 6.01323 78.419 6.10054C78.6809 6.14419 78.8992 6.31876 79.0738 6.44972C78.8555 5.66399 78.55 4.8783 78.0698 4.13623Z" fill="#74CC76"/>
<path d="M78.9428 8.41411C78.8118 8.76332 78.8118 9.1562 78.6372 9.46175C78.8991 9.37445 79.1319 9.25803 79.3356 9.11252C79.3793 8.76331 79.3793 8.32684 79.3356 7.84668L79.292 7.89032C79.1174 8.06493 79.0301 8.23951 78.9428 8.41411Z" fill="#74CC76"/>
<path d="M77.1968 5.22824C77.546 5.27189 77.6333 5.00995 77.6333 4.70439C77.6333 4.44248 77.7206 4.2679 77.9825 4.1806L78.0698 4.13696C77.4587 3.13298 76.5857 2.25991 75.4944 1.69245L75.1888 1.56152C75.2325 1.60517 75.1888 1.69249 75.0579 1.73614C74.6214 1.91074 74.4904 2.34721 74.7087 2.78373C74.796 2.91468 74.8396 3.04563 74.7523 3.22024C74.665 3.39484 74.796 3.48218 74.9269 3.52583L75.8872 3.96234C76.0182 4.00599 76.1491 4.0933 76.1055 4.1806C75.9745 4.57346 76.0182 4.83537 76.3238 5.05362C76.3674 5.05362 76.3674 5.14089 76.3674 5.18455C76.411 5.4028 76.542 5.53377 76.7166 5.57742C77.5896 5.83932 78.2007 6.62505 79.0301 6.88695C79.1174 6.93061 79.2047 7.0179 79.2047 7.14885C79.1611 7.23615 79.1174 7.32347 78.9865 7.32347C78.6372 7.27982 78.5936 7.54171 78.5499 7.80362C78.5499 8.06553 78.3753 8.24013 78.1571 8.24013C77.8079 8.19648 77.6769 8.41475 77.546 8.63301C77.3714 8.98221 77.1968 8.93856 76.9349 8.85126C76.4984 8.67666 76.2801 8.80763 76.1055 9.20049C76.3238 9.24414 76.542 9.0259 76.8039 9.15685C77.1095 9.28781 77.3277 9.54968 77.6333 9.72429L77.6769 9.76793C78.0261 9.70973 78.3462 9.60789 78.6372 9.46239C78.8118 9.15683 78.8119 8.76396 78.9428 8.41475C79.0301 8.24014 79.1174 8.06556 79.292 7.89095L79.3357 7.84731C79.3066 7.4108 79.2193 6.94516 79.0738 6.45044C78.8992 6.31949 78.6809 6.14492 78.419 6.10126C77.8952 6.01396 77.415 5.79571 77.1968 5.22824Z" fill="#7FD07F"/>
<path d="M76.1055 9.19943C76.2801 8.80657 76.4983 8.6756 76.9349 8.8502C77.1968 8.9375 77.3714 8.98116 77.546 8.63195C77.6769 8.41369 77.8079 8.19542 78.1571 8.23907C78.3753 8.23907 78.5499 8.06447 78.5499 7.80256C78.5936 7.54065 78.6372 7.27876 78.9864 7.32241C79.1174 7.32241 79.161 7.23509 79.2047 7.14779C79.2047 7.01684 79.1174 6.92955 79.0301 6.8859C78.2007 6.62399 77.5896 5.83826 76.7166 5.57636C76.542 5.53271 76.411 5.40174 76.3674 5.18349C76.3674 5.13983 76.3674 5.05256 76.3237 5.05256C76.0182 4.83431 75.9745 4.5724 76.1055 4.17954C76.1491 4.09224 76.0182 4.00493 75.8872 3.96128L74.9269 3.52477C74.796 3.48112 74.665 3.39378 74.7523 3.21918C74.8396 3.04457 74.796 2.91362 74.7087 2.78267C74.4904 2.34615 74.6214 1.90968 75.0579 1.73508C75.1888 1.69143 75.2325 1.60411 75.1888 1.56046L74.4904 1.25487C74.4031 1.34218 74.2721 1.29855 73.9666 1.16759C73.8356 1.12394 73.7047 1.08029 73.5737 1.16759C74.1412 1.5168 74.0102 2.0406 73.9666 2.56441L73.9229 2.78267C73.8793 3.04457 73.9666 3.13188 74.1848 3.21918C74.3594 3.30648 74.5341 3.43745 74.665 3.61205C74.9269 3.87396 75.0579 4.17952 75.2761 4.48508C75.538 4.83429 75.7999 5.18353 76.1928 5.44544C76.4547 5.62004 76.6729 5.9256 76.9785 6.1002C77.2404 6.24571 77.3423 6.46396 77.2841 6.75497C77.2404 7.06053 77.3277 7.14779 77.5896 7.14779C77.8952 7.14779 77.9825 7.32244 77.8952 7.628C77.8079 7.88991 77.6769 8.02084 77.4587 8.15179C77.1968 8.28275 76.9348 8.23909 76.6729 8.37005C76.3674 8.54465 75.8872 8.50102 75.669 8.93754C75.6253 9.06849 75.4071 9.02483 75.2325 8.98118C74.8833 8.89387 74.5777 8.69016 74.3158 8.37005C74.5777 7.88988 74.0102 7.75891 73.9666 7.36605V7.23513L73.9229 6.97323L73.792 7.32241C73.8356 7.62797 73.5737 7.84623 73.6174 8.15179L74.0102 8.32641C74.1848 8.58832 74.2285 8.98118 74.4904 9.19943C74.534 9.24308 74.5777 9.3304 74.5777 9.37405L74.534 9.8542C74.9706 9.9415 75.3925 9.98512 75.7999 9.98512L75.8872 9.76687L76.1055 9.19943Z" fill="#8AD58B"/>
<path d="M67.5933 1.34342L67.506 1.21245C67.4187 1.12515 67.2005 1.12517 67.2005 0.906911L67.2878 0.426758H67.1132L67.0259 0.60132L67.2878 1.21245L67.3314 1.25609C67.3751 1.29974 67.506 1.38709 67.4624 1.51804L67.4187 1.60532L67.7243 2.4347C67.8116 2.04184 67.637 1.69263 67.5933 1.34342Z" fill="#89D28A"/>
<path d="M73.0493 0.95019L73.5731 1.16845C73.7041 1.08114 73.835 1.12479 73.966 1.16845C74.2715 1.2994 74.4025 1.34303 74.4898 1.25573C73.8787 1.03747 73.2676 0.862887 72.6128 0.731934C72.7583 0.819236 72.9038 0.891988 73.0493 0.95019Z" fill="#7FD07F"/>
<path d="M67.8994 2.78369L68.2486 3.61308C68.2486 3.26387 68.074 3.0456 67.8994 2.78369Z" fill="#7BCF7D"/>
<path d="M69.0778 4.48583C68.9469 4.35488 68.7723 4.26758 68.5977 4.26758L69.0778 5.1406C69.1651 4.92235 69.2524 4.66044 69.0778 4.48583Z" fill="#7BCF7D"/>
<path d="M73.2245 7.84745C73.2681 7.84745 73.3118 7.76012 73.3118 7.71647C73.4427 7.45456 73.6173 7.19264 73.7046 6.88709L73.53 6.7998L73.3991 7.10534C73.3118 7.3236 73.2245 7.32363 73.0499 7.19268L72.9626 7.10534C72.4824 6.71248 72.1768 6.79982 71.9149 7.41093C71.784 7.71649 71.7403 8.06567 71.653 8.41488L71.6094 8.45852C71.9586 8.74953 72.3078 8.99692 72.657 9.20062L72.7006 9.06965C72.788 8.58948 72.657 8.0657 73.2245 7.84745Z" fill="#70CA73"/>
<path d="M74.0104 8.32723L73.6175 8.15262C73.4866 8.02166 73.4866 7.8907 73.5739 7.75974L73.7922 7.32323L73.9231 6.97405L73.7049 6.88672C73.6176 7.19228 73.4429 7.4542 73.312 7.7161C73.312 7.75975 73.2683 7.84708 73.2247 7.84708C72.6572 8.06533 72.7882 8.58912 72.7009 9.06928L72.6572 9.20026C73.2392 9.49126 73.8213 9.69498 74.4033 9.81138C74.0104 9.37487 74.0104 8.85105 74.0104 8.32723Z" fill="#83D483"/>
<path d="M71.4785 7.54144C71.8713 6.88667 72.3078 6.23192 72.4824 5.48985C72.5261 5.31525 72.6134 5.22791 72.7443 5.18426L72.8753 4.92236C72.2205 4.83506 71.784 4.31125 71.2165 4.04934C71.0419 3.96204 70.911 4.04937 70.6927 4.13667C69.907 4.48588 69.8197 5.27161 69.5142 5.88272C69.9943 6.66845 70.5181 7.36683 71.1292 7.97795C71.2602 7.89065 71.3912 7.71604 71.4785 7.54144Z" fill="#64C566"/>
<path d="M71.1723 0.601142C70.9977 0.513839 70.8668 0.601152 70.7795 0.775757L70.6049 1.21227C70.5176 1.43053 70.5176 1.60515 70.7358 1.77976C70.9977 1.95436 70.9541 2.17261 70.6922 2.25991C70.3866 2.34721 70.2993 2.56548 70.2993 2.87104L70.4303 2.91468C70.7358 3.00198 70.9541 3.13295 70.9541 3.52581C70.9541 3.65676 71.0414 3.65673 71.1287 3.65673C71.5652 3.61308 71.8708 3.87503 72.1763 4.13694C72.22 4.44249 72.4819 4.44245 72.6565 4.52975C72.8747 4.61706 72.962 4.70437 72.8747 4.92263L72.7438 5.18452C73.093 5.27183 73.2967 5.49008 73.3549 5.83929C73.3985 5.97025 73.4422 6.14487 73.5731 6.18852L73.7041 5.92663C73.835 5.66472 73.4858 5.44643 73.6604 5.18452C73.7914 4.96627 73.7041 4.79167 73.4858 4.70437C73.093 4.52976 72.7001 4.35515 72.3509 4.09324C72.089 3.87499 71.8271 3.61308 71.4779 3.43847C71.216 3.35117 71.1723 3.13295 71.2596 2.87104C71.3906 2.56548 71.4779 2.17259 71.6525 1.91068C71.9144 1.56147 72.0017 1.03768 72.5255 0.950373C72.7438 0.906722 72.8747 1.03768 73.0493 0.950373C72.9038 0.892171 72.7583 0.819419 72.6128 0.732117L71.7834 0.601142C71.6088 0.644793 71.3906 0.688444 71.1723 0.601142Z" fill="#82D184"/>
<path d="M69.8632 0.819393C69.4703 0.775742 69.5139 1.21228 69.3393 1.38688C69.252 1.56149 69.3393 1.6488 69.4703 1.77975C69.6885 2.04166 69.8195 2.39086 70.0378 2.69642C70.1251 2.78372 70.1251 2.91468 70.2997 2.87103C70.2997 2.56547 70.387 2.34721 70.6925 2.25991C70.9544 2.1726 70.9981 1.95436 70.7362 1.77975C70.5179 1.60515 70.5179 1.43052 70.6052 1.21226L70.7798 0.775752C70.8671 0.601147 70.9981 0.513834 71.1727 0.601137C71.3909 0.688439 71.6092 0.644788 71.7838 0.601137C71.3182 0.542935 70.8526 0.499316 70.387 0.470215L70.3433 0.513855C70.256 0.775763 70.1687 0.906695 69.8632 0.819393Z" fill="#7FD07F"/>
<path d="M71.1291 3.6566C71.0418 3.6566 70.9545 3.65663 70.9545 3.52568C70.9545 3.13282 70.7362 3.00185 70.4307 2.91455C70.4743 3.17646 70.6489 3.35105 70.6926 3.61296C70.7362 3.70026 70.8672 3.78758 70.9545 3.78758C71.4346 3.65662 71.7838 4.00585 72.1767 4.13681C71.8711 3.8749 71.5656 3.61295 71.1291 3.6566Z" fill="#7FD07F"/>
<path d="M73.9665 6.84294C73.8355 6.53738 73.9228 6.18818 73.7046 5.92627L73.5736 6.18817L73.4863 6.4937L73.9665 6.84294Z" fill="#8AD58B"/>
<path d="M73.9667 6.84337L73.4865 6.49414C73.4429 6.58144 73.3992 6.71243 73.5302 6.79973L73.7048 6.88701L73.923 6.97435L73.9667 6.84337Z" fill="#86D387"/>
<path d="M77.6336 9.72458C77.3281 9.54998 77.1098 9.2881 76.8043 9.15715C76.5424 9.02619 76.3241 9.24444 76.1059 9.20079L75.8876 9.76822L75.8003 9.98648C76.4551 9.98648 77.1098 9.89918 77.6773 9.76822L77.6336 9.72458Z" fill="#71CB75"/>
<path fill-rule="evenodd" clip-rule="evenodd" d="M73.5736 1.16836C74.1411 1.51757 74.0101 2.04136 73.9665 2.56518L73.9228 2.78343C73.8792 3.04534 73.9665 3.13264 74.1847 3.21994C74.3593 3.30725 74.5339 3.43821 74.6649 3.61282C74.9268 3.87472 75.0577 4.18028 75.276 4.48584C75.5379 4.83505 75.7998 5.18429 76.1927 5.4462C76.4546 5.62081 76.6728 5.92637 76.9784 6.10097C77.2403 6.24647 77.3421 6.46473 77.2839 6.75574C77.2403 7.0613 77.3276 7.14856 77.5895 7.14856C77.895 7.14856 77.9823 7.3232 77.895 7.62876C77.8077 7.89067 77.6768 8.0216 77.4585 8.15256C77.1966 8.28351 76.9347 8.23986 76.6728 8.37081C76.3673 8.54542 75.8871 8.50179 75.6688 8.9383C75.6252 9.06925 75.4069 9.02559 75.2323 8.98194C74.8831 8.89464 74.5776 8.69092 74.3157 8.37081C74.5776 7.89065 74.0101 7.75968 73.9665 7.36681V7.23589L73.9228 6.974L73.9665 6.84302C73.8355 6.53746 73.9228 6.18826 73.7046 5.92635C73.8355 5.66445 73.4863 5.44616 73.6609 5.18425C73.7919 4.96599 73.7046 4.7914 73.4863 4.7041C73.0934 4.52949 72.7006 4.35488 72.3514 4.09297C72.0895 3.87471 71.8276 3.61281 71.4784 3.4382C71.2164 3.3509 71.1728 3.13267 71.2601 2.87077C71.3911 2.56521 71.4784 2.17231 71.653 1.91041C71.9149 1.5612 72.0022 1.0374 72.526 0.950101C72.7442 0.90645 72.8752 1.0374 73.0498 0.950101L73.5736 1.16836ZM76.149 7.89066C76.4109 7.97796 76.4546 7.62875 76.5419 7.45415C76.5419 7.36685 76.5855 7.3232 76.6292 7.19225C76.7601 6.974 76.8474 6.71208 76.4109 6.58112L76.3236 6.49379C76.149 6.18823 75.9308 5.88269 75.5379 5.97C75.145 6.0573 74.7958 6.36287 74.5776 6.79938C74.272 7.36685 74.272 7.36686 74.8395 7.62876C75.276 7.84702 75.7125 7.71606 76.149 7.89066Z" fill="#9BDB9C"/>
<path d="M74.4904 9.20017C74.2285 8.98192 74.1849 8.58906 74.0103 8.32715C74.0103 8.85096 74.0103 9.37479 74.4031 9.8113L74.5341 9.85494L74.5777 9.37479C74.5777 9.33114 74.5341 9.24382 74.4904 9.20017Z" fill="#86D387"/>
<path d="M73.574 7.75975C73.4867 7.89071 73.4867 8.02167 73.6177 8.15263C73.574 7.84707 73.8359 7.6288 73.7923 7.32324L73.574 7.75975Z" fill="#86D387"/>
<path d="M66.9824 0.426758L67.0261 0.60132L67.1134 0.426758H66.9824Z" fill="#89D48A"/>
<path d="M67.3313 1.25604L67.2876 1.2124L67.4186 1.60527L67.4622 1.51799C67.5059 1.38704 67.3749 1.29969 67.3313 1.25604Z" fill="#89D48A"/>
<path d="M76.5417 7.45388C76.5417 7.36658 76.5854 7.32294 76.629 7.19199C76.76 6.97373 76.8473 6.71181 76.4108 6.58086L76.3235 6.49352C76.1489 6.18797 75.9306 5.88243 75.5378 5.96973C75.1449 6.05703 74.7957 6.40625 74.5774 6.79912C74.2719 7.36658 74.2719 7.36659 74.8393 7.6285C75.2759 7.84676 75.7124 7.71579 76.1489 7.8904C76.4108 7.9777 76.4544 7.62849 76.5417 7.45388Z" fill="#AEE2AD"/>
<path d="M79.6848 8.85107H79.5102C79.3938 9.11298 79.3065 9.38945 79.2483 9.68046C79.161 9.97147 79.0883 10.2625 79.0301 10.5535C78.9428 11.121 78.8991 11.6884 78.8555 12.2123C78.7973 12.7943 78.7536 13.3617 78.7245 13.9146C78.6663 14.4966 78.6372 15.0641 78.6372 15.617H80.5579C80.5579 15.0641 80.5288 14.4966 80.4706 13.9146C80.4415 13.3617 80.3978 12.7943 80.3396 12.2123C80.2959 11.6884 80.2523 11.121 80.165 10.5535C80.1068 10.2625 80.034 9.97147 79.9467 9.68046C79.8885 9.38945 79.8012 9.11298 79.6848 8.85107Z" fill="#C9B599"/>
<path d="M26.6928 3.83109C26.2563 3.56918 25.6016 3.70012 25.165 4.09298C24.7722 4.44219 24.9031 4.8351 25.0777 5.22796L25.2087 5.57714C25.4269 6.0573 25.2523 6.45017 25.0341 6.84303C24.9031 7.10494 24.8595 7.32319 24.9468 7.54144C25.0341 7.74515 25.0923 7.94887 25.1214 8.15257L25.5142 7.7597C25.4851 7.6724 25.4851 7.5851 25.5142 7.4978C25.5579 7.27955 25.7325 7.27952 25.8635 7.36683C26.6928 6.36285 27.3912 5.14065 27.9587 3.96206C27.8132 3.96206 27.6531 3.99114 27.4785 4.04934C27.2166 4.1803 26.9111 3.96204 26.6928 3.83109Z" fill="#52D4C4"/>
<path d="M25.2961 0.775936C25.5143 0.688633 25.7326 0.557701 25.9945 0.470398L26.1691 0.426758L25.0342 0.55768L25.2961 0.775936Z" fill="#78DDD0"/>
<path d="M17.875 5.49032C18.4424 4.92285 19.0099 4.87919 19.6647 5.09744C20.3194 5.27205 20.4067 5.88317 20.5813 6.40698C20.8433 7.1054 20.3631 7.84749 19.5337 8.28401C19.2718 8.41496 18.7917 8.37129 18.879 8.8078C18.9226 9.20066 19.1845 9.54988 19.621 9.63719C19.7956 9.72449 19.9266 9.81176 19.9702 9.98636C20.3776 10.0155 20.7996 10.0009 21.2361 9.94272C20.8869 9.81177 20.6686 9.54989 20.5813 9.15703L20.494 8.93878C20.1885 8.1094 20.1885 8.06575 20.9306 7.41098C20.8869 7.23638 20.9306 7.06174 21.0179 6.88713C21.3234 6.40697 21.3671 5.83952 21.1488 5.3157C20.9306 4.92284 21.0179 4.66091 21.4544 4.52996L21.6726 4.44268C22.5456 4.04981 22.8948 4.18077 23.375 5.09744C23.5496 5.35935 23.6806 5.57759 24.0298 5.62124C24.3353 5.62124 24.3353 5.92683 24.3353 6.14508C24.2917 6.5816 24.1607 6.97446 23.8552 7.23637L23.9861 7.67288L24.1171 7.93478C24.5099 7.45461 24.6409 6.84348 24.8155 6.23237C24.9028 5.97046 24.9901 5.7522 25.2083 5.5776L25.0774 5.22842C24.9028 4.83556 24.7718 4.44265 25.1647 4.09344C25.6012 3.70058 26.256 3.56964 26.6925 3.83155C26.9107 3.9625 27.2163 4.18076 27.4782 4.0498C27.6528 3.9916 27.8129 3.96252 27.9584 3.96252C28.6131 2.65298 29.0933 1.3871 29.3988 0.470422L29.3552 0.426781C28.5695 0.38313 27.5218 0.38313 26.3869 0.426781C26.6925 0.426781 26.9544 0.601365 27.1726 0.950575C27.4345 1.43074 27.3472 1.95458 27.0853 2.39109C26.8234 2.78395 26.3869 2.9149 25.9504 2.60934C25.6012 2.39109 25.0774 2.60933 24.8591 1.99822C24.5972 2.17282 24.3353 2.21647 24.0298 1.99822C23.4623 1.5617 22.8948 2.12916 22.3274 2.04186C22.2401 1.99821 22.0655 2.12916 22.0218 2.04186C21.498 1.34344 20.9306 1.73632 20.4067 1.95458C18.879 2.95855 17.9186 4.57365 17.4385 6.10144C17.5549 5.89774 17.7004 5.69402 17.875 5.49032Z" fill="#78DDD0"/>
<path d="M17.0462 9.11252L17.3518 9.28714C17.5264 9.15619 17.701 9.02525 17.8756 8.9816C18.0939 8.8943 18.3558 8.71967 18.2685 8.41411C18.1375 8.0649 17.9193 8.19585 17.6574 8.2395C17.4827 8.3268 17.2208 8.10859 17.0462 7.84668C17.0171 8.34139 17.0171 8.76331 17.0462 9.11252Z" fill="#78DDD0"/>
<path d="M29.3993 0.426758H29.355L29.3993 0.471096V0.426758Z" fill="#8DE2D9"/>
<path d="M25.514 7.49801C25.4849 7.58531 25.4849 7.6726 25.514 7.75991L25.8632 7.36704C25.7323 7.27973 25.5577 7.27975 25.514 7.49801Z" fill="#45D4BF"/>
<path d="M24.9467 7.54145C24.8593 7.3232 24.903 7.10495 25.034 6.84305C25.2522 6.45018 25.4268 6.05731 25.2086 5.57715C24.9903 5.75175 24.903 5.97001 24.8157 6.23192C24.6411 6.84303 24.5101 7.45416 24.1173 7.93433C24.3355 8.32719 24.2919 8.6764 23.9863 9.02561C24.3064 8.851 24.612 8.63275 24.903 8.37084L24.8157 8.15258C24.772 7.93433 24.8157 7.71606 24.9467 7.54145Z" fill="#64D7CA"/>
<path d="M24.8157 8.15263L24.903 8.37089L24.9903 8.28361L25.1212 8.15263C25.0921 7.94893 25.0339 7.74521 24.9466 7.5415C24.8157 7.71611 24.772 7.93438 24.8157 8.15263Z" fill="#55D6C6"/>
<path d="M17.657 8.23967C17.9189 8.19602 18.1372 8.06507 18.2681 8.41428C18.3554 8.71984 18.0935 8.89447 17.8753 8.98177C17.7007 9.02542 17.5261 9.15636 17.3515 9.28731C18.0062 9.63652 18.9665 9.89842 19.9705 9.98572C19.9269 9.81111 19.7959 9.72384 19.6213 9.63654C19.1848 9.54924 18.9229 9.20002 18.8792 8.80716C18.7919 8.37064 19.2721 8.41432 19.534 8.28336C20.3634 7.84685 20.8435 7.10476 20.5816 6.40634C20.407 5.88252 20.3197 5.27141 19.665 5.0968C19.0102 4.87854 18.4427 4.92221 17.8753 5.48967C17.7007 5.69338 17.5552 5.89709 17.4388 6.1008C17.2205 6.71192 17.1332 7.32304 17.0459 7.84685C17.2205 8.10876 17.4824 8.32697 17.657 8.23967Z" fill="#67D9C9"/>
<path d="M22.0223 2.04226C22.066 2.12956 22.2406 1.99861 22.3279 2.04226C22.8953 2.12956 23.4628 1.56211 24.0303 1.99862C24.3358 2.21687 24.5977 2.17322 24.8596 1.99862C24.9469 1.95497 25.0779 1.82402 24.9469 1.73672C24.3358 1.1256 24.816 0.950967 25.2961 0.776362L25.0342 0.558105C23.5937 0.73271 22.1096 1.03826 20.931 1.69303L20.4072 1.95498C20.931 1.73672 21.4985 1.34384 22.0223 2.04226Z" fill="#91E4DA"/>
<path d="M22.9822 9.41906L22.8076 9.59367L23.2005 9.4627C23.2441 9.33174 23.2878 9.20078 23.2878 9.06982L22.9822 9.41906Z" fill="#98E6DA"/>
<path d="M21.324 8.37083C21.3676 8.06527 21.2803 7.75973 21.3676 7.41052C21.5859 6.45019 22.3716 6.45018 23.0264 6.14462C23.2446 6.01367 23.4192 6.2319 23.5065 6.45016L23.8558 7.2359C24.1613 6.974 24.2923 6.58114 24.3359 6.14462C24.3359 5.92637 24.3359 5.62078 24.0304 5.62078C23.6812 5.57712 23.5502 5.35889 23.3756 5.09698C22.8954 4.18031 22.5462 4.04935 21.6732 4.44221L21.455 4.5295C21.0184 4.66045 20.9311 4.92238 21.1494 5.31524C21.3676 5.83905 21.324 6.40651 21.0184 6.88667C20.9311 7.06128 20.8875 7.23592 20.9311 7.41052C20.8875 7.93434 20.9311 8.54545 20.4946 8.93831L20.5819 9.15657C21.0621 9.28752 21.4986 9.54942 21.8915 9.85498L22.6335 9.63672C22.2843 9.63672 21.2803 8.67639 21.324 8.37083Z" fill="#98E6DA"/>
<path d="M22.9824 9.41934L23.2879 9.07011C23.5498 8.8955 23.5498 8.54632 23.5935 8.28442C23.6371 7.97886 23.7244 7.76059 23.9864 7.67329L23.8554 7.23678L23.5062 6.45103C23.4189 6.23278 23.2443 6.01454 23.026 6.14549C22.3713 6.45105 21.5856 6.45106 21.3673 7.41139C21.28 7.7606 21.3673 8.06614 21.3236 8.3717C21.28 8.67726 22.284 9.63759 22.6332 9.63759L22.8078 9.59395L22.9824 9.41934Z" fill="#A9E9E2"/>
<path d="M25.2957 0.775936C24.8155 0.950541 24.3354 1.12518 24.9465 1.7363C25.0774 1.8236 24.9465 1.95454 24.8592 1.99819C25.0774 2.60931 25.6013 2.39106 25.9505 2.60932C26.387 2.91488 26.8235 2.78393 27.0854 2.39106C27.3473 1.95455 27.4346 1.43072 27.1727 0.950552C26.9544 0.601342 26.6925 0.426758 26.387 0.426758H26.1687L25.9941 0.470398C25.7322 0.557701 25.5139 0.688633 25.2957 0.775936Z" fill="#9FE6DE"/>
<path d="M24.1178 7.93426L23.9869 7.67236C23.725 7.75967 23.6377 7.97793 23.594 8.28349C23.5504 8.5454 23.5504 8.89458 23.2885 9.06918C23.2885 9.20014 23.2448 9.3311 23.2012 9.46205C23.4631 9.34565 23.725 9.20015 23.9869 9.02554C24.2924 8.67633 24.3361 8.32712 24.1178 7.93426Z" fill="#8AE2D7"/>
<path d="M20.582 9.15674C20.6693 9.5496 20.8876 9.81148 21.2368 9.94243L21.8916 9.85515C21.4987 9.54959 21.0622 9.28769 20.582 9.15674Z" fill="#8AE2D7"/>
<path d="M20.9305 7.41064C20.1884 8.06541 20.1884 8.10906 20.4939 8.93844C20.9305 8.54558 20.8868 7.93446 20.9305 7.41064Z" fill="#8AE2D7"/>
<path d="M14.2525 2.9583C15.0819 3.48211 15.1255 4.26784 15.1255 5.09722L14.9946 5.44645C15.2128 6.23217 15.6494 6.66865 16.3914 6.88691L16.2168 6.23214L15.8676 6.10122C15.693 6.01392 15.5621 5.88296 15.5621 5.66471C15.5912 5.25729 15.562 4.84986 15.4747 4.44245C15.0382 3.65673 14.4271 2.91463 13.6851 2.34717C13.7724 2.56542 13.947 2.78369 14.2525 2.9583Z" fill="#54D5C6"/>
<path fill-rule="evenodd" clip-rule="evenodd" d="M9.58131 0.688477C10.1051 0.775779 10.6144 0.89215 11.1091 1.03765C11.24 1.16861 11.371 1.29959 11.5456 1.34325C11.8512 1.51785 12.1567 1.60515 12.4186 1.5615L12.6805 1.69242L13.2916 2.04165C12.9424 3.00198 12.9424 3.00197 13.9464 3.17658C14.4702 3.30753 14.7321 3.65677 14.8194 4.13694C14.9067 4.48615 14.9067 4.83533 15.125 5.09724L14.994 5.44647C14.8631 6.14489 15.1686 6.71233 15.7797 6.88693L15.998 6.97427L16.1726 7.06155L16.3472 7.14883L16.4782 7.23616L16.5218 7.71632L16.3909 7.62904C16.0417 7.41078 15.7361 7.19248 15.2996 7.14883C14.9504 7.10518 14.9067 6.6687 14.8194 6.36314C14.7321 6.14488 14.7321 5.83929 14.5139 5.62104C14.2083 5.31548 14.1647 5.00993 14.5139 4.70437C14.6012 4.61707 14.6448 4.48615 14.6448 4.35519C14.5139 3.91868 13.8155 3.48215 13.3789 3.56945C12.9861 3.6131 12.6805 3.7004 12.8551 4.22422C12.9861 4.57343 12.6369 4.879 12.6805 5.27186H12.8988C13.0734 5.22821 13.2916 5.09725 13.4226 5.27186C13.5972 5.44646 13.4226 5.66469 13.3789 5.83929C13.2043 6.31946 13.0297 6.79964 12.8988 7.27981C12.7678 7.71632 12.5932 8.19646 13.1607 8.45837C13.2916 8.54567 13.248 8.72029 13.248 8.85124L12.9861 9.98616C12.4623 9.98616 11.9385 9.91341 11.4146 9.76791C11.1964 9.63695 10.9781 9.54965 10.7162 9.54965C10.1051 9.33139 9.45035 8.98223 8.88289 8.50206L9.01385 8.19647C9.18845 7.80361 9.3194 7.41077 9.45036 7.01791C9.58131 6.6687 9.49401 6.45045 9.18845 6.3195C8.79559 6.18855 8.40273 5.88298 7.92257 5.92663C7.66067 5.92663 7.57337 5.75201 7.66067 5.53375C8.14083 4.61708 7.92257 3.48212 8.49003 2.56545C8.83924 1.95433 9.1448 1.25594 9.58131 0.688477ZM10.9781 3.22022C10.6726 3.13291 10.367 2.7837 10.0178 3.22022C9.62496 3.65673 9.40671 4.22424 9.40671 4.79171C9.36305 5.00996 9.58131 5.18457 9.75591 5.22822C10.2361 5.31552 11.4583 4.70437 11.7202 4.26786C11.8948 3.83135 11.7202 3.52578 10.9781 3.22022Z" fill="#68DBC9"/>
<path d="M13.9464 3.17643C14.4702 3.30738 14.7321 3.65662 14.8194 4.13679C14.9067 4.486 14.9067 4.83518 15.1249 5.09709C15.1249 4.26772 15.0813 3.48198 14.2519 2.95817C13.9464 2.78356 13.7718 2.5653 13.6845 2.34704L13.2916 2.0415C12.9424 3.00183 12.9424 3.00182 13.9464 3.17643Z" fill="#62D8C8"/>
<path d="M15.5614 5.66464C15.5614 5.8829 15.6924 6.01385 15.867 6.10115L16.2162 6.23207C16.0416 5.62096 15.7797 5.00985 15.4741 4.44238C15.5614 4.84979 15.5905 5.25723 15.5614 5.66464Z" fill="#47D3C2"/>
<path d="M14.9943 5.4458C14.8633 6.14422 15.1689 6.71166 15.78 6.88626L15.9983 6.97359L16.1729 7.06088L16.3475 7.14816L16.4784 7.23549L16.3911 6.88626C15.649 6.668 15.2125 6.23152 14.9943 5.4458Z" fill="#62D8C8"/>
<path d="M8.62148 1.43022C7.74847 2.12864 7.53021 3.08897 7.26831 4.0493C7.13735 4.48581 6.8318 4.83501 6.61354 5.18422C6.48259 5.40248 6.35164 5.31519 6.30798 5.09694C6.22068 4.92233 6.17703 4.74775 6.17703 4.57314C6.08973 4.09298 5.91513 3.83104 5.56592 3.83104C6.35163 5.44614 7.35561 7.14857 8.62148 8.2835L8.88339 8.50176L9.01434 8.19617C9.18895 7.80331 9.3199 7.41047 9.45085 7.0176C9.58181 6.66839 9.4945 6.45015 9.18895 6.31919C8.79609 6.18824 8.40323 5.88267 7.92307 5.92632C7.66116 5.92632 7.57386 5.75171 7.66116 5.53345C8.14132 4.61677 7.92307 3.48182 8.49053 2.56514C8.83974 1.95403 9.14529 1.25564 9.5818 0.688172L9.18895 0.644531C9.05799 0.95009 8.88339 1.25562 8.62148 1.43022Z" fill="#78DDD0"/>
<path d="M11.5459 1.34319L11.5895 1.21221L11.1094 1.0376C11.2403 1.16855 11.3713 1.29954 11.5459 1.34319Z" fill="#78DDD0"/>
<path d="M10.7163 9.59339L11.4147 9.76795C11.1965 9.637 10.9782 9.54974 10.7163 9.59339Z" fill="#78DDD0"/>
<path d="M15.2991 7.14872C14.9499 7.10507 14.9063 6.66859 14.819 6.36303C14.7317 6.14478 14.7317 5.83919 14.5134 5.62093C14.2079 5.31537 14.1642 5.00982 14.5134 4.70426C14.6007 4.61696 14.6444 4.48604 14.6444 4.35509C14.5134 3.91857 13.815 3.48204 13.3785 3.56934C12.9856 3.61299 12.6801 3.7003 12.8547 4.22411C12.9856 4.57332 12.6364 4.87889 12.6801 5.27175H12.8983C13.0729 5.2281 13.2912 5.09715 13.4221 5.27175C13.5967 5.44636 13.4221 5.66458 13.3785 5.83919C13.2039 6.31935 13.0293 6.79953 12.8983 7.2797C12.7674 7.71621 12.5928 8.19635 13.1602 8.45826C13.2912 8.54556 13.2475 8.72018 13.2475 8.85113L12.9856 9.98605C13.393 9.98605 13.8004 9.95697 14.2079 9.89877L14.4698 9.5059C14.7753 8.98209 15.0372 8.85112 15.4737 9.11303L15.9102 9.46226C16.143 9.34586 16.3468 9.22943 16.5214 9.11303C16.6087 8.72017 16.6087 8.24003 16.5214 7.71621L16.3904 7.62893C16.0412 7.41067 15.7356 7.19237 15.2991 7.14872Z" fill="#78DDD0"/>
<path d="M4.86717 2.21645C5.08542 1.86724 5.21637 1.47439 5.21637 1.08153C5.26002 0.601363 4.73621 0.645003 4.47431 0.470398L4.43066 0.426758H4.2124C4.34336 0.950573 4.60526 1.56168 4.86717 2.21645Z" fill="#98E6DA"/>
<path d="M6.13327 3.26406C5.82772 3.08945 5.56581 3.13307 5.26025 3.17672L5.43486 3.48232C5.65311 3.48232 5.91502 3.52597 6.13327 3.26406Z" fill="#98E6DA"/>
<path d="M7.87902 1.4307C7.87902 1.91087 7.44251 2.69661 7.006 2.87122C6.8896 3.45323 6.59859 3.5842 6.13298 3.26409C5.91473 3.526 5.65283 3.48235 5.43457 3.48235L5.56552 3.83152C5.91473 3.83152 6.08933 4.09346 6.17664 4.57363C6.17664 4.74823 6.22029 4.92282 6.30759 5.09742C6.35124 5.31568 6.48219 5.40296 6.61315 5.1847C6.8314 4.83549 7.13696 4.48629 7.26791 4.04978C7.52982 3.08945 7.74807 2.12912 8.62109 1.4307C8.88299 1.2561 9.0576 0.950573 9.18855 0.645014C8.53379 0.51406 7.87902 0.470409 7.22426 0.426758C7.66077 0.557712 7.83537 0.863238 7.87902 1.4307Z" fill="#8BE1D8"/>
<path d="M11.5464 1.34338C11.8519 1.51798 12.1575 1.60528 12.4194 1.56163L11.59 1.2124L11.5464 1.34338Z" fill="#8BE1D8"/>
<path d="M10.0181 3.22027C9.62527 3.65679 9.40701 4.22429 9.40701 4.79176C9.36336 5.01002 9.58162 5.18462 9.75622 5.22827C10.2364 5.31558 11.4586 4.70443 11.7205 4.26791C11.8951 3.8314 11.7205 3.52583 10.9784 3.22027C10.6729 3.13297 10.3673 2.78376 10.0181 3.22027Z" fill="#47D1BE"/>
<path d="M15.4739 9.11337C15.0374 8.85147 14.7755 8.98243 14.4699 9.50624L14.208 9.89912C14.8191 9.81181 15.4302 9.63721 15.9104 9.4626L15.4739 9.11337Z" fill="#91E4DA"/>
<path d="M5.21638 1.08128C5.21638 1.47414 5.08543 1.86699 4.86717 2.2162L5.26003 3.1765C5.56559 3.13285 5.82749 3.08923 6.13305 3.26384C6.59866 3.58395 6.88967 3.45298 7.00607 2.87097L7.35528 1.9543C7.44258 1.73604 7.44258 1.56142 7.26798 1.38681C6.91877 1.16856 6.52591 0.950321 6.22035 0.644763C6.10395 0.55746 5.973 0.470115 5.82749 0.382812C5.30368 0.382812 4.83807 0.397406 4.43066 0.426506L4.47431 0.470147C4.73622 0.644752 5.26003 0.601111 5.21638 1.08128Z" fill="#A9EAE2"/>
<path d="M6.2205 0.644763C6.52605 0.950321 6.91891 1.16856 7.26812 1.38681C7.44272 1.56142 7.44272 1.73604 7.35542 1.9543L7.00621 2.87097C7.44272 2.69636 7.87923 1.91062 7.87923 1.43045C7.83558 0.862987 7.66098 0.55746 7.22447 0.426506C6.72976 0.397406 6.26415 0.382812 5.82764 0.382812C5.97314 0.470115 6.10409 0.55746 6.2205 0.644763Z" fill="#98E6DA"/>
<path d="M16.4347 9.68046C16.3473 9.97147 16.2891 10.2625 16.26 10.5535C16.1727 11.121 16.1291 11.6884 16.0418 12.2123C15.9836 12.7943 15.9399 13.3617 15.9108 13.9146C15.8817 14.4966 15.8672 15.0641 15.8672 15.617H17.7442C17.7442 15.0641 17.7296 14.4966 17.7005 13.9146C17.6714 13.3617 17.6278 12.7943 17.5696 12.2123C17.4823 11.6884 17.4386 11.121 17.3513 10.5535C17.3222 10.2625 17.264 9.97147 17.1767 9.68046C17.1185 9.38945 17.0312 9.11298 16.9148 8.85107H16.6966C16.5802 9.11298 16.4929 9.38945 16.4347 9.68046Z" fill="#C9B599"/>
</svg>
