<svg width="132" height="140" viewBox="0 0 132 140" fill="none" xmlns="http://www.w3.org/2000/svg">
<path d="M120.951 6.42441C121.459 8.79758 120.02 12.8659 120.02 12.8659C120.02 12.8659 115.197 9.8994 114.774 7.52623C114.266 5.0683 115.451 1 115.451 1C115.451 1 120.528 4.136 120.951 6.42441Z" fill="#9DC762"/>
<path d="M116.974 17.6124C119.513 20.0703 119.174 23.291 119.174 23.291C119.174 23.291 116.213 23.5453 112.997 21.0026C109.782 18.5447 110.628 14.8154 110.628 14.8154C110.628 14.8154 114.689 15.2392 116.974 17.6124Z" fill="#70BF66"/>
<path d="M121.12 17.8663C118.92 20.3243 119.005 23.545 119.005 23.545C119.005 23.545 123.236 24.0535 125.351 21.1718C126.874 18.9682 127.212 15.4932 127.212 15.4932C127.212 15.4932 122.982 15.9169 121.12 17.8663Z" fill="#9DC762"/>
<path d="M114.689 28.885C117.566 32.1905 117.312 36.3435 117.312 36.3435C117.312 36.3435 112.151 37.3606 109.105 33.8856C106.312 30.8344 107.243 26.427 107.243 26.427C107.243 26.427 112.405 26.2575 114.689 28.885Z" fill="#9DC762"/>
<path d="M121.543 29.7322C117.82 32.953 117.905 36.428 117.905 36.428C117.905 36.428 122.051 38.5469 126.282 35.3261C128.905 33.3767 129.328 28.2914 129.328 28.2914C129.328 28.2914 123.32 28.2066 121.543 29.7322Z" fill="#70BF66"/>
<path d="M113.336 41.9373C115.705 45.6666 115.113 50.9214 115.113 50.9214C115.113 50.9214 110.289 51.4299 105.974 46.5141C102.505 42.5306 105.043 37.1909 105.043 37.1909C105.043 37.1909 110.966 38.2928 113.336 41.9373Z" fill="#70BF66"/>
<path d="M120.02 42.6152C115.874 44.4799 114.605 50.4975 114.605 50.4975C114.605 50.4975 119.09 53.3793 124.251 50.4128C128.059 48.2091 128.482 42.5304 128.482 42.5304C128.482 42.5304 122.982 41.3439 120.02 42.6152Z" fill="#9DC762"/>
<path d="M109.274 55.4136C111.728 60.6684 109.951 65.8386 109.951 65.8386C109.951 65.8386 103.013 65.33 100.305 59.8209C97.9356 54.905 100.643 49.5654 100.643 49.5654C100.643 49.5654 107.328 51.1758 109.274 55.4136Z" fill="#9DC762"/>
<path d="M115.705 58.8035C110.12 62.109 109.697 65.923 109.697 65.923C109.697 65.923 114.859 69.8218 119.682 67.1096C123.405 64.9059 125.605 57.7017 125.605 57.7017C125.605 57.7017 118.413 57.1931 115.705 58.8035Z" fill="#70BF66"/>
<path d="M103.859 70.924C105.636 75.8398 103.436 81.8575 103.436 81.8575C103.436 81.8575 97.7663 81.0948 94.0433 74.1448C91.1663 68.6356 95.651 63.1265 95.651 63.1265C95.651 63.1265 102.166 66.0081 103.859 70.924Z" fill="#70BF66"/>
<path d="M111.135 73.2124C105.72 74.9076 103.182 82.1966 103.182 82.1966C103.182 82.1966 107.328 85.1631 114.266 82.1966C119.343 79.993 121.882 72.0259 121.882 72.0259C121.882 72.0259 115.028 72.0258 111.135 73.2124Z" fill="#9DC762"/>
<path d="M93.1128 86.858C94.382 92.5367 91.3359 98.8086 91.3359 98.8086C91.3359 98.8086 85.0743 97.3678 81.8589 89.2312C79.3204 82.7897 84.905 77.1958 84.905 77.1958C84.905 77.1958 91.7589 81.1794 93.1128 86.858Z" fill="#9DC762"/>
<path d="M100.474 91.096C94.6358 92.3673 91.4204 99.741 91.4204 99.741C91.4204 99.741 96.4974 104.403 104.028 101.86C109.613 100.08 112.743 92.8758 112.743 92.8758C112.743 92.8758 104.705 90.1636 100.474 91.096Z" fill="#70BF66"/>
<path d="M80.4203 98.9782C81.1818 104.487 77.6279 110.166 77.6279 110.166C77.6279 110.166 71.8741 108.132 69.5895 100.165C67.8125 93.8081 73.651 89.1465 73.651 89.1465C73.651 89.1465 79.7433 93.5538 80.4203 98.9782Z" fill="#70BF66"/>
<path d="M88.4588 105.335C82.7895 105.081 77.8818 111.098 77.8818 111.098C77.8818 111.098 82.1126 116.438 89.728 116.014C95.3126 115.76 100.897 109.573 100.897 109.573C100.897 109.573 92.6895 105.589 88.4588 105.335Z" fill="#9DC762"/>
<path d="M67.0508 109.912C65.6124 116.099 59.4355 120.76 59.4355 120.76C59.4355 120.76 54.1047 116.268 54.9509 106.776C55.5432 99.2324 63.7508 96.605 63.7508 96.605C63.7508 96.605 68.4893 103.809 67.0508 109.912Z" fill="#9DC762"/>
<path d="M73.6511 117.37C67.4742 115.336 58.7588 119.913 58.7588 119.913C58.7588 119.913 60.8741 124.659 68.3203 127.287C75.6818 129.829 83.4664 123.896 83.4664 123.896C83.4664 123.896 78.1357 118.896 73.6511 117.37Z" fill="#70BF66"/>
<path d="M47.251 117.625C44.1202 123.218 37.0125 126.015 37.0125 126.015C37.0125 126.015 33.1202 120.252 36.4202 111.353C39.1279 104.233 47.674 103.894 47.674 103.894C47.674 103.894 50.2971 112.115 47.251 117.625Z" fill="#70BF66"/>
<path d="M51.5666 127.541C45.8973 124.405 37.0127 126.015 37.0127 126.015C37.0127 126.015 38.1974 133.813 46.1512 137.119C52.0743 139.576 57.5743 137.288 57.5743 137.288C57.5743 137.288 55.7127 129.745 51.5666 127.541Z" fill="#9DC762"/>
<path d="M120.274 12.8661C119.174 45.2429 110.459 82.8746 85.4126 105.25C74.6664 114.234 61.3818 119.32 48.2664 123.897C33.2895 129.067 17.4664 131.44 2.91254 137.542C2.57408 137.712 2.23562 137.542 2.06639 137.203C1.89716 136.864 2.06641 136.44 2.40487 136.356C17.1279 130.169 32.8664 127.795 47.8433 122.625C62.5664 117.54 77.7972 111.692 88.7972 100.25C105.297 83.0442 112.913 59.3972 117.143 36.3435C118.497 28.6307 119.513 20.7484 119.851 12.8661C119.851 12.6966 119.936 12.6118 120.105 12.6118C120.19 12.6118 120.274 12.6966 120.274 12.8661Z" fill="#9EC14B"/>
</svg>
