<svg width="320" height="488" viewBox="0 0 320 488" fill="none" xmlns="http://www.w3.org/2000/svg">
<g clip-path="url(#clip0_326_7799)">
<g opacity="0.23">
<path d="M180.187 347.237C179.473 341.01 182.199 336.793 184.73 330.501C187.846 335.496 192.325 337.312 194.402 345.096C196.219 351.972 194.207 357.875 193.818 360.729C190.248 359.886 181.355 357.81 180.187 347.237Z" fill="#9EC14B"/>
<path d="M151.497 380.255C150.394 375.26 151.692 368.968 155.327 363.259C159.351 369.357 162.272 373.963 162.791 378.179C163.635 385.963 161.234 389.531 159.676 393.099C156.365 391.672 153.12 388.039 151.497 380.255Z" fill="#9EC14B"/>
<path d="M213.355 345.745C210.889 351.064 203.814 352.945 198.686 353.27C197.583 355.929 196.09 358.459 194.532 360.859C190.053 367.67 184.147 373.379 178.045 378.763C173.696 382.59 169.282 386.287 164.804 389.92C170.126 389.401 172.787 389.206 177.526 390.374C184.796 392.19 186.678 395.304 190.767 399.391C183.368 401.531 184.211 404.645 176.812 403.283C171.684 402.375 166.816 396.147 164.349 390.309C159.806 393.942 155.219 397.531 150.589 401.077L150.264 400.623C159.611 393.423 168.828 386.093 177.656 378.309C178.002 378.006 178.37 377.682 178.759 377.336C175.124 375.13 171.295 373.833 168.179 366.114C165.712 359.886 168.114 355.281 170.775 349.118C174.735 355.54 177.656 356.773 179.603 363.389C181.81 370.849 179.603 374.352 179.019 377.141C184.017 372.6 188.885 367.865 192.844 362.351C194.856 359.497 196.869 356.448 198.426 353.205C194.856 337.701 209.071 330.696 214.913 326.544C214.329 332.966 217.639 336.728 213.355 345.745Z" fill="#9EC14B"/>
<path d="M192.324 365.011C197.971 362.87 200.568 359.108 205.566 358.784C212.9 358.2 216.405 359.757 222.117 360.211C217.768 366.373 215.302 370.784 208.032 371.822C202.839 372.536 195.699 371.044 192.324 365.011Z" fill="#9EC14B"/>
<path d="M179.603 378.179C184.796 377.271 188.106 376.038 192.325 375.909C199.335 375.779 201.932 381.163 207.254 382.071C201.997 386.612 198.167 390.763 190.767 389.531C186.418 388.752 183.173 384.341 179.603 378.179Z" fill="#9EC14B"/>
</g>
<g opacity="0.23">
<path d="M108.333 332.773C107.554 325.767 110.605 320.967 113.461 313.896C116.966 319.54 122.029 321.615 124.366 330.372C126.443 338.092 124.171 344.708 123.717 347.887C119.692 347.043 109.632 344.643 108.333 332.773Z" fill="#9EC14B"/>
<path d="M76.0089 369.941C74.7756 364.298 76.2036 357.227 80.3578 350.805C84.9014 357.616 88.1468 362.871 88.731 367.671C89.7046 376.363 86.9785 380.385 85.2259 384.472C81.4612 382.785 77.8263 378.698 76.0089 369.941Z" fill="#9EC14B"/>
<path d="M145.721 331.086C142.929 337.054 135.011 339.129 129.234 339.519C127.936 342.502 126.313 345.357 124.495 348.081C119.432 355.8 112.812 362.222 105.931 368.255C101.063 372.536 96.0653 376.753 91.0025 380.839C96.9741 380.255 99.9599 380.061 105.347 381.358C113.526 383.434 115.668 386.872 120.276 391.478C111.903 393.878 112.877 397.381 104.568 395.889C98.7266 394.851 93.2743 387.845 90.4832 381.228C85.4203 385.38 80.2276 389.402 74.97 393.424L74.5806 392.905C85.1607 384.796 95.5461 376.558 105.477 367.736C105.91 367.39 106.321 367.044 106.71 366.698C102.686 364.168 98.2722 362.676 94.8321 353.984C92.041 347.043 94.7023 341.789 97.753 334.848C102.167 342.113 105.477 343.475 107.684 351C110.151 359.303 107.684 363.26 107.035 366.439C112.682 361.314 118.134 355.995 122.548 349.768C124.885 346.524 127.092 343.151 128.844 339.519C124.885 322.004 140.917 314.155 147.473 309.42C146.824 316.685 150.524 320.901 145.721 331.086Z" fill="#9EC14B"/>
<path d="M122.029 352.816C128.39 350.351 131.311 346.135 136.958 345.745C145.201 345.097 149.161 346.848 155.587 347.367C150.718 354.308 147.862 359.238 139.749 360.406C133.842 361.249 125.794 359.562 122.029 352.816Z" fill="#9EC14B"/>
<path d="M107.684 367.606C113.526 366.633 117.291 365.141 122.029 365.076C129.948 364.882 132.869 370.979 138.84 372.017C132.869 377.142 128.65 381.812 120.276 380.385C115.343 379.542 111.708 374.547 107.684 367.606Z" fill="#9EC14B"/>
</g>
<g opacity="0.23">
<path d="M118.718 176.959C120.341 171.186 124.17 168.397 128.649 163.726C129.623 169.24 132.933 172.419 132.024 180.008C131.245 186.689 127.416 191.165 126.118 193.565C123.197 191.619 116.122 186.689 118.718 176.959Z" fill="#9EC14B"/>
<path d="M81.8506 196.03C82.6944 191.23 86.0048 186.17 91.1975 182.408C92.6255 189.154 93.5991 194.279 92.5606 198.171C90.6133 205.306 87.238 207.577 84.6417 210.301C82.1752 207.836 80.6174 203.425 81.8506 196.03Z" fill="#9EC14B"/>
<path d="M148.577 187.208C144.487 190.971 137.672 190.192 132.998 188.7C131.051 190.646 128.909 192.333 126.637 193.955C120.341 198.366 113.136 201.414 105.867 204.009C100.674 205.869 95.4596 207.62 90.2236 209.263C95.1567 210.626 97.5583 211.339 101.323 214.064C107.1 218.215 107.684 221.588 109.891 226.648C102.621 225.934 102.297 228.983 96.1952 225.221C91.9761 222.561 89.8341 215.426 89.7692 209.393C84.4467 211.036 79.1242 212.615 73.8017 214.129L73.6719 213.545C84.4467 210.561 95.1567 207.253 105.672 203.425C106.105 203.296 106.537 203.144 106.97 202.971C104.568 199.793 101.583 197.263 101.583 189.349C101.518 183.057 105.282 179.813 109.761 175.273C110.994 182.343 113.201 184.419 112.617 190.971C111.968 198.301 108.787 200.636 107.295 202.842C113.266 200.636 119.238 198.171 124.625 194.668C127.416 192.852 130.272 190.841 132.739 188.571C135.011 173.651 150.069 172.419 156.625 170.732C153.899 176.246 155.457 180.657 148.577 187.208Z" fill="#9EC14B"/>
<path d="M123.262 196.874C128.974 196.874 132.609 194.538 137.153 195.901C143.838 197.976 146.37 200.636 151.238 203.036C145.266 206.928 141.502 209.912 134.751 208.29C129.948 207.123 124.106 203.295 123.262 196.874Z" fill="#9EC14B"/>
<path d="M107.424 204.009C112.292 205.047 115.733 205.047 119.432 206.474C125.729 208.809 126.118 214.453 130.467 217.112C124.236 219.318 119.432 221.588 113.331 217.956C109.761 215.75 108.463 210.691 107.424 204.009Z" fill="#9EC14B"/>
</g>
<g opacity="0.23">
<path d="M143.319 282.629C142.626 282.283 141.934 281.959 141.242 281.656C134.102 278.218 127.157 274.391 120.406 270.369L120.017 270.953C124.625 273.742 129.363 276.402 134.167 278.867C132.998 282.11 130.013 285.548 131.441 290.543C132.739 295.213 134.621 295.862 137.996 299.949C139.1 295.862 143.708 291.71 142.345 287.235C141.436 284.186 138.775 282.11 135.984 279.84C140.008 281.915 144.076 283.905 148.187 285.807C147.992 289.959 143.708 294.175 147.733 301.311C150.329 306.046 153.315 304.36 157.988 309.744C159.221 306.241 161.883 301.895 159.481 295.602C157.274 289.829 151.822 289.051 148.771 286.067C152.666 287.84 156.56 289.57 160.455 291.256C166.232 304.749 172.658 299.949 180.512 298.197C176.357 295.732 177.006 291.775 171.944 290.024C167.66 288.532 165.063 289.894 160.909 291.062C156.106 288.727 150.199 285.872 145.136 283.472C148.447 284.38 150.654 285.224 153.964 284.121C158.702 282.434 159.935 277.245 162.791 273.677C157.079 273.353 155.587 270.823 150.783 272.639C145.461 274.65 145.331 279.58 143.319 282.629Z" fill="#9EC14B"/>
</g>
<g opacity="0.23">
<path d="M289.623 401.078C289.017 401.553 288.412 401.986 287.806 402.375C281.639 406.721 275.213 410.808 268.658 414.57L269.047 415.154C273.504 412.602 277.896 409.9 282.224 407.045C284.366 409.51 285.923 413.597 290.727 414.765C295.205 415.867 296.633 414.57 301.631 413.662C298.71 410.808 297.412 405.035 293.063 404.062C290.078 403.478 287.092 404.71 283.911 405.943C287.503 403.521 291.051 401.056 294.556 398.548C297.932 400.624 299.489 406.202 307.343 406.202C312.471 406.137 312.406 402.894 319.157 401.532C316.755 398.807 314.353 394.591 307.992 393.683C302.151 392.839 298.97 396.991 295.076 398.159C298.364 395.78 301.61 393.337 304.812 390.829C318.832 392.32 317.794 384.731 320.001 377.336C315.976 379.606 312.99 377.206 309.161 380.644C305.915 383.563 305.85 386.353 304.877 390.374C300.723 393.293 295.595 396.861 291.181 400.04C293.518 397.64 295.27 396.213 295.854 392.904C296.633 388.234 292.869 384.731 291.246 380.709C288.325 385.315 285.469 385.38 284.755 390.245C283.976 395.564 288.001 398.029 289.623 401.078Z" fill="#9EC14B"/>
</g>
<g opacity="0.23">
<path d="M91.3918 243.513C90.6129 243.773 89.8556 244.032 89.12 244.292C81.3959 247.016 73.5419 249.352 65.623 251.298L65.8178 252.076C71.2052 250.714 76.5926 249.157 81.98 247.535C83.408 250.714 83.8624 255.384 88.5358 258.044C92.8847 260.509 94.7671 259.601 100.219 260.12C98.0125 256.292 98.337 249.871 94.0531 247.6C91.1322 246.108 87.692 246.497 83.9922 246.887C88.4493 245.416 92.8847 243.881 97.2985 242.281C100.219 245.46 100.154 251.687 108.333 254.022C113.655 255.514 114.629 252.076 121.964 252.66C120.341 249.092 119.043 244.032 112.682 241.178C106.905 238.584 102.296 241.957 97.9476 242.022C102.058 240.508 106.148 238.929 110.215 237.286C124.365 242.93 125.534 234.691 130.012 227.686C125.144 228.918 122.743 225.545 117.745 227.945C113.526 230.021 112.617 232.94 110.41 236.832C105.217 238.648 98.7914 240.854 93.3391 242.8C96.4547 241.049 98.6616 240.075 100.219 236.832C102.491 232.162 99.5703 227.426 99.051 222.756C94.7021 226.648 91.7163 225.869 89.5095 230.799C87.1078 236.054 90.6129 239.816 91.3918 243.513Z" fill="#9EC14B"/>
</g>
<g opacity="0.23">
<path d="M54.329 19.9795C53.377 19.5903 52.4683 19.2444 51.6029 18.9417C42.3209 15.374 32.7793 12.3252 23.1729 9.73045L23.4325 8.82233C29.9883 10.5738 36.4791 12.6495 42.97 14.855C44.8524 10.963 45.5014 5.25459 51.2134 2.20581C56.6008 -0.648374 58.8726 0.51923 65.4933 0.00028789C62.7672 4.6059 62.9619 12.39 57.7043 15.0496C54.1343 16.801 49.9152 16.2172 45.4365 15.6983C50.8023 17.5578 56.1465 19.5471 61.469 21.6661C65.1039 17.8389 65.2337 10.2494 75.2296 7.71957C81.7854 6.033 82.824 10.1845 91.8463 9.73045C89.7043 13.9469 88.0166 20.1093 80.1627 23.4176C73.0227 26.4015 67.5704 22.1202 62.2479 21.9256C67.2242 23.9149 72.1573 25.969 77.0471 28.088C94.4426 21.6012 95.611 31.6558 100.869 40.2832C94.9619 38.6615 91.9112 42.7482 85.9396 39.6345C80.8767 36.9749 79.8381 33.4721 77.3067 28.607C71.0106 26.3366 63.2864 23.4176 56.6657 20.8229C60.3655 23.0932 63.0917 24.3906 64.9091 28.3475C67.5055 34.0559 63.8706 39.7642 63.0917 45.4077C57.8341 40.5426 54.1992 41.3859 51.6678 35.4181C48.9416 28.8665 53.2256 24.3906 54.329 19.9795Z" fill="#9EC14B"/>
</g>
<path fill-rule="evenodd" clip-rule="evenodd" d="M111.773 40.2829C109.501 55.0078 113.655 69.2138 86.4584 70.2517C80.9628 75.8736 75.4023 81.4306 69.7769 86.9227C76.9168 83.6145 81.9148 74.7925 93.2738 74.7925C105.736 74.7925 111.513 82.2523 116.771 86.793C104.308 91.2689 105.282 97.4962 95.4158 98.9233C80.4868 101.064 76.0081 90.8797 68.933 87.766C62.9182 93.6041 56.7951 99.3125 50.5639 104.891C56.2759 101.583 61.6633 98.4044 67.57 98.8584C75.7485 99.4422 79.8377 109.043 85.6795 113.973C88.6653 113.519 91.3265 114.492 93.5984 115.4C90.0933 117.994 91.6511 120.005 86.3286 123.443C83.927 125 81.2657 124.416 77.8255 125C81.0061 126.297 84.1866 127.725 87.2373 129.346C88.9249 125.324 92.3002 122.211 95.8702 121.238C99.57 120.33 103.205 121.368 107.554 124.416C103.854 126.103 102.556 128.633 97.6227 130.319C93.7282 131.682 90.8722 129.995 87.3022 129.411C90.8722 131.227 94.2474 133.303 97.4929 135.638C100.933 134.601 105.022 134.082 107.684 135.898C113.525 139.92 112.162 142.32 115.667 146.342C107.619 145.952 99.9594 147.898 97.2981 135.963C96.6923 135.574 96.0865 135.184 95.4807 134.795C93.7931 133.801 92.1055 132.827 90.4178 131.876C91.4564 133.498 93.7282 136.352 94.2474 140.503C94.8316 145.498 92.6896 147.639 92.0405 151.272C89.0547 148.158 86.5233 146.342 85.4848 142.579C85.3982 142.363 85.3333 142.147 85.29 141.931C84.576 151.79 85.6146 159.51 80.357 168.137C76.1379 175.013 71.1399 177.478 63.6105 180.332C67.9811 179.77 72.3732 179.23 76.787 178.711C83.4077 170.991 86.4584 163.791 96.9087 162.364C109.241 160.613 117.095 167.489 125.923 168.786C115.473 181.759 102.166 194.733 76.7221 179.813C72.3732 180.592 68.0243 181.305 63.6754 181.954C59.1967 182.538 54.6531 183.186 50.1095 183.77C59.8458 186.235 70.1014 182.603 81.9797 191.165C94.7018 200.247 91.5213 208.42 93.5335 216.983C91.6511 216.853 89.9635 216.788 88.3408 216.723C89.9635 217.112 91.5213 217.761 93.4685 217.696C88.3408 222.107 91.0669 227.88 77.9554 227.88C73.2819 232.681 68.8681 237.611 64.9087 242.995C64.1298 244.076 63.3293 245.157 62.5071 246.238C64.5193 245.46 66.9858 243.708 72.4381 244.551C77.6308 245.33 78.8641 247.406 84.1217 249.741C82.1095 250.973 80.2921 252.076 78.4746 252.854C80.6815 257.849 81.9797 263.168 79.8377 266.412C77.6957 269.655 74.8397 272.899 71.075 274.715C77.5659 274.196 84.1217 273.547 90.6126 272.704C88.4706 269.201 85.8093 260.768 89.8336 256.292C93.2089 252.595 96.714 248.638 99.6998 245.265C102.556 250.779 104.568 260.574 102.101 264.336C99.6349 267.969 94.9614 270.369 91.5213 272.574C100.738 271.407 109.955 269.85 119.043 267.839C125.469 266.282 131.765 264.336 138.061 262.325C140.138 261.633 142.215 260.898 144.292 260.12L144.422 260.509C139.229 262.844 133.842 264.79 128.389 266.412C133.972 266.671 138.905 265.244 144.422 268.617C151.562 273.028 151.627 276.726 154.288 282.175C147.213 280.099 142.475 283.213 136.957 280.358C131.635 277.634 129.039 273.418 127.87 266.606C121.963 268.293 115.927 269.72 109.89 270.823C115.083 272.185 119.821 272.315 123.132 275.364C129.039 280.877 128.389 286.845 128.779 292.943C123.456 291.126 118.653 291.581 113.915 286.651C110.475 283.083 110.345 278.607 108.787 271.082C103.594 271.99 98.4016 272.769 93.144 273.482C92.6247 273.526 92.1055 273.591 91.5862 273.677C95.8702 275.104 98.7911 275.039 102.556 278.802C108.008 284.25 105.671 289.894 105.477 295.992C101.972 293.072 95.6105 291.71 93.3387 288.661C90.1582 284.51 88.9249 279.969 89.4442 273.936C82.5206 274.758 75.597 275.45 68.6734 276.012C73.4767 278.153 76.073 277.958 79.2535 283.083C79.5132 283.559 79.7728 283.991 80.0324 284.38C82.0446 283.732 84.3164 282.823 86.9128 281.267C86.4584 286.715 87.7566 292.554 87.2373 298.002C88.3407 300.597 89.3793 303.257 90.4827 305.592C88.9249 304.943 87.2373 304.489 85.5497 304.23C85.117 305.051 84.6193 305.851 84.0568 306.63C80.0973 311.884 75.6836 312.792 69.4523 314.868C77.8904 313.7 86.3286 312.403 94.7018 311.235C94.7018 311.235 98.856 310.716 102.036 310.262C107.359 304.1 109.955 299.3 118.199 297.159C127.87 294.564 130.986 301.44 140.008 300.986C129.558 311.819 124.625 326.025 101.582 311.041C95.7403 312.165 89.8553 313.203 83.927 314.154C82.8019 314.327 81.6552 314.5 80.4868 314.673C87.7566 314.673 96.0649 313.181 104.698 319.279C105.65 319.928 106.515 320.598 107.294 321.29C108.809 320.641 110.302 319.971 111.773 319.279C111.124 320.901 110.54 322.587 110.15 324.274C115.213 330.371 115.667 337.053 116.965 342.372C113.525 341.399 110.669 341.139 108.203 341.075C107.943 344.448 107.554 347.821 106.775 351.129C108.008 348.015 109.826 344.967 111.838 341.529C116.057 350.545 119.692 352.556 121.314 361.573C123.002 370.849 120.146 375.195 118.783 378.633C122.677 375.736 126.507 372.752 130.272 369.681C133.171 367.216 135.984 364.708 138.71 362.157C134.556 360.535 125.209 356.578 125.533 344.577C125.728 337.247 129.493 332.836 133.517 325.96C136.243 332.253 141.112 335.107 142.28 344.383C143.189 352.102 140.398 358.265 139.294 361.638C141.89 359.173 144.465 356.664 147.018 354.113C147.97 353.162 148.922 352.21 149.874 351.259C149.355 328.425 164.024 328.555 178.369 324.274C173.89 333.096 177.395 336.793 168.633 346.653C164.608 351.129 157.014 352.037 150.329 351.713C145.46 357.356 140.268 362.546 134.75 367.476C140.852 364.816 145.266 360.6 152.86 361.248C158.183 361.703 161.623 363.065 164.868 364.492C169.282 363.065 173.306 364.492 178.045 362.87C171.489 372.925 179.083 381.422 156.755 388.039C151.237 398.483 146.174 409.251 142.085 420.343C141.306 422.592 140.527 424.862 139.748 427.154C142.669 424.754 145.98 420.538 155.716 419.175C164.998 417.878 168.114 420.862 178.304 422.094C172.138 428.841 167.789 434.354 158.767 434.744C147.797 435.263 143.903 431.435 139.359 428.322C134.75 441.749 130.531 455.436 127.546 469.318C127.156 471.264 126.767 473.275 126.572 475.156L125.209 475.027C125.469 472.951 125.858 471.005 126.247 469.059C129.298 454.982 133.647 441.166 138.256 427.543C128.909 426.57 122.937 425.143 119.692 420.278C118.264 418.202 117.355 416.062 116.771 414.051C113.396 413.921 110.215 413.662 108.073 412.429C106.126 411.262 104.438 409.964 102.945 408.472C100.349 410.548 97.3631 412.17 93.2738 413.078C97.5578 417.748 97.2982 424.105 99.6349 430.203C94.1176 428.516 88.6004 428.192 84.0568 426.895C77.5659 425.013 76.4625 418.008 71.5294 411.262C71.3996 411.218 71.2481 411.175 71.075 411.132C65.7958 414.159 60.4516 417.121 55.0426 420.019C51.7322 428.711 48.5517 437.403 45.6957 446.225L44.4625 445.836C47.3617 436.971 50.4773 428.192 53.8093 419.5C53.7444 419.37 53.7444 419.305 53.7444 419.305C53.7877 419.262 53.8526 419.219 53.9391 419.175C55.7999 414.332 57.7471 409.51 59.7809 404.71C59.8675 404.45 59.9756 404.191 60.1055 403.931C52.3813 399.91 40.8276 405.553 30.5071 391.931C22.069 380.774 24.3408 368.708 19.0183 355.021C29.4686 360.794 44.3976 356.902 54.7829 371.562C63.8702 384.406 60.3651 396.666 60.3651 403.283C61.0575 401.639 61.7498 399.996 62.4422 398.353C61.7282 396.277 61.5335 394.136 62.1176 391.931C63.7403 385.963 65.5578 382.266 66.9858 376.946C68.219 377.79 69.3874 378.763 70.4909 379.866C71.5727 377.574 72.6761 375.282 73.8012 372.99C68.4138 361.767 68.0892 353.27 70.8803 346.588C64.714 345.161 61.2738 344.837 55.6917 340.102C48.357 333.745 49.3306 325.312 47.8377 319.084C37.7769 320.252 27.716 321.095 17.5903 321.485L17.5254 320.057C33.7525 319.474 49.8499 317.592 65.9472 315.387C65.8823 310.522 63.4807 305.203 64.1947 299.494C57.3793 294.694 58.4178 289.505 57.7038 282.758C55.3022 281.721 52.8357 280.618 50.4341 279.58C48.7464 278.845 47.0372 278.088 45.3063 277.31C45.1332 277.353 44.9601 277.374 44.787 277.374C49.9797 281.331 55.6268 286.261 56.7951 292.943C58.288 301.051 54.004 308.446 51.8621 313.506C47.4483 305.787 41.2819 304.619 39.9838 296.121C38.5558 286.715 42.1258 282.694 44.4625 277.374C43.0777 277.418 41.693 277.461 40.3083 277.504V276.337C41.1738 276.337 42.0176 276.315 42.8397 276.272C33.0385 272.055 23.1724 268.098 13.0466 264.79L13.3063 264.012C21.8093 266.866 30.1825 269.98 38.426 273.547C38.599 273.591 38.7505 273.655 38.8803 273.742C41.3468 269.007 37.9716 261.936 46.3448 255.709C50.1095 252.919 54.004 252.076 58.0933 251.363C59.2616 249.633 60.4516 247.924 61.6633 246.238C56.7951 244.227 53.8093 242.54 52.8357 239.362C51.0832 233.913 53.4848 230.151 55.4969 227.102C57.4442 231.383 59.9107 230.151 62.3124 236.508C63.3509 239.427 62.1825 242.086 61.9878 245.784C62.4205 245.178 62.8533 244.551 63.286 243.903C65.0385 241.503 66.856 239.167 68.7383 236.962C64.9087 234.302 62.3773 230.021 62.1825 226.064C62.0527 221.977 63.9351 218.539 68.0243 214.647C66.5314 214.064 64.8438 213.415 63.0264 212.442C52.9655 207.447 54.4584 192.268 49.2008 183.9C43.4888 184.614 37.712 185.262 31.9351 185.522C21.2901 185.911 10.645 185.976 0 185.976L0 184.224C14.1501 184.095 28.3002 184.484 42.3854 182.992C47.9675 182.278 53.5497 181.63 59.1318 180.916C59.002 172.483 53.5497 162.948 61.2089 152.439C66.2718 145.498 70.6207 145.758 76.9168 144.071C74.5152 141.412 72.6978 139.076 72.8276 135.249C72.9574 129.476 75.0994 127.595 76.9168 125.389C72.8492 123.66 68.7383 122.081 64.5842 120.654C66.4016 122.47 68.6734 124.481 69.647 126.946C70.6856 129.735 67.9594 135.833 65.2333 138.882C63.8053 136.287 62.1176 133.238 60.5598 130.319C58.6775 127.011 61.2738 122.276 63.1562 120.135C58.6558 118.621 54.0906 117.194 49.4604 115.854C51.927 117.346 53.5497 119.421 54.4584 121.822C55.5619 124.611 53.4199 130.06 50.6937 133.173C49.2657 130.579 47.8377 128.892 46.215 125.973C44.3326 122.47 46.9939 118.384 47.9026 115.4C45.5226 114.708 43.1427 114.059 40.7627 113.454C35.5051 117.93 30.1176 122.341 24.6653 126.622L23.8215 125.519C29.0142 121.454 34.142 117.281 39.2049 113C38.902 112.913 38.6207 112.827 38.361 112.74L38.4909 112.091C38.9236 112.221 39.3779 112.329 39.8539 112.416C45.739 107.443 51.4942 102.296 57.1197 96.9773C58.1149 96.0259 59.1318 95.0528 60.1704 94.0582C56.2109 88.6093 47.8377 85.0416 47.9026 74.6628C47.9675 65.0623 53.355 64.1542 57.6389 54.6186C61.9229 61.8838 70.1014 67.4624 69.8418 76.7385C69.5821 83.1604 66.6612 86.4038 62.8316 91.5283C70.4259 84.328 79.2535 76.025 86.3935 69.3436C87.1075 61.3649 86.5882 56.0457 91.9756 49.6238C98.3367 42.0343 104.698 45.7966 111.773 40.2829ZM77.4361 389.336C80.1623 387.715 83.0831 386.482 86.1988 385.898C86.5449 385.855 86.8695 385.812 87.1724 385.768C85.8742 383.174 85.2251 380.384 86.004 377.66C86.5233 375.779 87.0426 373.833 87.5618 371.887C83.6024 372.535 79.3833 372.6 74.7099 373.119C73.5848 375.671 72.4814 378.222 71.3996 380.774C73.8661 383.368 76.073 386.417 77.4361 389.336ZM60.6247 406.072C61.7065 404.645 62.8533 403.218 64.0649 401.791C63.7187 401.185 63.4158 400.602 63.1562 400.039C60.6031 406.05 58.1366 412.083 55.7566 418.137C60.3867 415.629 64.9953 413.056 69.5821 410.418C66.5963 409.056 63.7404 407.434 60.6247 406.072ZM145.59 408.148C138.45 405.748 132.479 400.623 129.753 394.72C125.079 392.709 122.223 387.779 118.848 380.19C115.04 383.001 111.167 385.747 107.229 388.428C112.032 390.179 116.381 392.32 120.016 393.747C118.264 394.785 116.771 395.823 115.343 396.926C116.338 397.401 117.203 397.942 117.939 398.547C117.982 398.374 118.026 398.201 118.069 398.028C123.521 404.386 127.156 401.012 134.426 410.678C137.671 415.024 137.022 420.213 138.515 426.635C138.948 425.338 139.402 424.04 139.878 422.743C141.566 417.813 143.513 412.948 145.59 408.148ZM119.562 379.671C123.327 379.347 126.507 378.503 129.493 378.179C130.402 375.649 131.7 372.99 133.322 370.2C136.049 375.065 139.424 377.595 142.54 382.071C146.434 384.925 146.953 387.779 152.276 389.985C150.718 391.088 149.095 392.255 147.278 393.228C147.862 398.288 146.109 402.829 145.655 408.083C145.958 407.348 146.283 406.613 146.629 405.877C149.355 399.65 152.535 393.617 156.105 387.844C154.937 384.666 154.288 381.422 154.353 378.374C154.18 378.374 153.985 378.374 153.769 378.374C146.888 378.309 139.424 374.092 134.621 367.606C129.817 371.887 124.755 375.909 119.562 379.671ZM105.542 355.346C104.698 357.681 103.594 359.951 102.101 362.157C100.738 364.168 99.3752 365.724 97.9472 367.022C101.582 371.368 104.308 376.363 103.919 379.736C103.594 382.136 102.686 384.406 101.582 386.677C103.01 387.023 104.416 387.433 105.801 387.909C109.826 385.141 113.807 382.309 117.744 379.411C113.525 376.103 108.787 373.703 105.996 363.389C105.152 360.47 105.087 357.875 105.542 355.346ZM77.3712 315.128C68.8032 316.425 60.2353 317.657 51.6024 318.63C58.288 319.344 64.6491 319.798 69.2576 323.625C74.0608 327.517 73.9959 334.263 74.5152 340.556C76.8519 337.766 79.7728 335.301 83.0831 333.096C78.9939 326.933 80.1623 319.928 77.3712 315.128ZM67.3103 276.142C60.6031 276.661 53.8742 277.029 47.1237 277.245C50.7586 278.866 54.2637 280.488 57.7687 282.24C61.5984 280.423 64.9087 279.58 67.8296 279.45C67.6998 278.412 67.5267 277.31 67.3103 276.142ZM67.6349 252.011C65.8823 257.979 66.3367 265.309 58.7424 270.628C50.8235 276.142 43.2941 273.936 39.2698 273.872C41.0872 274.65 42.883 275.428 44.6572 276.207C52.2515 275.947 59.9107 275.558 67.5051 274.974C67.0507 270.239 64.4543 265.633 67.2454 260.055C68.8032 257.071 70.6856 255.19 72.5679 253.633C72.2218 253.59 71.8972 253.525 71.5943 253.438C69.9716 253.049 68.7383 252.53 67.6349 252.011ZM62.1176 246.822C61.1224 248.249 60.1271 249.698 59.1318 251.168C61.0142 250.844 62.8965 250.519 64.8438 250.065C63.8053 249.027 63.0264 247.925 62.1176 246.822ZM68.2191 214.712C69.1927 218.864 71.4645 220.875 72.1136 226.324C72.6328 230.735 70.2312 233.329 68.7383 236.897C69.0412 236.551 69.3441 236.227 69.647 235.924C72.1136 232.983 74.7748 230.237 77.6308 227.686C77.3712 223.859 78.2799 220.226 81.2008 218.28C82.499 217.437 83.6673 216.918 84.641 216.658C77.8904 216.593 73.8012 216.723 68.2191 214.712ZM77.5659 125.649C78.7343 127.27 80.7464 129.152 81.071 134.211C81.3306 138.233 80.2921 139.985 79.3184 143.293C81.071 142.709 83.0182 141.866 85.0953 140.698C84.641 135.638 88.3408 132.914 90.0933 131.681C88.3191 130.687 86.5233 129.735 84.7059 128.827C82.3691 127.703 79.9892 126.643 77.5659 125.649ZM48.6166 114.816C49.3306 113.064 49.7201 111.313 50.1095 109.821C49.3306 108.978 48.5517 108.134 47.7079 107.421C45.6308 109.237 43.5321 111.054 41.4118 112.87C43.835 113.519 46.2366 114.167 48.6166 114.816ZM63.4807 119.551C63.4807 119.508 63.4807 119.465 63.4807 119.421C59.8458 118.578 57.0548 116.632 54.6531 114.492C52.9655 114.751 51.0832 114.556 49.0061 114.946C53.8526 116.373 58.6775 117.908 63.4807 119.551ZM79.7728 117.411C75.2941 119.227 72.2434 120.459 66.0771 119.876C65.3414 119.789 64.6491 119.681 64 119.551C63.8702 119.551 63.762 119.573 63.6754 119.616C68.3056 121.216 72.8708 122.946 77.3712 124.806C77.9554 121.562 78.6044 119.097 79.7728 117.411Z" fill="url(#paint0_linear_326_7799)"/>
<path d="M132.738 262.974C134.426 261.157 140.008 258.627 142.085 252.984C144.357 246.627 139.748 242.281 138.06 237.675C135.594 241.243 131.57 243.319 130.271 248.378C128.194 256.487 132.348 259.795 132.738 262.974Z" fill="url(#paint1_linear_326_7799)"/>
<path d="M117.744 242.087C115.732 246.498 110.28 249.222 109.371 254.022C108.333 259.017 109.826 264.401 111.383 268.553C113.525 266.542 120.276 265.309 122.742 257.331C124.43 251.882 119.951 247.795 117.744 242.087Z" fill="url(#paint2_linear_326_7799)"/>
<path d="M145.266 259.99C150.978 260.833 152.6 261.936 157.144 261.936C162.986 262.066 164.349 257.59 170.32 256.617C164.089 251.298 162.077 248.703 156.3 249.157C151.627 249.546 147.018 255.06 145.266 259.99Z" fill="url(#paint3_linear_326_7799)"/>
<path d="M220.3 354.243C215.757 350.351 210.694 352.751 206.41 352.751C208.552 355.93 209.006 359.886 212.771 362.546C218.807 366.762 222.832 364.427 225.558 365.076C224.649 363.13 224.26 357.681 220.3 354.243Z" fill="url(#paint4_linear_326_7799)"/>
<path d="M217.769 371.563C213.809 368.449 209.071 370.914 203.619 370.914C206.669 373.898 207.189 379.282 210.824 381.552C214.653 384.017 219.586 384.471 223.481 384.471C222.507 382.071 223.611 376.103 217.769 371.563Z" fill="url(#paint5_linear_326_7799)"/>
<path d="M221.468 343.41C222.442 347.302 226.142 347.95 226.986 353.594C230.556 350.675 233.347 345.291 232.698 341.204C231.27 332.317 227.245 330.76 221.468 328.814C223.156 335.431 219.716 336.858 221.468 343.41Z" fill="url(#paint6_linear_326_7799)"/>
<path fill-rule="evenodd" clip-rule="evenodd" d="M233.931 357.227C241.201 353.27 243.537 355.994 248.925 355.475C244.965 360.729 245.355 363.454 241.265 367.087C237.371 370.589 233.022 371.433 227.05 370.265C226.596 375.649 225.882 381.033 224.908 386.417C227.635 382.59 229.257 378.633 232.827 376.946C239.253 373.768 243.927 376.168 249.119 377.79C245.939 381.552 244.835 385.704 239.253 388.104C235.229 389.79 231.464 388.493 224.779 387.39C224.476 388.817 224.194 390.244 223.935 391.671C226.272 392.45 228.673 393.163 231.01 394.331C236.203 392.904 239.837 396.082 244.316 397.964C242.564 398.937 240.876 400.688 239.253 402.245C239.967 403.477 240.746 404.904 241.395 406.526C247.172 419.954 241.395 429.23 241.72 439.219C243.278 434.938 244.9 430.657 246.458 426.376C248.016 422.289 249.639 418.202 251.326 414.116C242.239 386.093 258.401 384.341 273.395 376.946C272.746 385.833 272.357 394.785 268.138 400.753C264.308 406.137 261.452 409.51 252.43 414.31C251.002 418.505 249.531 422.678 248.016 426.83C252.43 420.083 254.182 417.424 261.452 414.116C265.412 412.299 271.708 412.689 280.535 413.986C273.201 423.716 271.708 424.365 265.736 428.776C259.375 433.446 254.702 432.992 246.523 431.046C244.576 436.365 242.693 441.62 240.876 446.939C236.332 460.366 233.671 474.248 230.426 488L228.738 487.676C231.075 477.297 233.412 466.918 236.073 456.604C237.631 451.025 239.448 445.512 241.395 440.128C235.164 433.9 222.312 431.76 217.769 423.586C217.163 423.457 216.535 423.327 215.886 423.197C213.636 430.852 211.191 438.419 208.552 445.901L207.578 445.576C210.239 437.987 212.706 430.397 214.977 422.743C210.953 421.575 206.345 422.289 202.58 418.202C201.541 417.035 200.762 415.867 200.178 414.699C197.971 415.997 195.505 417.1 194.012 418.721C194.986 421.186 195.894 423.716 196.738 426.246C198.166 430.981 199.399 435.717 200.633 440.452L199.854 440.711C198.166 434.354 196.673 427.997 194.336 421.835C193.428 419.413 192.476 417.013 191.481 414.635C187.716 415.608 184.081 419.175 178.499 416.97C173.825 415.154 174.41 412.494 171.489 408.796C171.229 408.883 170.991 408.969 170.775 409.056C159.74 413.013 153.379 405.229 150.848 402.115C153.509 400.299 158.312 395.499 166.036 394.007C171.034 392.969 174.539 393.747 177.785 394.72C177.785 391.607 178.564 388.817 178.304 386.093C185.379 389.271 192.714 393.747 188.949 406.85C189.815 408.71 190.637 410.57 191.416 412.429C192.195 414.375 193.038 416.321 193.817 418.267C193.817 413.662 190.961 409.51 193.428 403.153C196.024 396.407 200.113 396.926 203.683 395.045C204.852 400.947 205.955 402.958 205.566 406.85C208.292 407.24 210.564 408.083 211.797 409.834C213.809 412.624 215.562 415.997 215.886 419.694C215.973 419.435 216.059 419.175 216.146 418.916C214.653 412.364 215.042 408.407 216.081 403.088C212.446 402.829 208.292 401.661 206.604 398.353C204.592 394.461 202.385 390.309 200.568 386.806C206.02 386.158 214.718 387.585 217.055 390.828C217.487 391.434 217.855 392.061 218.158 392.709C218.331 391.758 218.504 390.763 218.677 389.725C220.105 390.374 221.533 390.893 222.961 391.347C223.87 386.893 224.649 382.417 225.298 377.919C226.012 372.146 226.466 366.308 226.726 360.47C226.812 358.567 226.856 356.643 226.856 354.697L227.245 354.632C227.505 359.692 227.44 364.751 227.05 369.746C228.998 365.205 228.933 359.951 233.931 357.227ZM190.702 412.689C189.966 410.786 189.209 408.883 188.43 406.98C185.119 405.294 182.199 404.645 180.186 402.18C178.758 403.802 177.33 405.229 175.708 406.396C178.174 405.942 180.511 405.748 183.302 406.591C186.872 407.694 188.56 409.64 190.702 412.689ZM216.6 420.797C216.47 421.229 216.341 421.662 216.211 422.094C216.427 421.878 216.622 421.684 216.795 421.511C216.708 421.251 216.643 421.013 216.6 420.797Z" fill="url(#paint7_linear_326_7799)"/>
<path d="M82.1744 241.503C86.004 241.243 88.3407 239.167 91.9107 236.962C88.5354 235.6 86.9776 233.07 82.0445 232.551C77.6308 232.162 74.2555 233.978 72.5679 234.497C73.4117 236.637 75.5537 241.827 82.1744 241.503Z" fill="url(#paint8_linear_326_7799)"/>
<path fill-rule="evenodd" clip-rule="evenodd" d="M111.773 40.2829C109.501 55.0078 113.655 69.2138 86.4584 70.2517C80.9628 75.8736 75.4023 81.4306 69.7769 86.9227C76.9168 83.6145 81.9148 74.7925 93.2738 74.7925C105.736 74.7925 111.513 82.2523 116.771 86.793C104.308 91.2689 105.282 97.4962 95.4158 98.9233C80.4868 101.064 76.0081 90.8797 68.933 87.766C62.9182 93.6041 56.7951 99.3125 50.5639 104.891C56.2759 101.583 61.6633 98.4044 67.57 98.8584C75.7485 99.4422 79.8377 109.043 85.6795 113.973C88.6653 113.519 91.3265 114.492 93.5984 115.4C90.0933 117.994 91.6511 120.005 86.3286 123.443C83.927 125 81.2657 124.416 77.8255 125C81.0061 126.297 84.1866 127.725 87.2373 129.346C88.9249 125.324 92.3002 122.211 95.8702 121.238C99.57 120.33 103.205 121.368 107.554 124.416C103.854 126.103 102.556 128.633 97.6227 130.319C93.7282 131.682 90.8722 129.995 87.3022 129.411C90.8722 131.227 94.2474 133.303 97.4929 135.638C100.933 134.601 105.022 134.082 107.684 135.898C113.525 139.92 112.162 142.32 115.667 146.342C107.619 145.952 99.9594 147.898 97.2981 135.963C96.6923 135.574 96.0865 135.184 95.4807 134.795C93.7931 133.801 92.1055 132.827 90.4178 131.876C91.4564 133.498 93.7282 136.352 94.2474 140.503C94.8316 145.498 92.6896 147.639 92.0405 151.272C89.0547 148.158 86.5233 146.342 85.4848 142.579C85.3982 142.363 85.3333 142.147 85.29 141.931C84.576 151.79 85.6146 159.51 80.357 168.137C76.1379 175.013 71.1399 177.478 63.6105 180.332C67.9811 179.77 72.3732 179.23 76.787 178.711C83.4077 170.991 86.4584 163.791 96.9087 162.364C109.241 160.613 117.095 167.489 125.923 168.786C115.473 181.759 102.166 194.733 76.7221 179.813C72.3732 180.592 68.0243 181.305 63.6754 181.954C59.1967 182.538 54.6531 183.186 50.1095 183.77C59.8458 186.235 70.1014 182.603 81.9797 191.165C94.7018 200.247 91.5213 208.42 93.5335 216.983C91.6511 216.853 89.9635 216.788 88.3408 216.723C89.9635 217.112 91.5213 217.761 93.4685 217.696C88.3408 222.107 91.0669 227.88 77.9554 227.88C73.2819 232.681 68.8681 237.611 64.9087 242.995C64.1298 244.076 63.3293 245.157 62.5071 246.238C64.5193 245.46 66.9858 243.708 72.4381 244.551C77.6308 245.33 78.8641 247.406 84.1217 249.741C82.1095 250.973 80.2921 252.076 78.4746 252.854C80.6815 257.849 81.9797 263.168 79.8377 266.412C77.6957 269.655 74.8397 272.899 71.075 274.715C77.5659 274.196 84.1217 273.547 90.6126 272.704C88.4706 269.201 85.8093 260.768 89.8336 256.292C93.2089 252.595 96.714 248.638 99.6998 245.265C102.556 250.779 104.568 260.574 102.101 264.336C99.6349 267.969 94.9614 270.369 91.5213 272.574C100.738 271.407 109.955 269.85 119.043 267.839C125.469 266.282 131.765 264.336 138.061 262.325C140.138 261.633 142.215 260.898 144.292 260.12L144.422 260.509C139.229 262.844 133.842 264.79 128.389 266.412C133.972 266.671 138.905 265.244 144.422 268.617C151.562 273.028 151.627 276.726 154.288 282.175C147.213 280.099 142.475 283.213 136.957 280.358C131.635 277.634 129.039 273.418 127.87 266.606C121.963 268.293 115.927 269.72 109.89 270.823C115.083 272.185 119.821 272.315 123.132 275.364C129.039 280.877 128.389 286.845 128.779 292.943C123.456 291.126 118.653 291.581 113.915 286.651C110.475 283.083 110.345 278.607 108.787 271.082C103.594 271.99 98.4016 272.769 93.144 273.482C92.6247 273.526 92.1055 273.591 91.5862 273.677C95.8702 275.104 98.7911 275.039 102.556 278.802C108.008 284.25 105.671 289.894 105.477 295.992C101.972 293.072 95.6105 291.71 93.3387 288.661C90.1582 284.51 88.9249 279.969 89.4442 273.936C82.5206 274.758 75.597 275.45 68.6734 276.012C73.4767 278.153 76.073 277.958 79.2535 283.083C79.5132 283.559 79.7728 283.991 80.0324 284.38C82.0446 283.732 84.3164 282.823 86.9128 281.267C86.4584 286.715 87.7566 292.554 87.2373 298.002C88.3407 300.597 89.3793 303.257 90.4827 305.592C88.9249 304.943 87.2373 304.489 85.5497 304.23C85.117 305.051 84.6193 305.851 84.0568 306.63C80.0973 311.884 75.6836 312.792 69.4523 314.868C77.8904 313.7 86.3286 312.403 94.7018 311.235C94.7018 311.235 98.856 310.716 102.036 310.262C107.359 304.1 109.955 299.3 118.199 297.159C127.87 294.564 130.986 301.44 140.008 300.986C129.558 311.819 124.625 326.025 101.582 311.041C95.7403 312.165 89.8553 313.203 83.927 314.154C82.8019 314.327 81.6552 314.5 80.4868 314.673C87.7566 314.673 96.0649 313.181 104.698 319.279C105.65 319.928 106.515 320.598 107.294 321.29C108.809 320.641 110.302 319.971 111.773 319.279C111.124 320.901 110.54 322.587 110.15 324.274C115.213 330.371 115.667 337.053 116.965 342.372C113.525 341.399 110.669 341.139 108.203 341.075C107.943 344.448 107.554 347.821 106.775 351.129C108.008 348.015 109.826 344.967 111.838 341.529C116.057 350.545 119.692 352.556 121.314 361.573C123.002 370.849 120.146 375.195 118.783 378.633C122.677 375.736 126.507 372.752 130.272 369.681C133.171 367.216 135.984 364.708 138.71 362.157C134.556 360.535 125.209 356.578 125.533 344.577C125.728 337.247 129.493 332.836 133.517 325.96C136.243 332.253 141.112 335.107 142.28 344.383C143.189 352.102 140.398 358.265 139.294 361.638C141.89 359.173 144.465 356.664 147.018 354.113C147.97 353.162 148.922 352.21 149.874 351.259C149.355 328.425 164.024 328.555 178.369 324.274C173.89 333.096 177.395 336.793 168.633 346.653C164.608 351.129 157.014 352.037 150.329 351.713C145.46 357.356 140.268 362.546 134.75 367.476C140.852 364.816 145.266 360.6 152.86 361.248C158.183 361.703 161.623 363.065 164.868 364.492C169.282 363.065 173.306 364.492 178.045 362.87C171.489 372.925 179.083 381.422 156.755 388.039C151.237 398.483 146.174 409.251 142.085 420.343C141.306 422.592 140.527 424.862 139.748 427.154C142.669 424.754 145.98 420.538 155.716 419.175C164.998 417.878 168.114 420.862 178.304 422.094C172.138 428.841 167.789 434.354 158.767 434.744C147.797 435.263 143.903 431.435 139.359 428.322C134.75 441.749 130.531 455.436 127.546 469.318C127.156 471.264 126.767 473.275 126.572 475.156L125.209 475.027C125.469 472.951 125.858 471.005 126.247 469.059C129.298 454.982 133.647 441.166 138.256 427.543C128.909 426.57 122.937 425.143 119.692 420.278C118.264 418.202 117.355 416.062 116.771 414.051C113.396 413.921 110.215 413.662 108.073 412.429C106.126 411.262 104.438 409.964 102.945 408.472C100.349 410.548 97.3631 412.17 93.2738 413.078C97.5578 417.748 97.2982 424.105 99.6349 430.203C94.1176 428.516 88.6004 428.192 84.0568 426.895C77.5659 425.013 76.4625 418.008 71.5294 411.262C71.3996 411.218 71.2481 411.175 71.075 411.132C65.7958 414.159 60.4516 417.121 55.0426 420.019C51.7322 428.711 48.5517 437.403 45.6957 446.225L44.4625 445.836C47.3617 436.971 50.4773 428.192 53.8093 419.5C53.7444 419.37 53.7444 419.305 53.7444 419.305C53.7877 419.262 53.8526 419.219 53.9391 419.175C55.7999 414.332 57.7471 409.51 59.7809 404.71C59.8675 404.45 59.9756 404.191 60.1055 403.931C52.3813 399.91 40.8276 405.553 30.5071 391.931C22.069 380.774 24.3408 368.708 19.0183 355.021C29.4686 360.794 44.3976 356.902 54.7829 371.562C63.8702 384.406 60.3651 396.666 60.3651 403.283C61.0575 401.639 61.7498 399.996 62.4422 398.353C61.7282 396.277 61.5335 394.136 62.1176 391.931C63.7403 385.963 65.5578 382.266 66.9858 376.946C68.219 377.79 69.3874 378.763 70.4909 379.866C71.5727 377.574 72.6761 375.282 73.8012 372.99C68.4138 361.767 68.0892 353.27 70.8803 346.588C64.714 345.161 61.2738 344.837 55.6917 340.102C48.357 333.745 49.3306 325.312 47.8377 319.084C37.7769 320.252 27.716 321.095 17.5903 321.485L17.5254 320.057C33.7525 319.474 49.8499 317.592 65.9472 315.387C65.8823 310.522 63.4807 305.203 64.1947 299.494C57.3793 294.694 58.4178 289.505 57.7038 282.758C55.3022 281.721 52.8357 280.618 50.4341 279.58C48.7464 278.845 47.0372 278.088 45.3063 277.31C45.1332 277.353 44.9601 277.374 44.787 277.374C49.9797 281.331 55.6268 286.261 56.7951 292.943C58.288 301.051 54.004 308.446 51.8621 313.506C47.4483 305.787 41.2819 304.619 39.9838 296.121C38.5558 286.715 42.1258 282.694 44.4625 277.374C43.0777 277.418 41.693 277.461 40.3083 277.504V276.337C41.1738 276.337 42.0176 276.315 42.8397 276.272C33.0385 272.055 23.1724 268.098 13.0466 264.79L13.3063 264.012C21.8093 266.866 30.1825 269.98 38.426 273.547C38.599 273.591 38.7505 273.655 38.8803 273.742C41.3468 269.007 37.9716 261.936 46.3448 255.709C50.1095 252.919 54.004 252.076 58.0933 251.363C59.2616 249.633 60.4516 247.924 61.6633 246.238C56.7951 244.227 53.8093 242.54 52.8357 239.362C51.0832 233.913 53.4848 230.151 55.4969 227.102C57.4442 231.383 59.9107 230.151 62.3124 236.508C63.3509 239.427 62.1825 242.086 61.9878 245.784C62.4205 245.178 62.8533 244.551 63.286 243.903C65.0385 241.503 66.856 239.167 68.7383 236.962C64.9087 234.302 62.3773 230.021 62.1825 226.064C62.0527 221.977 63.9351 218.539 68.0243 214.647C66.5314 214.064 64.8438 213.415 63.0264 212.442C52.9655 207.447 54.4584 192.268 49.2008 183.9C43.4888 184.614 37.712 185.262 31.9351 185.522C21.2901 185.911 10.645 185.976 0 185.976L0 184.224C14.1501 184.095 28.3002 184.484 42.3854 182.992C47.9675 182.278 53.5497 181.63 59.1318 180.916C59.002 172.483 53.5497 162.948 61.2089 152.439C66.2718 145.498 70.6207 145.758 76.9168 144.071C74.5152 141.412 72.6978 139.076 72.8276 135.249C72.9574 129.476 75.0994 127.595 76.9168 125.389C72.8492 123.66 68.7383 122.081 64.5842 120.654C66.4016 122.47 68.6734 124.481 69.647 126.946C70.6856 129.735 67.9594 135.833 65.2333 138.882C63.8053 136.287 62.1176 133.238 60.5598 130.319C58.6775 127.011 61.2738 122.276 63.1562 120.135C58.6558 118.621 54.0906 117.194 49.4604 115.854C51.927 117.346 53.5497 119.421 54.4584 121.822C55.5619 124.611 53.4199 130.06 50.6937 133.173C49.2657 130.579 47.8377 128.892 46.215 125.973C44.3326 122.47 46.9939 118.384 47.9026 115.4C45.5226 114.708 43.1427 114.059 40.7627 113.454C35.5051 117.93 30.1176 122.341 24.6653 126.622L23.8215 125.519C29.0142 121.454 34.142 117.281 39.2049 113C38.902 112.913 38.6207 112.827 38.361 112.74L38.4909 112.091C38.9236 112.221 39.3779 112.329 39.8539 112.416C45.739 107.443 51.4942 102.296 57.1197 96.9773C58.1149 96.0259 59.1318 95.0528 60.1704 94.0582C56.2109 88.6093 47.8377 85.0416 47.9026 74.6628C47.9675 65.0623 53.355 64.1542 57.6389 54.6186C61.9229 61.8838 70.1014 67.4624 69.8418 76.7385C69.5821 83.1604 66.6612 86.4038 62.8316 91.5283C70.4259 84.328 79.2535 76.025 86.3935 69.3436C87.1075 61.3649 86.5882 56.0457 91.9756 49.6238C98.3367 42.0343 104.698 45.7966 111.773 40.2829ZM77.4361 389.336C80.1623 387.715 83.0831 386.482 86.1988 385.898C86.5449 385.855 86.8695 385.812 87.1724 385.768C85.8742 383.174 85.2251 380.384 86.004 377.66C86.5233 375.779 87.0426 373.833 87.5618 371.887C83.6024 372.535 79.3833 372.6 74.7099 373.119C73.5848 375.671 72.4814 378.222 71.3996 380.774C73.8661 383.368 76.073 386.417 77.4361 389.336ZM60.6247 406.072C61.7065 404.645 62.8533 403.218 64.0649 401.791C63.7187 401.185 63.4158 400.602 63.1562 400.039C60.6031 406.05 58.1366 412.083 55.7566 418.137C60.3867 415.629 64.9953 413.056 69.5821 410.418C66.5963 409.056 63.7404 407.434 60.6247 406.072ZM145.59 408.148C138.45 405.748 132.479 400.623 129.753 394.72C125.079 392.709 122.223 387.779 118.848 380.19C115.04 383.001 111.167 385.747 107.229 388.428C112.032 390.179 116.381 392.32 120.016 393.747C118.264 394.785 116.771 395.823 115.343 396.926C116.338 397.401 117.203 397.942 117.939 398.547C117.982 398.374 118.026 398.201 118.069 398.028C123.521 404.386 127.156 401.012 134.426 410.678C137.671 415.024 137.022 420.213 138.515 426.635C138.948 425.338 139.402 424.04 139.878 422.743C141.566 417.813 143.513 412.948 145.59 408.148ZM119.562 379.671C123.327 379.347 126.507 378.503 129.493 378.179C130.402 375.649 131.7 372.99 133.322 370.2C136.049 375.065 139.424 377.595 142.54 382.071C146.434 384.925 146.953 387.779 152.276 389.985C150.718 391.088 149.095 392.255 147.278 393.228C147.862 398.288 146.109 402.829 145.655 408.083C145.958 407.348 146.283 406.613 146.629 405.877C149.355 399.65 152.535 393.617 156.105 387.844C154.937 384.666 154.288 381.422 154.353 378.374C154.18 378.374 153.985 378.374 153.769 378.374C146.888 378.309 139.424 374.092 134.621 367.606C129.817 371.887 124.755 375.909 119.562 379.671ZM105.542 355.346C104.698 357.681 103.594 359.951 102.101 362.157C100.738 364.168 99.3752 365.724 97.9472 367.022C101.582 371.368 104.308 376.363 103.919 379.736C103.594 382.136 102.686 384.406 101.582 386.677C103.01 387.023 104.416 387.433 105.801 387.909C109.826 385.141 113.807 382.309 117.744 379.411C113.525 376.103 108.787 373.703 105.996 363.389C105.152 360.47 105.087 357.875 105.542 355.346ZM77.3712 315.128C68.8032 316.425 60.2353 317.657 51.6024 318.63C58.288 319.344 64.6491 319.798 69.2576 323.625C74.0608 327.517 73.9959 334.263 74.5152 340.556C76.8519 337.766 79.7728 335.301 83.0831 333.096C78.9939 326.933 80.1623 319.928 77.3712 315.128ZM67.3103 276.142C60.6031 276.661 53.8742 277.029 47.1237 277.245C50.7586 278.866 54.2637 280.488 57.7687 282.24C61.5984 280.423 64.9087 279.58 67.8296 279.45C67.6998 278.412 67.5267 277.31 67.3103 276.142ZM67.6349 252.011C65.8823 257.979 66.3367 265.309 58.7424 270.628C50.8235 276.142 43.2941 273.936 39.2698 273.872C41.0872 274.65 42.883 275.428 44.6572 276.207C52.2515 275.947 59.9107 275.558 67.5051 274.974C67.0507 270.239 64.4543 265.633 67.2454 260.055C68.8032 257.071 70.6856 255.19 72.5679 253.633C72.2218 253.59 71.8972 253.525 71.5943 253.438C69.9716 253.049 68.7383 252.53 67.6349 252.011ZM62.1176 246.822C61.1224 248.249 60.1271 249.698 59.1318 251.168C61.0142 250.844 62.8965 250.519 64.8438 250.065C63.8053 249.027 63.0264 247.925 62.1176 246.822ZM68.2191 214.712C69.1927 218.864 71.4645 220.875 72.1136 226.324C72.6328 230.735 70.2312 233.329 68.7383 236.897C69.0412 236.551 69.3441 236.227 69.647 235.924C72.1136 232.983 74.7748 230.237 77.6308 227.686C77.3712 223.859 78.2799 220.226 81.2008 218.28C82.499 217.437 83.6673 216.918 84.641 216.658C77.8904 216.593 73.8012 216.723 68.2191 214.712ZM77.5659 125.649C78.7343 127.27 80.7464 129.152 81.071 134.211C81.3306 138.233 80.2921 139.985 79.3184 143.293C81.071 142.709 83.0182 141.866 85.0953 140.698C84.641 135.638 88.3408 132.914 90.0933 131.681C88.3191 130.687 86.5233 129.735 84.7059 128.827C82.3691 127.703 79.9892 126.643 77.5659 125.649ZM48.6166 114.816C49.3306 113.064 49.7201 111.313 50.1095 109.821C49.3306 108.978 48.5517 108.134 47.7079 107.421C45.6308 109.237 43.5321 111.054 41.4118 112.87C43.835 113.519 46.2366 114.167 48.6166 114.816ZM63.4807 119.551C63.4807 119.508 63.4807 119.465 63.4807 119.421C59.8458 118.578 57.0548 116.632 54.6531 114.492C52.9655 114.751 51.0832 114.556 49.0061 114.946C53.8526 116.373 58.6775 117.908 63.4807 119.551ZM79.7728 117.411C75.2941 119.227 72.2434 120.459 66.0771 119.876C65.3414 119.789 64.6491 119.681 64 119.551C63.8702 119.551 63.762 119.573 63.6754 119.616C68.3056 121.216 72.8708 122.946 77.3712 124.806C77.9554 121.562 78.6044 119.097 79.7728 117.411Z" fill="url(#paint9_linear_326_7799)"/>
<path d="M132.738 262.974C134.426 261.157 140.008 258.627 142.085 252.984C144.357 246.627 139.748 242.281 138.06 237.675C135.594 241.243 131.57 243.319 130.271 248.378C128.194 256.487 132.348 259.795 132.738 262.974Z" fill="url(#paint10_linear_326_7799)"/>
<path d="M117.744 242.087C115.732 246.498 110.28 249.222 109.371 254.022C108.333 259.017 109.826 264.401 111.383 268.553C113.525 266.542 120.276 265.309 122.742 257.331C124.43 251.882 119.951 247.795 117.744 242.087Z" fill="url(#paint11_linear_326_7799)"/>
<path d="M145.266 259.99C150.978 260.833 152.6 261.936 157.144 261.936C162.986 262.066 164.349 257.59 170.32 256.617C164.089 251.298 162.077 248.703 156.3 249.157C151.627 249.546 147.018 255.06 145.266 259.99Z" fill="url(#paint12_linear_326_7799)"/>
<path d="M220.3 354.243C215.757 350.351 210.694 352.751 206.41 352.751C208.552 355.93 209.006 359.886 212.771 362.546C218.807 366.762 222.832 364.427 225.558 365.076C224.649 363.13 224.26 357.681 220.3 354.243Z" fill="url(#paint13_linear_326_7799)"/>
<path d="M217.769 371.563C213.809 368.449 209.071 370.914 203.619 370.914C206.669 373.898 207.189 379.282 210.824 381.552C214.653 384.017 219.586 384.471 223.481 384.471C222.507 382.071 223.611 376.103 217.769 371.563Z" fill="url(#paint14_linear_326_7799)"/>
<path d="M221.468 343.41C222.442 347.302 226.142 347.95 226.986 353.594C230.556 350.675 233.347 345.291 232.698 341.204C231.27 332.317 227.245 330.76 221.468 328.814C223.156 335.431 219.716 336.858 221.468 343.41Z" fill="url(#paint15_linear_326_7799)"/>
<path fill-rule="evenodd" clip-rule="evenodd" d="M233.931 357.227C241.201 353.27 243.537 355.994 248.925 355.475C244.965 360.729 245.355 363.454 241.265 367.087C237.371 370.589 233.022 371.433 227.05 370.265C226.596 375.649 225.882 381.033 224.908 386.417C227.635 382.59 229.257 378.633 232.827 376.946C239.253 373.768 243.927 376.168 249.119 377.79C245.939 381.552 244.835 385.704 239.253 388.104C235.229 389.79 231.464 388.493 224.779 387.39C224.476 388.817 224.194 390.244 223.935 391.671C226.272 392.45 228.673 393.163 231.01 394.331C236.203 392.904 239.837 396.082 244.316 397.964C242.564 398.937 240.876 400.688 239.253 402.245C239.967 403.477 240.746 404.904 241.395 406.526C247.172 419.954 241.395 429.23 241.72 439.219C243.278 434.938 244.9 430.657 246.458 426.376C248.016 422.289 249.639 418.202 251.326 414.116C242.239 386.093 258.401 384.341 273.395 376.946C272.746 385.833 272.357 394.785 268.138 400.753C264.308 406.137 261.452 409.51 252.43 414.31C251.002 418.505 249.531 422.678 248.016 426.83C252.43 420.083 254.182 417.424 261.452 414.116C265.412 412.299 271.708 412.689 280.535 413.986C273.201 423.716 271.708 424.365 265.736 428.776C259.375 433.446 254.702 432.992 246.523 431.046C244.576 436.365 242.693 441.62 240.876 446.939C236.332 460.366 233.671 474.248 230.426 488L228.738 487.676C231.075 477.297 233.412 466.918 236.073 456.604C237.631 451.025 239.448 445.512 241.395 440.128C235.164 433.9 222.312 431.76 217.769 423.586C217.163 423.457 216.535 423.327 215.886 423.197C213.636 430.852 211.191 438.419 208.552 445.901L207.578 445.576C210.239 437.987 212.706 430.397 214.977 422.743C210.953 421.575 206.345 422.289 202.58 418.202C201.541 417.035 200.762 415.867 200.178 414.699C197.971 415.997 195.505 417.1 194.012 418.721C194.986 421.186 195.894 423.716 196.738 426.246C198.166 430.981 199.399 435.717 200.633 440.452L199.854 440.711C198.166 434.354 196.673 427.997 194.336 421.835C193.428 419.413 192.476 417.013 191.481 414.635C187.716 415.608 184.081 419.175 178.499 416.97C173.825 415.154 174.41 412.494 171.489 408.796C171.229 408.883 170.991 408.969 170.775 409.056C159.74 413.013 153.379 405.229 150.848 402.115C153.509 400.299 158.312 395.499 166.036 394.007C171.034 392.969 174.539 393.747 177.785 394.72C177.785 391.607 178.564 388.817 178.304 386.093C185.379 389.271 192.714 393.747 188.949 406.85C189.815 408.71 190.637 410.57 191.416 412.429C192.195 414.375 193.038 416.321 193.817 418.267C193.817 413.662 190.961 409.51 193.428 403.153C196.024 396.407 200.113 396.926 203.683 395.045C204.852 400.947 205.955 402.958 205.566 406.85C208.292 407.24 210.564 408.083 211.797 409.834C213.809 412.624 215.562 415.997 215.886 419.694C215.973 419.435 216.059 419.175 216.146 418.916C214.653 412.364 215.042 408.407 216.081 403.088C212.446 402.829 208.292 401.661 206.604 398.353C204.592 394.461 202.385 390.309 200.568 386.806C206.02 386.158 214.718 387.585 217.055 390.828C217.487 391.434 217.855 392.061 218.158 392.709C218.331 391.758 218.504 390.763 218.677 389.725C220.105 390.374 221.533 390.893 222.961 391.347C223.87 386.893 224.649 382.417 225.298 377.919C226.012 372.146 226.466 366.308 226.726 360.47C226.812 358.567 226.856 356.643 226.856 354.697L227.245 354.632C227.505 359.692 227.44 364.751 227.05 369.746C228.998 365.205 228.933 359.951 233.931 357.227ZM190.702 412.689C189.966 410.786 189.209 408.883 188.43 406.98C185.119 405.294 182.199 404.645 180.186 402.18C178.758 403.802 177.33 405.229 175.708 406.396C178.174 405.942 180.511 405.748 183.302 406.591C186.872 407.694 188.56 409.64 190.702 412.689ZM216.6 420.797C216.47 421.229 216.341 421.662 216.211 422.094C216.427 421.878 216.622 421.684 216.795 421.511C216.708 421.251 216.643 421.013 216.6 420.797Z" fill="url(#paint16_linear_326_7799)"/>
<path d="M82.1744 241.503C86.004 241.243 88.3407 239.167 91.9107 236.962C88.5354 235.6 86.9776 233.07 82.0445 232.551C77.6308 232.162 74.2555 233.978 72.5679 234.497C73.4117 236.637 75.5537 241.827 82.1744 241.503Z" fill="url(#paint17_linear_326_7799)"/>
<g style="mix-blend-mode:color-dodge" opacity="0.63">
<path fill-rule="evenodd" clip-rule="evenodd" d="M111.773 40.2829C109.501 55.0078 113.655 69.2138 86.4584 70.2517C80.9628 75.8736 75.4023 81.4306 69.7769 86.9227C76.9168 83.6145 81.9148 74.7925 93.2738 74.7925C105.736 74.7925 111.513 82.2523 116.771 86.793C104.308 91.2689 105.282 97.4962 95.4158 98.9233C80.4868 101.064 76.0081 90.8797 68.933 87.766C62.9182 93.6041 56.7951 99.3125 50.5639 104.891C56.2759 101.583 61.6633 98.4044 67.57 98.8584C75.7485 99.4422 79.8377 109.043 85.6795 113.973C88.6653 113.519 91.3265 114.492 93.5984 115.4C90.0933 117.994 91.6511 120.005 86.3286 123.443C83.927 125 81.2657 124.416 77.8255 125C81.0061 126.297 84.1866 127.725 87.2373 129.346C88.9249 125.324 92.3002 122.211 95.8702 121.238C99.57 120.33 103.205 121.368 107.554 124.416C103.854 126.103 102.556 128.633 97.6227 130.319C93.7282 131.682 90.8722 129.995 87.3022 129.411C90.8722 131.227 94.2474 133.303 97.4929 135.638C100.933 134.601 105.022 134.082 107.684 135.898C113.525 139.92 112.162 142.32 115.667 146.342C107.619 145.952 99.9594 147.898 97.2981 135.963C96.6923 135.574 96.0865 135.184 95.4807 134.795C93.7931 133.801 92.1055 132.827 90.4178 131.876C91.4564 133.498 93.7282 136.352 94.2474 140.503C94.8316 145.498 92.6896 147.639 92.0405 151.272C89.0547 148.158 86.5233 146.342 85.4848 142.579C85.3982 142.363 85.3333 142.147 85.29 141.931C84.576 151.79 85.6146 159.51 80.357 168.137C76.1379 175.013 71.1399 177.478 63.6105 180.332C67.9811 179.77 72.3732 179.23 76.787 178.711C83.4077 170.991 86.4584 163.791 96.9087 162.364C109.241 160.613 117.095 167.489 125.923 168.786C115.473 181.759 102.166 194.733 76.7221 179.813C72.3732 180.592 68.0243 181.305 63.6754 181.954C59.1967 182.538 54.6531 183.186 50.1095 183.77C59.8458 186.235 70.1014 182.603 81.9797 191.165C94.7018 200.247 91.5213 208.42 93.5335 216.983C91.6511 216.853 89.9635 216.788 88.3408 216.723C89.9635 217.112 91.5213 217.761 93.4685 217.696C88.3408 222.107 91.0669 227.88 77.9554 227.88C73.2819 232.681 68.8681 237.611 64.9087 242.995C64.1298 244.076 63.3293 245.157 62.5071 246.238C64.5193 245.46 66.9858 243.708 72.4381 244.551C77.6308 245.33 78.8641 247.406 84.1217 249.741C82.1095 250.973 80.2921 252.076 78.4746 252.854C80.6815 257.849 81.9797 263.168 79.8377 266.412C77.6957 269.655 74.8397 272.899 71.075 274.715C77.5659 274.196 84.1217 273.547 90.6126 272.704C88.4706 269.201 85.8093 260.768 89.8336 256.292C93.2089 252.595 96.714 248.638 99.6998 245.265C102.556 250.779 104.568 260.574 102.101 264.336C99.6349 267.969 94.9614 270.369 91.5213 272.574C100.738 271.407 109.955 269.85 119.043 267.839C125.469 266.282 131.765 264.336 138.061 262.325C140.138 261.633 142.215 260.898 144.292 260.12L144.422 260.509C139.229 262.844 133.842 264.79 128.389 266.412C133.972 266.671 138.905 265.244 144.422 268.617C151.562 273.028 151.627 276.726 154.288 282.175C147.213 280.099 142.475 283.213 136.957 280.358C131.635 277.634 129.039 273.418 127.87 266.606C121.963 268.293 115.927 269.72 109.89 270.823C115.083 272.185 119.821 272.315 123.132 275.364C129.039 280.877 128.389 286.845 128.779 292.943C123.456 291.126 118.653 291.581 113.915 286.651C110.475 283.083 110.345 278.607 108.787 271.082C103.594 271.99 98.4016 272.769 93.144 273.482C92.6247 273.526 92.1055 273.591 91.5862 273.677C95.8702 275.104 98.7911 275.039 102.556 278.802C108.008 284.25 105.671 289.894 105.477 295.992C101.972 293.072 95.6105 291.71 93.3387 288.661C90.1582 284.51 88.9249 279.969 89.4442 273.936C82.5206 274.758 75.597 275.45 68.6734 276.012C73.4767 278.153 76.073 277.958 79.2535 283.083C79.5132 283.559 79.7728 283.991 80.0324 284.38C82.0446 283.732 84.3164 282.823 86.9128 281.267C86.4584 286.715 87.7566 292.554 87.2373 298.002C88.3407 300.597 89.3793 303.257 90.4827 305.592C88.9249 304.943 87.2373 304.489 85.5497 304.23C85.117 305.051 84.6193 305.851 84.0568 306.63C80.0973 311.884 75.6836 312.792 69.4523 314.868C77.8904 313.7 86.3286 312.403 94.7018 311.235C94.7018 311.235 98.856 310.716 102.036 310.262C107.359 304.1 109.955 299.3 118.199 297.159C127.87 294.564 130.986 301.44 140.008 300.986C129.558 311.819 124.625 326.025 101.582 311.041C95.7403 312.165 89.8553 313.203 83.927 314.154C82.8019 314.327 81.6552 314.5 80.4868 314.673C87.7566 314.673 96.0649 313.181 104.698 319.279C105.65 319.928 106.515 320.598 107.294 321.29C108.809 320.641 110.302 319.971 111.773 319.279C111.124 320.901 110.54 322.587 110.15 324.274C115.213 330.371 115.667 337.053 116.965 342.372C113.525 341.399 110.669 341.139 108.203 341.075C107.943 344.448 107.554 347.821 106.775 351.129C108.008 348.015 109.826 344.967 111.838 341.529C116.057 350.545 119.692 352.556 121.314 361.573C123.002 370.849 120.146 375.195 118.783 378.633C122.677 375.736 126.507 372.752 130.272 369.681C133.171 367.216 135.984 364.708 138.71 362.157C134.556 360.535 125.209 356.578 125.533 344.577C125.728 337.247 129.493 332.836 133.517 325.96C136.243 332.253 141.112 335.107 142.28 344.383C143.189 352.102 140.398 358.265 139.294 361.638C141.89 359.173 144.465 356.664 147.018 354.113C147.97 353.162 148.922 352.21 149.874 351.259C149.355 328.425 164.024 328.555 178.369 324.274C173.89 333.096 177.395 336.793 168.633 346.653C164.608 351.129 157.014 352.037 150.329 351.713C145.46 357.356 140.268 362.546 134.75 367.476C140.852 364.816 145.266 360.6 152.86 361.248C158.183 361.703 161.623 363.065 164.868 364.492C169.282 363.065 173.306 364.492 178.045 362.87C171.489 372.925 179.083 381.422 156.755 388.039C151.237 398.483 146.174 409.251 142.085 420.343C141.306 422.592 140.527 424.862 139.748 427.154C142.669 424.754 145.98 420.538 155.716 419.175C164.998 417.878 168.114 420.862 178.304 422.094C172.138 428.841 167.789 434.354 158.767 434.744C147.797 435.263 143.903 431.435 139.359 428.322C134.75 441.749 130.531 455.436 127.546 469.318C127.156 471.264 126.767 473.275 126.572 475.156L125.209 475.027C125.469 472.951 125.858 471.005 126.247 469.059C129.298 454.982 133.647 441.166 138.256 427.543C128.909 426.57 122.937 425.143 119.692 420.278C118.264 418.202 117.355 416.062 116.771 414.051C113.396 413.921 110.215 413.662 108.073 412.429C106.126 411.262 104.438 409.964 102.945 408.472C100.349 410.548 97.3631 412.17 93.2738 413.078C97.5578 417.748 97.2982 424.105 99.6349 430.203C94.1176 428.516 88.6004 428.192 84.0568 426.895C77.5659 425.013 76.4625 418.008 71.5294 411.262C71.3996 411.218 71.2481 411.175 71.075 411.132C65.7958 414.159 60.4516 417.121 55.0426 420.019C51.7322 428.711 48.5517 437.403 45.6957 446.225L44.4625 445.836C47.3617 436.971 50.4773 428.192 53.8093 419.5C53.7444 419.37 53.7444 419.305 53.7444 419.305C53.7877 419.262 53.8526 419.219 53.9391 419.175C55.7999 414.332 57.7471 409.51 59.7809 404.71C59.8675 404.45 59.9756 404.191 60.1055 403.931C52.3813 399.91 40.8276 405.553 30.5071 391.931C22.069 380.774 24.3408 368.708 19.0183 355.021C29.4686 360.794 44.3976 356.902 54.7829 371.562C63.8702 384.406 60.3651 396.666 60.3651 403.283C61.0575 401.639 61.7498 399.996 62.4422 398.353C61.7282 396.277 61.5335 394.136 62.1176 391.931C63.7403 385.963 65.5578 382.266 66.9858 376.946C68.219 377.79 69.3874 378.763 70.4909 379.866C71.5727 377.574 72.6761 375.282 73.8012 372.99C68.4138 361.767 68.0892 353.27 70.8803 346.588C64.714 345.161 61.2738 344.837 55.6917 340.102C48.357 333.745 49.3306 325.312 47.8377 319.084C37.7769 320.252 27.716 321.095 17.5903 321.485L17.5254 320.057C33.7525 319.474 49.8499 317.592 65.9472 315.387C65.8823 310.522 63.4807 305.203 64.1947 299.494C57.3793 294.694 58.4178 289.505 57.7038 282.758C55.3022 281.721 52.8357 280.618 50.4341 279.58C48.7464 278.845 47.0372 278.088 45.3063 277.31C45.1332 277.353 44.9601 277.374 44.787 277.374C49.9797 281.331 55.6268 286.261 56.7951 292.943C58.288 301.051 54.004 308.446 51.8621 313.506C47.4483 305.787 41.2819 304.619 39.9838 296.121C38.5558 286.715 42.1258 282.694 44.4625 277.374C43.0777 277.418 41.693 277.461 40.3083 277.504V276.337C41.1738 276.337 42.0176 276.315 42.8397 276.272C33.0385 272.055 23.1724 268.098 13.0466 264.79L13.3063 264.012C21.8093 266.866 30.1825 269.98 38.426 273.547C38.599 273.591 38.7505 273.655 38.8803 273.742C41.3468 269.007 37.9716 261.936 46.3448 255.709C50.1095 252.919 54.004 252.076 58.0933 251.363C59.2616 249.633 60.4516 247.924 61.6633 246.238C56.7951 244.227 53.8093 242.54 52.8357 239.362C51.0832 233.913 53.4848 230.151 55.4969 227.102C57.4442 231.383 59.9107 230.151 62.3124 236.508C63.3509 239.427 62.1825 242.086 61.9878 245.784C62.4205 245.178 62.8533 244.551 63.286 243.903C65.0385 241.503 66.856 239.167 68.7383 236.962C64.9087 234.302 62.3773 230.021 62.1825 226.064C62.0527 221.977 63.9351 218.539 68.0243 214.647C66.5314 214.064 64.8438 213.415 63.0264 212.442C52.9655 207.447 54.4584 192.268 49.2008 183.9C43.4888 184.614 37.712 185.262 31.9351 185.522C21.2901 185.911 10.645 185.976 0 185.976L0 184.224C14.1501 184.095 28.3002 184.484 42.3854 182.992C47.9675 182.278 53.5497 181.63 59.1318 180.916C59.002 172.483 53.5497 162.948 61.2089 152.439C66.2718 145.498 70.6207 145.758 76.9168 144.071C74.5152 141.412 72.6978 139.076 72.8276 135.249C72.9574 129.476 75.0994 127.595 76.9168 125.389C72.8492 123.66 68.7383 122.081 64.5842 120.654C66.4016 122.47 68.6734 124.481 69.647 126.946C70.6856 129.735 67.9594 135.833 65.2333 138.882C63.8053 136.287 62.1176 133.238 60.5598 130.319C58.6775 127.011 61.2738 122.276 63.1562 120.135C58.6558 118.621 54.0906 117.194 49.4604 115.854C51.927 117.346 53.5497 119.421 54.4584 121.822C55.5619 124.611 53.4199 130.06 50.6937 133.173C49.2657 130.579 47.8377 128.892 46.215 125.973C44.3326 122.47 46.9939 118.384 47.9026 115.4C45.5226 114.708 43.1427 114.059 40.7627 113.454C35.5051 117.93 30.1176 122.341 24.6653 126.622L23.8215 125.519C29.0142 121.454 34.142 117.281 39.2049 113C38.902 112.913 38.6207 112.827 38.361 112.74L38.4909 112.091C38.9236 112.221 39.3779 112.329 39.8539 112.416C45.739 107.443 51.4942 102.296 57.1197 96.9773C58.1149 96.0259 59.1318 95.0528 60.1704 94.0582C56.2109 88.6093 47.8377 85.0416 47.9026 74.6628C47.9675 65.0623 53.355 64.1542 57.6389 54.6186C61.9229 61.8838 70.1014 67.4624 69.8418 76.7385C69.5821 83.1604 66.6612 86.4038 62.8316 91.5283C70.4259 84.328 79.2535 76.025 86.3935 69.3436C87.1075 61.3649 86.5882 56.0457 91.9756 49.6238C98.3367 42.0343 104.698 45.7966 111.773 40.2829ZM77.4361 389.336C80.1623 387.715 83.0831 386.482 86.1988 385.898C86.5449 385.855 86.8695 385.812 87.1724 385.768C85.8742 383.174 85.2251 380.384 86.004 377.66C86.5233 375.779 87.0426 373.833 87.5618 371.887C83.6024 372.535 79.3833 372.6 74.7099 373.119C73.5848 375.671 72.4814 378.222 71.3996 380.774C73.8661 383.368 76.073 386.417 77.4361 389.336ZM60.6247 406.072C61.7065 404.645 62.8533 403.218 64.0649 401.791C63.7187 401.185 63.4158 400.602 63.1562 400.039C60.6031 406.05 58.1366 412.083 55.7566 418.137C60.3867 415.629 64.9953 413.056 69.5821 410.418C66.5963 409.056 63.7404 407.434 60.6247 406.072ZM145.59 408.148C138.45 405.748 132.479 400.623 129.753 394.72C125.079 392.709 122.223 387.779 118.848 380.19C115.04 383.001 111.167 385.747 107.229 388.428C112.032 390.179 116.381 392.32 120.016 393.747C118.264 394.785 116.771 395.823 115.343 396.926C116.338 397.401 117.203 397.942 117.939 398.547C117.982 398.374 118.026 398.201 118.069 398.028C123.521 404.386 127.156 401.012 134.426 410.678C137.671 415.024 137.022 420.213 138.515 426.635C138.948 425.338 139.402 424.04 139.878 422.743C141.566 417.813 143.513 412.948 145.59 408.148ZM119.562 379.671C123.327 379.347 126.507 378.503 129.493 378.179C130.402 375.649 131.7 372.99 133.322 370.2C136.049 375.065 139.424 377.595 142.54 382.071C146.434 384.925 146.953 387.779 152.276 389.985C150.718 391.088 149.095 392.255 147.278 393.228C147.862 398.288 146.109 402.829 145.655 408.083C145.958 407.348 146.283 406.613 146.629 405.877C149.355 399.65 152.535 393.617 156.105 387.844C154.937 384.666 154.288 381.422 154.353 378.374C154.18 378.374 153.985 378.374 153.769 378.374C146.888 378.309 139.424 374.092 134.621 367.606C129.817 371.887 124.755 375.909 119.562 379.671ZM105.542 355.346C104.698 357.681 103.594 359.951 102.101 362.157C100.738 364.168 99.3752 365.724 97.9472 367.022C101.582 371.368 104.308 376.363 103.919 379.736C103.594 382.136 102.686 384.406 101.582 386.677C103.01 387.023 104.416 387.433 105.801 387.909C109.826 385.141 113.807 382.309 117.744 379.411C113.525 376.103 108.787 373.703 105.996 363.389C105.152 360.47 105.087 357.875 105.542 355.346ZM77.3712 315.128C68.8032 316.425 60.2353 317.657 51.6024 318.63C58.288 319.344 64.6491 319.798 69.2576 323.625C74.0608 327.517 73.9959 334.263 74.5152 340.556C76.8519 337.766 79.7728 335.301 83.0831 333.096C78.9939 326.933 80.1623 319.928 77.3712 315.128ZM67.3103 276.142C60.6031 276.661 53.8742 277.029 47.1237 277.245C50.7586 278.866 54.2637 280.488 57.7687 282.24C61.5984 280.423 64.9087 279.58 67.8296 279.45C67.6998 278.412 67.5267 277.31 67.3103 276.142ZM67.6349 252.011C65.8823 257.979 66.3367 265.309 58.7424 270.628C50.8235 276.142 43.2941 273.936 39.2698 273.872C41.0872 274.65 42.883 275.428 44.6572 276.207C52.2515 275.947 59.9107 275.558 67.5051 274.974C67.0507 270.239 64.4543 265.633 67.2454 260.055C68.8032 257.071 70.6856 255.19 72.5679 253.633C72.2218 253.59 71.8972 253.525 71.5943 253.438C69.9716 253.049 68.7383 252.53 67.6349 252.011ZM62.1176 246.822C61.1224 248.249 60.1271 249.698 59.1318 251.168C61.0142 250.844 62.8965 250.519 64.8438 250.065C63.8053 249.027 63.0264 247.925 62.1176 246.822ZM68.2191 214.712C69.1927 218.864 71.4645 220.875 72.1136 226.324C72.6328 230.735 70.2312 233.329 68.7383 236.897C69.0412 236.551 69.3441 236.227 69.647 235.924C72.1136 232.983 74.7748 230.237 77.6308 227.686C77.3712 223.859 78.2799 220.226 81.2008 218.28C82.499 217.437 83.6673 216.918 84.641 216.658C77.8904 216.593 73.8012 216.723 68.2191 214.712ZM77.5659 125.649C78.7343 127.27 80.7464 129.152 81.071 134.211C81.3306 138.233 80.2921 139.985 79.3184 143.293C81.071 142.709 83.0182 141.866 85.0953 140.698C84.641 135.638 88.3408 132.914 90.0933 131.681C88.3191 130.687 86.5233 129.735 84.7059 128.827C82.3691 127.703 79.9892 126.643 77.5659 125.649ZM48.6166 114.816C49.3306 113.064 49.7201 111.313 50.1095 109.821C49.3306 108.978 48.5517 108.134 47.7079 107.421C45.6308 109.237 43.5321 111.054 41.4118 112.87C43.835 113.519 46.2366 114.167 48.6166 114.816ZM63.4807 119.551C63.4807 119.508 63.4807 119.465 63.4807 119.421C59.8458 118.578 57.0548 116.632 54.6531 114.492C52.9655 114.751 51.0832 114.556 49.0061 114.946C53.8526 116.373 58.6775 117.908 63.4807 119.551ZM79.7728 117.411C75.2941 119.227 72.2434 120.459 66.0771 119.876C65.3414 119.789 64.6491 119.681 64 119.551C63.8702 119.551 63.762 119.573 63.6754 119.616C68.3056 121.216 72.8708 122.946 77.3712 124.806C77.9554 121.562 78.6044 119.097 79.7728 117.411Z" fill="url(#paint18_linear_326_7799)"/>
<path d="M132.738 262.974C134.426 261.157 140.008 258.627 142.085 252.984C144.357 246.627 139.748 242.281 138.06 237.675C135.594 241.243 131.57 243.319 130.271 248.378C128.194 256.487 132.348 259.795 132.738 262.974Z" fill="url(#paint19_linear_326_7799)"/>
<path d="M117.744 242.087C115.732 246.498 110.28 249.222 109.371 254.022C108.333 259.017 109.826 264.401 111.383 268.553C113.525 266.542 120.276 265.309 122.742 257.331C124.43 251.882 119.951 247.795 117.744 242.087Z" fill="url(#paint20_linear_326_7799)"/>
<path d="M145.266 259.99C150.978 260.833 152.6 261.936 157.144 261.936C162.986 262.066 164.349 257.59 170.32 256.617C164.089 251.298 162.077 248.703 156.3 249.157C151.627 249.546 147.018 255.06 145.266 259.99Z" fill="url(#paint21_linear_326_7799)"/>
<path d="M220.3 354.243C215.757 350.351 210.694 352.751 206.41 352.751C208.552 355.93 209.006 359.886 212.771 362.546C218.807 366.762 222.832 364.427 225.558 365.076C224.649 363.13 224.26 357.681 220.3 354.243Z" fill="url(#paint22_linear_326_7799)"/>
<path d="M217.769 371.563C213.809 368.449 209.071 370.914 203.619 370.914C206.669 373.898 207.189 379.282 210.824 381.552C214.653 384.017 219.586 384.471 223.481 384.471C222.507 382.071 223.611 376.103 217.769 371.563Z" fill="url(#paint23_linear_326_7799)"/>
<path d="M221.468 343.41C222.442 347.302 226.142 347.95 226.986 353.594C230.556 350.675 233.347 345.291 232.698 341.204C231.27 332.317 227.245 330.76 221.468 328.814C223.156 335.431 219.716 336.858 221.468 343.41Z" fill="url(#paint24_linear_326_7799)"/>
<path fill-rule="evenodd" clip-rule="evenodd" d="M233.931 357.227C241.201 353.27 243.537 355.994 248.925 355.475C244.965 360.729 245.355 363.454 241.265 367.087C237.371 370.589 233.022 371.433 227.05 370.265C226.596 375.649 225.882 381.033 224.908 386.417C227.635 382.59 229.257 378.633 232.827 376.946C239.253 373.768 243.927 376.168 249.119 377.79C245.939 381.552 244.835 385.704 239.253 388.104C235.229 389.79 231.464 388.493 224.779 387.39C224.476 388.817 224.194 390.244 223.935 391.671C226.272 392.45 228.673 393.163 231.01 394.331C236.203 392.904 239.837 396.082 244.316 397.964C242.564 398.937 240.876 400.688 239.253 402.245C239.967 403.477 240.746 404.904 241.395 406.526C247.172 419.954 241.395 429.23 241.72 439.219C243.278 434.938 244.9 430.657 246.458 426.376C248.016 422.289 249.639 418.202 251.326 414.116C242.239 386.093 258.401 384.341 273.395 376.946C272.746 385.833 272.357 394.785 268.138 400.753C264.308 406.137 261.452 409.51 252.43 414.31C251.002 418.505 249.531 422.678 248.016 426.83C252.43 420.083 254.182 417.424 261.452 414.116C265.412 412.299 271.708 412.689 280.535 413.986C273.201 423.716 271.708 424.365 265.736 428.776C259.375 433.446 254.702 432.992 246.523 431.046C244.576 436.365 242.693 441.62 240.876 446.939C236.332 460.366 233.671 474.248 230.426 488L228.738 487.676C231.075 477.297 233.412 466.918 236.073 456.604C237.631 451.025 239.448 445.512 241.395 440.128C235.164 433.9 222.312 431.76 217.769 423.586C217.163 423.457 216.535 423.327 215.886 423.197C213.636 430.852 211.191 438.419 208.552 445.901L207.578 445.576C210.239 437.987 212.706 430.397 214.977 422.743C210.953 421.575 206.345 422.289 202.58 418.202C201.541 417.035 200.762 415.867 200.178 414.699C197.971 415.997 195.505 417.1 194.012 418.721C194.986 421.186 195.894 423.716 196.738 426.246C198.166 430.981 199.399 435.717 200.633 440.452L199.854 440.711C198.166 434.354 196.673 427.997 194.336 421.835C193.428 419.413 192.476 417.013 191.481 414.635C187.716 415.608 184.081 419.175 178.499 416.97C173.825 415.154 174.41 412.494 171.489 408.796C171.229 408.883 170.991 408.969 170.775 409.056C159.74 413.013 153.379 405.229 150.848 402.115C153.509 400.299 158.312 395.499 166.036 394.007C171.034 392.969 174.539 393.747 177.785 394.72C177.785 391.607 178.564 388.817 178.304 386.093C185.379 389.271 192.714 393.747 188.949 406.85C189.815 408.71 190.637 410.57 191.416 412.429C192.195 414.375 193.038 416.321 193.817 418.267C193.817 413.662 190.961 409.51 193.428 403.153C196.024 396.407 200.113 396.926 203.683 395.045C204.852 400.947 205.955 402.958 205.566 406.85C208.292 407.24 210.564 408.083 211.797 409.834C213.809 412.624 215.562 415.997 215.886 419.694C215.973 419.435 216.059 419.175 216.146 418.916C214.653 412.364 215.042 408.407 216.081 403.088C212.446 402.829 208.292 401.661 206.604 398.353C204.592 394.461 202.385 390.309 200.568 386.806C206.02 386.158 214.718 387.585 217.055 390.828C217.487 391.434 217.855 392.061 218.158 392.709C218.331 391.758 218.504 390.763 218.677 389.725C220.105 390.374 221.533 390.893 222.961 391.347C223.87 386.893 224.649 382.417 225.298 377.919C226.012 372.146 226.466 366.308 226.726 360.47C226.812 358.567 226.856 356.643 226.856 354.697L227.245 354.632C227.505 359.692 227.44 364.751 227.05 369.746C228.998 365.205 228.933 359.951 233.931 357.227ZM190.702 412.689C189.966 410.786 189.209 408.883 188.43 406.98C185.119 405.294 182.199 404.645 180.186 402.18C178.758 403.802 177.33 405.229 175.708 406.396C178.174 405.942 180.511 405.748 183.302 406.591C186.872 407.694 188.56 409.64 190.702 412.689ZM216.6 420.797C216.47 421.229 216.341 421.662 216.211 422.094C216.427 421.878 216.622 421.684 216.795 421.511C216.708 421.251 216.643 421.013 216.6 420.797Z" fill="url(#paint25_linear_326_7799)"/>
<path d="M82.1744 241.503C86.004 241.243 88.3407 239.167 91.9107 236.962C88.5354 235.6 86.9776 233.07 82.0445 232.551C77.6308 232.162 74.2555 233.978 72.5679 234.497C73.4117 236.637 75.5537 241.827 82.1744 241.503Z" fill="url(#paint26_linear_326_7799)"/>
</g>
</g>
<defs>
<linearGradient id="paint0_linear_326_7799" x1="0.010387" y1="475.173" x2="0.010387" y2="40.2868" gradientUnits="userSpaceOnUse">
<stop stop-color="#70BF66"/>
<stop offset="0.464" stop-color="#9BC762"/>
<stop offset="0.999" stop-color="#E4E76E"/>
</linearGradient>
<linearGradient id="paint1_linear_326_7799" x1="129.715" y1="262.942" x2="129.715" y2="237.704" gradientUnits="userSpaceOnUse">
<stop stop-color="#70BF66"/>
<stop offset="0.464" stop-color="#9BC762"/>
<stop offset="0.999" stop-color="#E4E76E"/>
</linearGradient>
<linearGradient id="paint2_linear_326_7799" x1="109.012" y1="268.574" x2="109.012" y2="242.059" gradientUnits="userSpaceOnUse">
<stop stop-color="#70BF66"/>
<stop offset="0.464" stop-color="#9BC762"/>
<stop offset="0.999" stop-color="#E4E76E"/>
</linearGradient>
<linearGradient id="paint3_linear_326_7799" x1="145.281" y1="261.965" x2="145.281" y2="249.098" gradientUnits="userSpaceOnUse">
<stop stop-color="#70BF66"/>
<stop offset="0.464" stop-color="#9BC762"/>
<stop offset="0.999" stop-color="#E4E76E"/>
</linearGradient>
<linearGradient id="paint4_linear_326_7799" x1="206.378" y1="365.136" x2="206.378" y2="352.036" gradientUnits="userSpaceOnUse">
<stop stop-color="#70BF66"/>
<stop offset="0.464" stop-color="#9BC762"/>
<stop offset="0.999" stop-color="#E4E76E"/>
</linearGradient>
<linearGradient id="paint5_linear_326_7799" x1="203.596" y1="384.49" x2="203.596" y2="369.997" gradientUnits="userSpaceOnUse">
<stop stop-color="#70BF66"/>
<stop offset="0.464" stop-color="#9BC762"/>
<stop offset="0.999" stop-color="#E4E76E"/>
</linearGradient>
<linearGradient id="paint6_linear_326_7799" x1="220.954" y1="353.594" x2="220.954" y2="328.787" gradientUnits="userSpaceOnUse">
<stop stop-color="#70BF66"/>
<stop offset="0.464" stop-color="#9BC762"/>
<stop offset="0.999" stop-color="#E4E76E"/>
</linearGradient>
<linearGradient id="paint7_linear_326_7799" x1="150.877" y1="488.027" x2="150.877" y2="354.658" gradientUnits="userSpaceOnUse">
<stop stop-color="#70BF66"/>
<stop offset="0.464" stop-color="#9BC762"/>
<stop offset="0.999" stop-color="#E4E76E"/>
</linearGradient>
<linearGradient id="paint8_linear_326_7799" x1="72.5465" y1="241.49" x2="72.5465" y2="232.522" gradientUnits="userSpaceOnUse">
<stop stop-color="#70BF66"/>
<stop offset="0.464" stop-color="#9BC762"/>
<stop offset="0.999" stop-color="#E4E76E"/>
</linearGradient>
<linearGradient id="paint9_linear_326_7799" x1="0.010387" y1="475.173" x2="0.010387" y2="40.2868" gradientUnits="userSpaceOnUse">
<stop offset="0.059" stop-color="#ABCC71"/>
<stop offset="0.448" stop-color="#6BA962"/>
<stop offset="0.703" stop-color="#BFD973"/>
<stop offset="1" stop-color="#77B474"/>
</linearGradient>
<linearGradient id="paint10_linear_326_7799" x1="129.715" y1="262.942" x2="129.715" y2="237.704" gradientUnits="userSpaceOnUse">
<stop offset="0.059" stop-color="#ABCC71"/>
<stop offset="0.448" stop-color="#6BA962"/>
<stop offset="0.703" stop-color="#BFD973"/>
<stop offset="1" stop-color="#77B474"/>
</linearGradient>
<linearGradient id="paint11_linear_326_7799" x1="109.012" y1="268.574" x2="109.012" y2="242.059" gradientUnits="userSpaceOnUse">
<stop offset="0.059" stop-color="#ABCC71"/>
<stop offset="0.448" stop-color="#6BA962"/>
<stop offset="0.703" stop-color="#BFD973"/>
<stop offset="1" stop-color="#77B474"/>
</linearGradient>
<linearGradient id="paint12_linear_326_7799" x1="145.281" y1="261.965" x2="145.281" y2="249.098" gradientUnits="userSpaceOnUse">
<stop offset="0.059" stop-color="#ABCC71"/>
<stop offset="0.448" stop-color="#6BA962"/>
<stop offset="0.703" stop-color="#BFD973"/>
<stop offset="1" stop-color="#77B474"/>
</linearGradient>
<linearGradient id="paint13_linear_326_7799" x1="206.378" y1="365.136" x2="206.378" y2="352.036" gradientUnits="userSpaceOnUse">
<stop offset="0.059" stop-color="#ABCC71"/>
<stop offset="0.448" stop-color="#6BA962"/>
<stop offset="0.703" stop-color="#BFD973"/>
<stop offset="1" stop-color="#77B474"/>
</linearGradient>
<linearGradient id="paint14_linear_326_7799" x1="203.596" y1="384.49" x2="203.596" y2="369.997" gradientUnits="userSpaceOnUse">
<stop offset="0.059" stop-color="#ABCC71"/>
<stop offset="0.448" stop-color="#6BA962"/>
<stop offset="0.703" stop-color="#BFD973"/>
<stop offset="1" stop-color="#77B474"/>
</linearGradient>
<linearGradient id="paint15_linear_326_7799" x1="220.954" y1="353.594" x2="220.954" y2="328.787" gradientUnits="userSpaceOnUse">
<stop offset="0.059" stop-color="#ABCC71"/>
<stop offset="0.448" stop-color="#6BA962"/>
<stop offset="0.703" stop-color="#BFD973"/>
<stop offset="1" stop-color="#77B474"/>
</linearGradient>
<linearGradient id="paint16_linear_326_7799" x1="150.877" y1="488.027" x2="150.877" y2="354.658" gradientUnits="userSpaceOnUse">
<stop offset="0.059" stop-color="#ABCC71"/>
<stop offset="0.448" stop-color="#6BA962"/>
<stop offset="0.703" stop-color="#BFD973"/>
<stop offset="1" stop-color="#77B474"/>
</linearGradient>
<linearGradient id="paint17_linear_326_7799" x1="72.5465" y1="241.49" x2="72.5465" y2="232.522" gradientUnits="userSpaceOnUse">
<stop offset="0.059" stop-color="#ABCC71"/>
<stop offset="0.448" stop-color="#6BA962"/>
<stop offset="0.703" stop-color="#BFD973"/>
<stop offset="1" stop-color="#77B474"/>
</linearGradient>
<linearGradient id="paint18_linear_326_7799" x1="0.010387" y1="475.173" x2="0.010387" y2="40.2868" gradientUnits="userSpaceOnUse">
<stop offset="0.059" stop-color="#ABCC71"/>
<stop offset="0.448" stop-color="#6BA962"/>
<stop offset="0.703" stop-color="#BFD973"/>
<stop offset="1" stop-color="#77B474"/>
</linearGradient>
<linearGradient id="paint19_linear_326_7799" x1="129.715" y1="262.942" x2="129.715" y2="237.704" gradientUnits="userSpaceOnUse">
<stop offset="0.059" stop-color="#ABCC71"/>
<stop offset="0.448" stop-color="#6BA962"/>
<stop offset="0.703" stop-color="#BFD973"/>
<stop offset="1" stop-color="#77B474"/>
</linearGradient>
<linearGradient id="paint20_linear_326_7799" x1="109.012" y1="268.574" x2="109.012" y2="242.059" gradientUnits="userSpaceOnUse">
<stop offset="0.059" stop-color="#ABCC71"/>
<stop offset="0.448" stop-color="#6BA962"/>
<stop offset="0.703" stop-color="#BFD973"/>
<stop offset="1" stop-color="#77B474"/>
</linearGradient>
<linearGradient id="paint21_linear_326_7799" x1="145.281" y1="261.965" x2="145.281" y2="249.098" gradientUnits="userSpaceOnUse">
<stop offset="0.059" stop-color="#ABCC71"/>
<stop offset="0.448" stop-color="#6BA962"/>
<stop offset="0.703" stop-color="#BFD973"/>
<stop offset="1" stop-color="#77B474"/>
</linearGradient>
<linearGradient id="paint22_linear_326_7799" x1="206.378" y1="365.136" x2="206.378" y2="352.036" gradientUnits="userSpaceOnUse">
<stop offset="0.059" stop-color="#ABCC71"/>
<stop offset="0.448" stop-color="#6BA962"/>
<stop offset="0.703" stop-color="#BFD973"/>
<stop offset="1" stop-color="#77B474"/>
</linearGradient>
<linearGradient id="paint23_linear_326_7799" x1="203.596" y1="384.49" x2="203.596" y2="369.997" gradientUnits="userSpaceOnUse">
<stop offset="0.059" stop-color="#ABCC71"/>
<stop offset="0.448" stop-color="#6BA962"/>
<stop offset="0.703" stop-color="#BFD973"/>
<stop offset="1" stop-color="#77B474"/>
</linearGradient>
<linearGradient id="paint24_linear_326_7799" x1="220.954" y1="353.594" x2="220.954" y2="328.787" gradientUnits="userSpaceOnUse">
<stop offset="0.059" stop-color="#ABCC71"/>
<stop offset="0.448" stop-color="#6BA962"/>
<stop offset="0.703" stop-color="#BFD973"/>
<stop offset="1" stop-color="#77B474"/>
</linearGradient>
<linearGradient id="paint25_linear_326_7799" x1="150.877" y1="488.027" x2="150.877" y2="354.658" gradientUnits="userSpaceOnUse">
<stop offset="0.059" stop-color="#ABCC71"/>
<stop offset="0.448" stop-color="#6BA962"/>
<stop offset="0.703" stop-color="#BFD973"/>
<stop offset="1" stop-color="#77B474"/>
</linearGradient>
<linearGradient id="paint26_linear_326_7799" x1="72.5465" y1="241.49" x2="72.5465" y2="232.522" gradientUnits="userSpaceOnUse">
<stop offset="0.059" stop-color="#ABCC71"/>
<stop offset="0.448" stop-color="#6BA962"/>
<stop offset="0.703" stop-color="#BFD973"/>
<stop offset="1" stop-color="#77B474"/>
</linearGradient>
<clipPath id="clip0_326_7799">
<rect width="488" height="320" fill="white" transform="matrix(0 -1 1 0 0 488)"/>
</clipPath>
</defs>
</svg>
