<svg width="236" height="57" viewBox="0 0 236 57" fill="none" xmlns="http://www.w3.org/2000/svg">
<g clip-path="url(#clip0_100_17639)">
<path d="M12 8.27881H13.2754V37.265H12V8.27881ZM27.4554 19.8733H28.6921V23.7381C29.259 22.4499 30.2252 21.4192 31.5907 20.6463C32.9564 19.8475 34.4636 19.4482 36.1126 19.4482C38.2512 19.4482 39.9388 20.131 41.1755 21.4965C42.438 22.8364 43.0693 24.7172 43.0693 27.1392V37.265H41.8325V27.1392C41.8325 25.0522 41.3172 23.4289 40.2866 22.2695C39.2817 21.11 37.8647 20.5303 36.0353 20.5303C34.6955 20.5303 33.4588 20.8395 32.325 21.4579C31.2172 22.0505 30.3283 22.875 29.6583 23.9314C29.0142 24.9877 28.6921 26.1858 28.6921 27.5257V37.265H27.4554V19.8733ZM56.4136 36.6467C57.7533 36.6467 59.0287 36.2988 60.2397 35.6032C61.4507 34.9075 62.4555 33.9541 63.2543 32.7432V34.7142C62.3009 35.7706 61.2574 36.5436 60.1238 37.0331C58.99 37.4969 57.7018 37.7288 56.259 37.7288C54.6614 37.7288 53.1541 37.3037 51.7371 36.4534C50.3458 35.6032 49.225 34.4695 48.3747 33.0524C47.5501 31.6352 47.138 30.1279 47.138 28.5305C47.138 26.8042 47.5501 25.2583 48.3747 23.8927C49.1992 22.5014 50.32 21.4192 51.7371 20.6463C53.1799 19.8733 54.7774 19.4868 56.5295 19.4868C59.2091 19.4868 61.4893 20.5432 63.3702 22.656L51.2347 34.6369C52.0849 35.3326 52.9094 35.8479 53.7082 36.1829C54.5068 36.4921 55.4087 36.6467 56.4136 36.6467ZM48.3747 28.4146C48.3747 30.5531 49.0832 32.3825 50.5004 33.9026L61.8243 22.656C60.974 21.9088 60.1495 21.3806 59.3508 21.0714C58.5521 20.7364 57.5987 20.569 56.4908 20.569C54.9191 20.569 53.5149 20.9168 52.2782 21.6125C51.0671 22.2823 50.1139 23.2099 49.4182 24.3951C48.7225 25.5804 48.3747 26.9201 48.3747 28.4146ZM75.6999 36.6467C77.0398 36.6467 78.3152 36.2988 79.5261 35.6032C80.7371 34.9075 81.7419 33.9541 82.5407 32.7432V34.7142C81.5873 35.7706 80.5438 36.5436 79.4102 37.0331C78.2765 37.4969 76.9882 37.7288 75.5453 37.7288C73.9479 37.7288 72.4406 37.3037 71.0235 36.4534C69.6321 35.6032 68.5113 34.4695 67.6611 33.0524C66.8366 31.6352 66.4243 30.1279 66.4243 28.5305C66.4243 26.8042 66.8366 25.2583 67.6611 23.8927C68.4855 22.5014 69.6063 21.4192 71.0235 20.6463C72.4663 19.8733 74.0638 19.4868 75.8159 19.4868C78.4954 19.4868 80.7757 20.5432 82.6566 22.656L70.521 34.6369C71.3713 35.3326 72.1958 35.8479 72.9945 36.1829C73.7933 36.4921 74.6951 36.6467 75.6999 36.6467ZM67.6611 28.4146C67.6611 30.5531 68.3696 32.3825 69.7867 33.9026L81.1107 22.656C80.2604 21.9088 79.436 21.3806 78.6372 21.0714C77.8384 20.7364 76.8852 20.569 75.7772 20.569C74.2055 20.569 72.8013 20.9168 71.5646 21.6125C70.3536 22.2823 69.4002 23.2099 68.7046 24.3951C68.0089 25.5804 67.6611 26.9201 67.6611 28.4146ZM94.7159 37.6902C93.041 37.6902 91.4951 37.2779 90.078 36.4534C88.6867 35.629 87.5788 34.521 86.7543 33.1297C85.9297 31.7383 85.5175 30.2182 85.5175 28.5692C85.5175 26.9201 85.9297 25.4 86.7543 24.0087C87.5788 22.6173 88.6867 21.5094 90.078 20.6849C91.4951 19.8604 93.041 19.4482 94.7159 19.4482C96.3391 19.4482 97.885 19.8861 99.3536 20.7622C100.822 21.6125 101.904 22.7333 102.6 24.1246V8.27881H103.837V37.265H102.6V33.0524C101.827 34.4437 100.706 35.5645 99.2377 36.4148C97.7948 37.265 96.2875 37.6902 94.7159 37.6902ZM94.6772 36.608C96.0942 36.608 97.4083 36.2473 98.6193 35.5259C99.8561 34.7787 100.835 33.7995 101.557 32.5886C102.304 31.3518 102.677 30.025 102.677 28.6078C102.677 27.1907 102.304 25.8638 101.557 24.627C100.835 23.3903 99.8561 22.3983 98.6193 21.6511C97.4083 20.904 96.0942 20.5303 94.6772 20.5303C93.2601 20.5303 91.946 20.904 90.7351 21.6511C89.524 22.3726 88.5578 23.3516 87.8364 24.5884C87.115 25.8251 86.7543 27.152 86.7543 28.5692C86.7543 30.012 87.1021 31.3518 87.7978 32.5886C88.5192 33.7995 89.4854 34.7787 90.6964 35.5259C91.9332 36.2473 93.2601 36.608 94.6772 36.608ZM123.43 37.4969C121.522 37.4969 119.938 36.9172 118.676 35.7577C117.439 34.5983 116.821 33.0009 116.821 30.9654V12.878H118.058V19.8733H123.391V20.9555H118.058V30.9654C118.058 32.6659 118.56 34.0057 119.565 34.9848C120.595 35.9381 121.884 36.4148 123.43 36.4148V37.4969ZM126.68 8.27881H127.917V23.4676C128.458 22.3081 129.373 21.3548 130.661 20.6076C131.975 19.8347 133.302 19.4482 134.642 19.4482C137.09 19.4482 138.97 20.118 140.284 21.4579C141.624 22.7977 142.294 24.6915 142.294 27.1392V37.265H141.057V27.1392C141.057 25.0264 140.491 23.4031 139.357 22.2695C138.249 21.11 136.677 20.5303 134.642 20.5303C133.405 20.5303 132.272 20.8267 131.241 21.4192C130.211 21.9861 129.399 22.7848 128.806 23.8154C128.213 24.8203 127.917 25.9282 127.917 27.1392V37.265H126.68V8.27881ZM148.682 15.8925C148.321 15.8925 147.999 15.7637 147.715 15.506C147.458 15.2484 147.329 14.9263 147.329 14.5398C147.329 14.1791 147.458 13.8699 147.715 13.6123C147.999 13.3546 148.321 13.2258 148.682 13.2258C149.043 13.2258 149.352 13.3546 149.609 13.6123C149.893 13.8699 150.034 14.1791 150.034 14.5398C150.034 14.9263 149.893 15.2484 149.609 15.506C149.352 15.7637 149.043 15.8925 148.682 15.8925ZM148.063 19.8733H149.3V37.265H148.063V19.8733ZM159.275 37.6902C158.038 37.6902 156.944 37.4841 155.99 37.0718C155.037 36.6338 154.354 36.0798 153.942 35.4099V33.3616C154.432 34.4695 155.101 35.294 155.951 35.835C156.802 36.3503 157.884 36.608 159.198 36.608C160.461 36.608 161.478 36.2215 162.251 35.4486C163.024 34.6498 163.41 33.6321 163.41 32.3953C163.41 31.339 163.192 30.5274 162.753 29.9605C162.316 29.3679 161.608 28.7753 160.628 28.1827L159.159 27.3324C158.103 26.6882 157.304 26.1858 156.763 25.8251C156.248 25.4387 155.835 25.0135 155.526 24.5497C155.217 24.0602 155.062 23.4934 155.062 22.8492C155.062 21.8186 155.424 20.9941 156.145 20.3757C156.866 19.7574 157.806 19.4482 158.966 19.4482C160.383 19.4482 161.569 19.7702 162.522 20.4144V22.1149C161.723 21.0585 160.577 20.5303 159.082 20.5303C158.258 20.5303 157.588 20.7364 157.072 21.1487C156.557 21.561 156.299 22.0891 156.299 22.7333C156.299 23.3001 156.454 23.8026 156.763 24.2406C157.072 24.6528 157.497 25.0393 158.038 25.4C158.606 25.7607 159.533 26.3018 160.821 27.0232C162.135 27.7704 163.101 28.5434 163.72 29.3421C164.338 30.1151 164.647 31.1328 164.647 32.3953C164.647 33.9928 164.12 35.2811 163.063 36.2602C162.033 37.2135 160.77 37.6902 159.275 37.6902Z" fill="white"/>
<path d="M12 8.27881H13.2754V37.265H12V8.27881ZM27.4554 19.8733H28.6921V23.7381C29.259 22.4499 30.2252 21.4192 31.5907 20.6463C32.9564 19.8475 34.4636 19.4482 36.1126 19.4482C38.2512 19.4482 39.9388 20.131 41.1755 21.4965C42.438 22.8364 43.0693 24.7172 43.0693 27.1392V37.265H41.8325V27.1392C41.8325 25.0522 41.3172 23.4289 40.2866 22.2695C39.2817 21.11 37.8647 20.5303 36.0353 20.5303C34.6955 20.5303 33.4588 20.8395 32.325 21.4579C31.2172 22.0505 30.3283 22.875 29.6583 23.9314C29.0142 24.9877 28.6921 26.1858 28.6921 27.5257V37.265H27.4554V19.8733ZM56.4136 36.6467C57.7533 36.6467 59.0287 36.2988 60.2397 35.6032C61.4507 34.9075 62.4555 33.9541 63.2543 32.7432V34.7142C62.3009 35.7706 61.2574 36.5436 60.1238 37.0331C58.99 37.4969 57.7018 37.7288 56.259 37.7288C54.6614 37.7288 53.1541 37.3037 51.7371 36.4534C50.3458 35.6032 49.225 34.4695 48.3747 33.0524C47.5501 31.6352 47.138 30.1279 47.138 28.5305C47.138 26.8042 47.5501 25.2583 48.3747 23.8927C49.1992 22.5014 50.32 21.4192 51.7371 20.6463C53.1799 19.8733 54.7774 19.4868 56.5295 19.4868C59.2091 19.4868 61.4893 20.5432 63.3702 22.656L51.2347 34.6369C52.0849 35.3326 52.9094 35.8479 53.7082 36.1829C54.5068 36.4921 55.4087 36.6467 56.4136 36.6467ZM48.3747 28.4146C48.3747 30.5531 49.0832 32.3825 50.5004 33.9026L61.8243 22.656C60.974 21.9088 60.1495 21.3806 59.3508 21.0714C58.5521 20.7364 57.5987 20.569 56.4908 20.569C54.9191 20.569 53.5149 20.9168 52.2782 21.6125C51.0671 22.2823 50.1139 23.2099 49.4182 24.3951C48.7225 25.5804 48.3747 26.9201 48.3747 28.4146ZM75.6999 36.6467C77.0398 36.6467 78.3152 36.2988 79.5261 35.6032C80.7371 34.9075 81.7419 33.9541 82.5407 32.7432V34.7142C81.5873 35.7706 80.5438 36.5436 79.4102 37.0331C78.2765 37.4969 76.9882 37.7288 75.5453 37.7288C73.9479 37.7288 72.4406 37.3037 71.0235 36.4534C69.6321 35.6032 68.5113 34.4695 67.6611 33.0524C66.8366 31.6352 66.4243 30.1279 66.4243 28.5305C66.4243 26.8042 66.8366 25.2583 67.6611 23.8927C68.4855 22.5014 69.6063 21.4192 71.0235 20.6463C72.4663 19.8733 74.0638 19.4868 75.8159 19.4868C78.4954 19.4868 80.7757 20.5432 82.6566 22.656L70.521 34.6369C71.3713 35.3326 72.1958 35.8479 72.9945 36.1829C73.7933 36.4921 74.6951 36.6467 75.6999 36.6467ZM67.6611 28.4146C67.6611 30.5531 68.3696 32.3825 69.7867 33.9026L81.1107 22.656C80.2604 21.9088 79.436 21.3806 78.6372 21.0714C77.8384 20.7364 76.8852 20.569 75.7772 20.569C74.2055 20.569 72.8013 20.9168 71.5646 21.6125C70.3536 22.2823 69.4002 23.2099 68.7046 24.3951C68.0089 25.5804 67.6611 26.9201 67.6611 28.4146ZM94.7159 37.6902C93.041 37.6902 91.4951 37.2779 90.078 36.4534C88.6867 35.629 87.5788 34.521 86.7543 33.1297C85.9297 31.7383 85.5175 30.2182 85.5175 28.5692C85.5175 26.9201 85.9297 25.4 86.7543 24.0087C87.5788 22.6173 88.6867 21.5094 90.078 20.6849C91.4951 19.8604 93.041 19.4482 94.7159 19.4482C96.3391 19.4482 97.885 19.8861 99.3536 20.7622C100.822 21.6125 101.904 22.7333 102.6 24.1246V8.27881H103.837V37.265H102.6V33.0524C101.827 34.4437 100.706 35.5645 99.2377 36.4148C97.7948 37.265 96.2875 37.6902 94.7159 37.6902ZM94.6772 36.608C96.0942 36.608 97.4083 36.2473 98.6193 35.5259C99.8561 34.7787 100.835 33.7995 101.557 32.5886C102.304 31.3518 102.677 30.025 102.677 28.6078C102.677 27.1907 102.304 25.8638 101.557 24.627C100.835 23.3903 99.8561 22.3983 98.6193 21.6511C97.4083 20.904 96.0942 20.5303 94.6772 20.5303C93.2601 20.5303 91.946 20.904 90.7351 21.6511C89.524 22.3726 88.5578 23.3516 87.8364 24.5884C87.115 25.8251 86.7543 27.152 86.7543 28.5692C86.7543 30.012 87.1021 31.3518 87.7978 32.5886C88.5192 33.7995 89.4854 34.7787 90.6964 35.5259C91.9332 36.2473 93.2601 36.608 94.6772 36.608ZM123.43 37.4969C121.522 37.4969 119.938 36.9172 118.676 35.7577C117.439 34.5983 116.821 33.0009 116.821 30.9654V12.878H118.058V19.8733H123.391V20.9555H118.058V30.9654C118.058 32.6659 118.56 34.0057 119.565 34.9848C120.595 35.9381 121.884 36.4148 123.43 36.4148V37.4969ZM126.68 8.27881H127.917V23.4676C128.458 22.3081 129.373 21.3548 130.661 20.6076C131.975 19.8347 133.302 19.4482 134.642 19.4482C137.09 19.4482 138.97 20.118 140.284 21.4579C141.624 22.7977 142.294 24.6915 142.294 27.1392V37.265H141.057V27.1392C141.057 25.0264 140.491 23.4031 139.357 22.2695C138.249 21.11 136.677 20.5303 134.642 20.5303C133.405 20.5303 132.272 20.8267 131.241 21.4192C130.211 21.9861 129.399 22.7848 128.806 23.8154C128.213 24.8203 127.917 25.9282 127.917 27.1392V37.265H126.68V8.27881ZM148.682 15.8925C148.321 15.8925 147.999 15.7637 147.715 15.506C147.458 15.2484 147.329 14.9263 147.329 14.5398C147.329 14.1791 147.458 13.8699 147.715 13.6123C147.999 13.3546 148.321 13.2258 148.682 13.2258C149.043 13.2258 149.352 13.3546 149.609 13.6123C149.893 13.8699 150.034 14.1791 150.034 14.5398C150.034 14.9263 149.893 15.2484 149.609 15.506C149.352 15.7637 149.043 15.8925 148.682 15.8925ZM148.063 19.8733H149.3V37.265H148.063V19.8733ZM159.275 37.6902C158.038 37.6902 156.944 37.4841 155.99 37.0718C155.037 36.6338 154.354 36.0798 153.942 35.4099V33.3616C154.432 34.4695 155.101 35.294 155.951 35.835C156.802 36.3503 157.884 36.608 159.198 36.608C160.461 36.608 161.478 36.2215 162.251 35.4486C163.024 34.6498 163.41 33.6321 163.41 32.3953C163.41 31.339 163.192 30.5274 162.753 29.9605C162.316 29.3679 161.608 28.7753 160.628 28.1827L159.159 27.3324C158.103 26.6882 157.304 26.1858 156.763 25.8251C156.248 25.4387 155.835 25.0135 155.526 24.5497C155.217 24.0602 155.062 23.4934 155.062 22.8492C155.062 21.8186 155.424 20.9941 156.145 20.3757C156.866 19.7574 157.806 19.4482 158.966 19.4482C160.383 19.4482 161.569 19.7702 162.522 20.4144V22.1149C161.723 21.0585 160.577 20.5303 159.082 20.5303C158.258 20.5303 157.588 20.7364 157.072 21.1487C156.557 21.561 156.299 22.0891 156.299 22.7333C156.299 23.3001 156.454 23.8026 156.763 24.2406C157.072 24.6528 157.497 25.0393 158.038 25.4C158.606 25.7607 159.533 26.3018 160.821 27.0232C162.135 27.7704 163.101 28.5434 163.72 29.3421C164.338 30.1151 164.647 31.1328 164.647 32.3953C164.647 33.9928 164.12 35.2811 163.063 36.2602C162.033 37.2135 160.77 37.6902 159.275 37.6902Z" fill="url(#paint0_linear_100_17639)"/>
<path d="M0.689941 45.3203H223.701" stroke="#9EC14B" stroke-width="1.1" stroke-miterlimit="10" stroke-linecap="round"/>
<path d="M189.916 36.6515C192.88 34.5029 195.621 34.7252 199.473 34.5029C198.658 38.2816 197.992 45.3201 186.952 45.246C186.952 42.801 187.027 38.8742 189.916 36.6515Z" fill="url(#paint1_linear_100_17639)"/>
<path style="mix-blend-mode:color-dodge" opacity="0.28" d="M189.916 36.6515C192.88 34.5029 195.621 34.7252 199.473 34.5029C198.658 38.2816 197.992 45.3201 186.952 45.246C186.952 42.801 187.027 38.8742 189.916 36.6515Z" fill="url(#paint2_linear_100_17639)"/>
<path d="M216.885 42.5046C219.849 39.9115 219.553 38.0593 220.293 34.5029C217.033 34.9475 214.44 34.5029 211.995 36.9479C209.699 39.1706 209.55 42.6528 209.624 45.3201C213.107 44.8755 214.811 44.2087 216.885 42.5046Z" fill="url(#paint3_linear_100_17639)"/>
<path style="mix-blend-mode:color-dodge" opacity="0.28" d="M216.885 42.5046C219.849 39.9115 219.553 38.0593 220.293 34.5029C217.033 34.9475 214.44 34.5029 211.995 36.9479C209.699 39.1706 209.55 42.6528 209.624 45.3201C213.107 44.8755 214.811 44.2087 216.885 42.5046Z" fill="url(#paint4_linear_100_17639)"/>
<path d="M236 45.3203C233.629 43.2458 226.443 39.1708 221.998 45.0239C224.442 50.5807 232.889 49.5435 236 45.3203Z" fill="url(#paint5_linear_100_17639)"/>
<path style="mix-blend-mode:color-dodge" opacity="0.28" d="M236 45.3203C233.629 43.2458 226.443 39.1708 221.998 45.0239C224.442 50.5807 232.889 49.5435 236 45.3203Z" fill="url(#paint6_linear_100_17639)"/>
<path d="M185.766 48.062C187.915 51.0997 187.544 53.6928 187.841 56.4341C183.395 56.286 180.209 55.471 178.061 53.1001C175.912 50.8033 175.764 48.062 175.023 44.7279C179.098 44.5797 183.766 45.1725 185.766 48.062Z" fill="url(#paint7_linear_100_17639)"/>
<path style="mix-blend-mode:color-dodge" opacity="0.28" d="M185.766 48.062C187.915 51.0997 187.544 53.6928 187.841 56.4341C183.395 56.286 180.209 55.471 178.061 53.1001C175.912 50.8033 175.764 48.062 175.023 44.7279C179.098 44.5797 183.766 45.1725 185.766 48.062Z" fill="url(#paint8_linear_100_17639)"/>
<path d="M207.845 48.9511C209.253 50.7292 209.328 53.7669 209.328 56.3601C205.845 56.3601 203.178 55.2487 201.548 53.3224C199.844 51.3219 199.103 48.5066 199.4 45.2466C203.104 45.2466 205.623 46.2098 207.845 48.9511Z" fill="url(#paint9_linear_100_17639)"/>
<path style="mix-blend-mode:color-dodge" opacity="0.28" d="M207.845 48.9511C209.253 50.7292 209.328 53.7669 209.328 56.3601C205.845 56.3601 203.178 55.2487 201.548 53.3224C199.844 51.3219 199.103 48.5066 199.4 45.2466C203.104 45.2466 205.623 46.2098 207.845 48.9511Z" fill="url(#paint10_linear_100_17639)"/>
</g>
<defs>
<linearGradient id="paint0_linear_100_17639" x1="8.97069" y1="22.7719" x2="165.459" y2="22.7719" gradientUnits="userSpaceOnUse">
<stop stop-color="#1D6617"/>
<stop offset="1" stop-color="#8CD02B"/>
</linearGradient>
<linearGradient id="paint1_linear_100_17639" x1="188.008" y1="32.9197" x2="199.463" y2="34.5069" gradientUnits="userSpaceOnUse">
<stop offset="0.025" stop-color="#9BC762"/>
<stop offset="0.999" stop-color="#E4E76E"/>
</linearGradient>
<linearGradient id="paint2_linear_100_17639" x1="188.008" y1="32.9197" x2="199.463" y2="34.5069" gradientUnits="userSpaceOnUse">
<stop offset="0.025" stop-color="#9BC762"/>
<stop offset="0.999" stop-color="#E4E76E"/>
</linearGradient>
<linearGradient id="paint3_linear_100_17639" x1="201.041" y1="29.0736" x2="213.611" y2="21.945" gradientUnits="userSpaceOnUse">
<stop stop-color="#70BF66"/>
<stop offset="0.999" stop-color="#9DC762"/>
</linearGradient>
<linearGradient id="paint4_linear_100_17639" x1="201.041" y1="29.0736" x2="213.611" y2="21.945" gradientUnits="userSpaceOnUse">
<stop stop-color="#70BF66"/>
<stop offset="0.999" stop-color="#9DC762"/>
</linearGradient>
<linearGradient id="paint5_linear_100_17639" x1="228.7" y1="52.7708" x2="236.062" y2="45.3681" gradientUnits="userSpaceOnUse">
<stop offset="0.025" stop-color="#9BC762"/>
<stop offset="0.999" stop-color="#E4E76E"/>
</linearGradient>
<linearGradient id="paint6_linear_100_17639" x1="228.7" y1="52.7708" x2="236.062" y2="45.3681" gradientUnits="userSpaceOnUse">
<stop offset="0.025" stop-color="#9BC762"/>
<stop offset="0.999" stop-color="#E4E76E"/>
</linearGradient>
<linearGradient id="paint7_linear_100_17639" x1="175.252" y1="43.9145" x2="190.29" y2="47.2701" gradientUnits="userSpaceOnUse">
<stop stop-color="#70BF66"/>
<stop offset="0.464" stop-color="#9BC762"/>
<stop offset="0.999" stop-color="#E4E76E"/>
</linearGradient>
<linearGradient id="paint8_linear_100_17639" x1="175.252" y1="43.9145" x2="190.29" y2="47.2701" gradientUnits="userSpaceOnUse">
<stop stop-color="#70BF66"/>
<stop offset="0.464" stop-color="#9BC762"/>
<stop offset="0.999" stop-color="#E4E76E"/>
</linearGradient>
<linearGradient id="paint9_linear_100_17639" x1="199.43" y1="45.0814" x2="211.132" y2="46.7679" gradientUnits="userSpaceOnUse">
<stop stop-color="#70BF66"/>
<stop offset="0.464" stop-color="#9BC762"/>
<stop offset="0.999" stop-color="#E4E76E"/>
</linearGradient>
<linearGradient id="paint10_linear_100_17639" x1="199.43" y1="45.0814" x2="211.132" y2="46.7679" gradientUnits="userSpaceOnUse">
<stop stop-color="#70BF66"/>
<stop offset="0.464" stop-color="#9BC762"/>
<stop offset="0.999" stop-color="#E4E76E"/>
</linearGradient>
<clipPath id="clip0_100_17639">
<rect width="236" height="56.5848" fill="white"/>
</clipPath>
</defs>
</svg>
