<svg width="24" height="24" viewBox="0 0 24 24" fill="none" xmlns="http://www.w3.org/2000/svg">
<path d="M20.0291 10.5193C19.8801 10.5343 19.7292 10.5413 19.5792 10.5423C17.9312 10.5423 16.3941 9.71128 15.4911 8.33327V15.8563C15.4911 18.9273 13.0011 21.4173 9.93015 21.4173C6.85915 21.4173 4.36914 18.9283 4.36914 15.8563C4.36914 12.7853 6.85915 10.2953 9.93015 10.2953C10.0461 10.2953 10.1601 10.3053 10.2741 10.3133V13.0533C10.1601 13.0393 10.0481 13.0183 9.93015 13.0183C8.36315 13.0183 7.09216 14.2893 7.09216 15.8563C7.09216 17.4233 8.36315 18.6943 9.93015 18.6943C11.4981 18.6943 12.8821 17.4593 12.8821 15.8913L12.9091 3.11328H15.5302C15.7772 5.46428 17.6732 7.30027 20.0302 7.47227V10.5173" fill="#1E1E1E"/>
</svg>
